<svg xmlns="http://www.w3.org/2000/svg" viewBox="0 0 443.27 298.19"><defs><style>.cls-1{fill:#dd4080;}.cls-2{fill:#212121;}.cls-3{fill:#fff;}</style></defs><g id="Capa_2" data-name="Capa 2"><g id="Capa_1-2" data-name="Capa 1"><path class="cls-1" d="M136.82,202.36c.59-.68,1.18-1.36,1.75-2a8.47,8.47,0,0,0,.58-.76c2.3-3.34,1.57-6-2.11-7.71a18.69,18.69,0,0,0-7.09-1.6c-6.71-.23-13.33-1-19.67-3.42A28.84,28.84,0,0,1,96.68,177a27.53,27.53,0,0,1-5-12.91c-1.19-8.82.39-17.34,3-25.71a87.17,87.17,0,0,1,7.06-16.69c.15-.27.28-.57.41-.85a.59.59,0,0,0-.08-.25,4.09,4.09,0,0,0-.39.44,102.92,102.92,0,0,0-11.75,23.06,49.18,49.18,0,0,0-3,19.37,28.49,28.49,0,0,0,8,18.61,77.65,77.65,0,0,0,6,5.16,3.4,3.4,0,0,1,1,1c-.51-.23-1-.41-1.53-.67C89.65,182,82.58,173.23,79,161.71c-2.33-7.39-2.59-15-2.13-22.69.59-9.8,4-18.72,8-27.48,3-6.61,6.5-13,10-19.39a50.22,50.22,0,0,0,5.44-16.38,28.54,28.54,0,0,0,0-9.67,15.27,15.27,0,0,0-8.63-11.51c-3.74-1.85-7.77-2.41-12.24-2.7,1.8.6,3.27,1,4.68,1.55,6.86,2.78,10.54,7.9,11.23,15.26.5,5.34-.58,10.45-2.09,15.51a81,81,0,0,1-5.06,12.36,2.45,2.45,0,0,1-.86,1c.16-.47.3-1,.48-1.41a47.14,47.14,0,0,0,3.14-12.3c.52-5.28.34-10.52-2.22-15.38a16.48,16.48,0,0,0-12.3-8.89,33.61,33.61,0,0,0-14.7.41A26.84,26.84,0,0,0,47,69.7a2.38,2.38,0,0,1-1,.86c.15-.9.25-1.82.44-2.71a56.08,56.08,0,0,1,11.1-24.41A39.92,39.92,0,0,1,82.32,28.9,64.36,64.36,0,0,1,96,28.34,8.4,8.4,0,0,1,99,29H95.26A46,46,0,0,0,77.8,32.83a25.77,25.77,0,0,0-10,7.78l1.34-.94a47.58,47.58,0,0,1,21.3-8.29,39.13,39.13,0,0,1,24.09,4c8.26,4.36,13.07,11.23,14.53,20.47,1,6.3.27,12.48-1.16,18.62a108.24,108.24,0,0,1-8,21.93c-1.93,4.07-4,8.11-5.69,12.27a67.1,67.1,0,0,0-4.86,19,56.58,56.58,0,0,0,5,30.26A68,68,0,0,0,137,185a34.88,34.88,0,0,1,4.3,3.76,11.27,11.27,0,0,1,1.88,2.75,6.1,6.1,0,0,1-.62,6.74A12,12,0,0,1,136.82,202.36Z"/><path class="cls-1" d="M178.11,216.89c-.28.25-.45.38-.45.38-1.08.91-2.31,1.94-3.63,3.1H174c-2.19,1.92-4.61,4.17-7,6.64-11.44,11.63-22.68,27.91-6.82,36.34a39.57,39.57,0,0,1-19-11.9,41.54,41.54,0,0,1-6.83-10.94,1.79,1.79,0,0,1,.28-.27c-.26-.64-.51-1.29-.72-2a20.82,20.82,0,0,1-.72-2.9c-1.5-8.11,1.13-17.86,11.92-29.09.2-.22.41-.42.61-.63a15.64,15.64,0,0,0,2.1-2.93,12,12,0,0,0,1-9.23v-.1a25,25,0,0,0-5.18-9.12,51.29,51.29,0,0,0-6.41-6.18c-9.66-8.14-17-17.89-20.73-30.14a51.63,51.63,0,0,1-2.22-13.46c-.49-13.64,3.35-26.08,10.16-37.72.16-.26.36-.48.53-.72l.2.1c-.14.37-.26.76-.41,1.13a62.83,62.83,0,0,0-4.19,16.28A47.29,47.29,0,0,0,127,144.15a60,60,0,0,0,21.61,21c.93.55,1.87,1.09,2.8,1.65,3.21,1.91,6.38,3.89,9.46,6l.53.34a81.15,81.15,0,0,1,13.15,10.36l.29.27a41.44,41.44,0,0,1,6.16,7.68C189.56,205.39,180.32,214.89,178.11,216.89Z"/><path class="cls-1" d="M154.36,165.13l.08.05h-.08Z"/><path class="cls-1" d="M138,36.8c1.6,1,3.28,1.92,4.8,3.05a42.09,42.09,0,0,1,11.7,13.71,65.45,65.45,0,0,1,7,20.23,105.58,105.58,0,0,1,1.61,20A97.13,97.13,0,0,0,167,122.4a42.89,42.89,0,0,0,7.63,15.28,21.44,21.44,0,0,0,14,8.12,26.53,26.53,0,0,0,9.19-.34q.39-.08.78-.12c.09,0,.18.08.49.23-1.57.62-3,1.21-4.4,1.75A75.23,75.23,0,0,1,178,151.61a39.35,39.35,0,0,1-14.71-.47,21.91,21.91,0,0,1-15.91-14,37.9,37.9,0,0,1-2.47-11.8,74.67,74.67,0,0,1,.8-16.83c.87-5.12,1.93-10.21,2.75-15.34.54-3.39.88-6.83,1.15-10.27a81.77,81.77,0,0,0,.26-8.43c-.21-7.88-1.11-15.66-3.79-23.14A38.16,38.16,0,0,0,138,37.51a1.9,1.9,0,0,1-.23-.39Z"/><path class="cls-2" d="M62.13,131.61c-.64-.32-1.15-.55-1.65-.81Q48.9,125,37.33,119.09c-1.09-.55-2.23-1-3.35-1.45-6-2.56-12.13-2.38-18.52-1.3l-.61.1a140.3,140.3,0,0,0-2,16.85c-.36-4.25,1-12,2.17-17.91l.58-.14c2.16-.57,4.18-1.14,6.24-1.59a25.86,25.86,0,0,1,12.6.48c9,2.51,17.94,5.15,26.92,7.67A2.13,2.13,0,0,1,63.2,124,17.76,17.76,0,0,1,62.13,131.61Z"/><path class="cls-1" d="M35.86,74.34c.34.46.7.91,1.16,1.52-.44.46-.85.91-1.3,1.35a88.53,88.53,0,0,0-9.28,10.27,59.67,59.67,0,0,0-9.65,20.13h0c-.2.7-.39,1.39-.57,2.1-.46,1.84-.84,3.72-1.27,5.66h.11c-1.2,5.89-2.53,13.66-2.17,17.91a14.35,14.35,0,0,1-.64-1.38A142.44,142.44,0,0,1,6.8,109.7a158.39,158.39,0,0,1-2.17-26,103.81,103.81,0,0,1,9.7-43.61A72.83,72.83,0,0,1,24.64,23.32c1.59-1.9,3.39-3.64,5.09-5.46a2.73,2.73,0,0,1,.3.21,6.13,6.13,0,0,1-.46.78,23.45,23.45,0,0,0-4.79,11.31c-1.08,7.07.51,13.71,3.35,20.12A73.62,73.62,0,0,0,39,67.26c.93,1.13,1.9,2.23,2.73,3.45-9-7.25-16.56-15.53-20.51-26.71.19,1,.32,2.12.54,3.16a55.27,55.27,0,0,0,7.93,18.48C31.63,68.61,33.81,71.44,35.86,74.34Z"/><path class="cls-1" d="M42.55,68.93C41.8,67,41,65,40.32,63a75.61,75.61,0,0,1-3.93-19.92,49,49,0,0,1,3-20.62c.54-1.38,1.22-2.7,1.73-4.16-.22.2-.43.42-.63.64a32.12,32.12,0,0,0-6.81,16.89c-.73,7,.55,13.74,2.82,20.32,1.17,3.4,2.64,6.7,4,10.14a1.68,1.68,0,0,1-.42-.27A62.94,62.94,0,0,1,28.54,45.65a36.51,36.51,0,0,1-1.92-11.4,28.61,28.61,0,0,1,7.11-19C39.9,8,47.88,3.76,57,1.52A56.3,56.3,0,0,1,70.29,0,62,62,0,0,1,91.92,4,64.89,64.89,0,0,1,113,16.19c1.31,1.16,2.52,2.43,3.76,3.67a2.14,2.14,0,0,1,.56,1.16c-.36-.17-.74-.3-1.08-.5a53.86,53.86,0,0,0-20.44-6.71,53.17,53.17,0,0,0-30.06,4.84A38.07,38.07,0,0,0,47.49,37.86,55.37,55.37,0,0,0,42.9,56.62a59.44,59.44,0,0,0,0,11v1.25Z"/><path class="cls-1" d="M120.39,23.24c.49.28,1,.54,1.47.84A46.69,46.69,0,0,1,137.68,41a65.41,65.41,0,0,1,7.62,22.31,93,93,0,0,1,1.15,18.56,158,158,0,0,1-3.18,24.91,82.69,82.69,0,0,0-1.18,9,60.74,60.74,0,0,0-.25,7.63,43.28,43.28,0,0,0,2.78,15.1,24.89,24.89,0,0,0,7.49,9.94,18.82,18.82,0,0,0,9.17,3.79c3.45.56,6.93.91,10.4,1.37a2.33,2.33,0,0,1,1.3.55c-1.08.13-2.16.32-3.24.38-6.59.31-13.16.15-19.6-1.53s-12.24-4.49-16.84-9.46a29.34,29.34,0,0,1-7.23-15A54.36,54.36,0,0,1,126,111a101.86,101.86,0,0,1,5.17-20.63c1.34-3.75,2.69-7.48,3.66-11.35a69.5,69.5,0,0,0,2.05-22.25c-1-13.07-6.11-24.16-16.18-32.77-.16-.14-.29-.3-.44-.45Z"/><path class="cls-1" d="M43.65,68.82c.07-2,.07-4,.24-6A70.76,70.76,0,0,1,46.4,48.6,46.57,46.57,0,0,1,57.61,28.85a44.59,44.59,0,0,1,21.19-12,41.46,41.46,0,0,1,13.73-1.08,56.42,56.42,0,0,1,13.57,2.52c11.94,4,20,12,24.62,23.67a52,52,0,0,1,3,11.84,8.34,8.34,0,0,1,0,1,11.62,11.62,0,0,1-.61-1.4,31.71,31.71,0,0,0-6.53-11.92,37.63,37.63,0,0,0-10.48-8.94,43.1,43.1,0,0,0-10.44-3.8,63.06,63.06,0,0,0-20.52-1.89c-6.4.46-12.6,1.87-18.15,5.3A42.16,42.16,0,0,0,54.53,44.29a68.4,68.4,0,0,0-10.3,23.64c-.1.32-.22.64-.35.95Z"/><path class="cls-2" d="M43.55,218.65c.57.66.92,1,1.24,1.43a71.57,71.57,0,0,0,18.35,15.85,29.19,29.19,0,0,0,9.52,3.92,22,22,0,0,0,13.84-1.52,58.54,58.54,0,0,0,15.16-9.85c2.25-2,4.31-4.24,6.44-6.4a5.2,5.2,0,0,0,.67-1.05l.4.33a4.76,4.76,0,0,1-.29.65c-5.47,8.14-12.23,14.93-20.94,19.61a21.57,21.57,0,0,1-11.46,2.78,26.3,26.3,0,0,1-11.2-3.34,59.07,59.07,0,0,1-16-12.45l-.59-.64c-.11.89-.21,1.59-.28,2.3-1.23,14.22-4.25,28-10.47,40.92A73.08,73.08,0,0,1,16,297.93l-.4.25h-.35c.35-.43.61-.78.91-1.1a155.56,155.56,0,0,0,11.35-13.74A73.62,73.62,0,0,0,38.38,259.9,169.83,169.83,0,0,0,43,239.61a76.19,76.19,0,0,0,1.05-15.38c-.07-1.42-.32-2.84-.48-4.26C43.58,219.66,43.58,219.36,43.55,218.65Z"/><path class="cls-1" d="M199,196.38l-.17-.33V196A2,2,0,0,0,199,196.38Z"/><path class="cls-1" d="M200.87,199.61c-7-14.24-18.48-21.42-32.42-28.19h0c-4.57-2.22-9.31-4.27-14.1-6.3l-4.07-2,.54.3a.48.48,0,0,1,.16.08c1.72.93,3.52,1.87,5.16,2.86l-3-1.64c11,6.19,31.17,20.33,34.53,33.83h0a.16.16,0,0,0,.06.12.16.16,0,0,1-.06-.08,16.43,16.43,0,0,1-2,13.39c-1.29,2.31-2.38,4.67-2,7.44,0,0-.26,32.33,101.14,3.14C278.72,224.4,217,233.65,200.87,199.61Zm-2-3.56V196c0,.15.11.29.17.43Z"/><path class="cls-1" d="M199,196.38l-.17-.33V196A2,2,0,0,0,199,196.38Z"/><path class="cls-1" d="M199,196.38l-.17-.33V196A2,2,0,0,0,199,196.38Z"/><path class="cls-1" d="M57.49,207.57c.45-.15.88-.3,1.32-.42a16.72,16.72,0,0,0,5.29-2.51,18.86,18.86,0,0,1,6.66-3.28,9.36,9.36,0,0,1,5.61.37,2,2,0,0,0,1.68.14c3.79-1.55,7.26-.62,10.58,1.44,1.39.87,2.77,1.78,4.23,2.52s2.83,1.17,4.36,1.79l-.51.65c-1.34,1.57-2.79,3.06-4,4.73A15.42,15.42,0,0,1,82,219.7a47.94,47.94,0,0,1-6.67.16,18.3,18.3,0,0,1-3.47-.33,15,15,0,0,1-9.11-5.68c-1-1.29-2-2.63-3-3.9C59,209.13,58.27,208.4,57.49,207.57Zm8.16-.42c1.9.55,3.62,1,5.3,1.56a21.22,21.22,0,0,0,13,0c1.41-.43,2.84-.83,4.26-1.24l1-.3c-3.48-1.67-6.77-2.16-10.18-.79a3.9,3.9,0,0,1-3.07,0c-3.48-1.38-6.84-.88-10.31.77ZM92,211l-.15-.16c-.62.36-1.25.7-1.86,1.07A23,23,0,0,1,80.21,215c-1.25.13-1.86.48-1.78,1.12s.68.93,1.81.92c4.53,0,8.13-2.1,11.24-5.21A3.34,3.34,0,0,0,92,211Zm-19.55,3.81-5.45-2a7.86,7.86,0,0,0,5.32,3.44Zm-4.12-10.9a13.2,13.2,0,0,1,7.51-.65c-1.95-1.73-5.19-1.45-7.51.61ZM79,203.26a12.91,12.91,0,0,1,7.76.75c-2.73-2.22-5.57-2.49-7.76-.79Zm-4.49,11.47a2.21,2.21,0,0,0-.77.07c-.34.2-.82.45-.87.75a1.1,1.1,0,0,0,.6.92,3.37,3.37,0,0,0,1.81.08.82.82,0,0,0,.51-1,.84.84,0,0,0-.39-.46,3.26,3.26,0,0,0-.89-.36Z"/><path class="cls-2" d="M29.71,142.9c-1-2.55-1.84-4.87-2.71-7.19l.27-.19c.24.21.49.41.72.63,1.72,1.66,3.34,3.43,5.15,5a23.07,23.07,0,0,0,17.45,5.42c.84-.07,1.66-.31,2.5-.45a13.4,13.4,0,0,1,9,1.82c.07,0,.08.17.15.33l-2.92.23a12.59,12.59,0,0,0-5.79,2A21.49,21.49,0,0,1,28,149a3.25,3.25,0,0,0-2.29-.8,10.29,10.29,0,0,1-7.57-3C22.82,147,26.63,146.46,29.71,142.9Z"/><path class="cls-3" d="M9.34,147.67a4.82,4.82,0,0,1-2.25-4.45,11.87,11.87,0,0,0-1-5.26,13.31,13.31,0,0,0-1.61-2.52A19.75,19.75,0,0,1,.56,118.25a1.75,1.75,0,0,1,.61-1v1.6a22.31,22.31,0,0,0,5.25,16A8.82,8.82,0,0,1,8.51,143a5.05,5.05,0,0,0,.67,4.24A2.23,2.23,0,0,1,9.34,147.67Z"/><path class="cls-3" d="M66.4,184.31a8.28,8.28,0,0,1,6.17,3.8A6.06,6.06,0,0,1,66.4,184.31Z"/><path class="cls-3" d="M82.43,187.66a8.48,8.48,0,0,1,5.5-3.31l.18.29L82.7,188Z"/><path class="cls-1" d="M199,196.38l-.17-.33V196A2,2,0,0,0,199,196.38Z"/><path class="cls-1" d="M199,196.38l-.17-.33V196A2,2,0,0,0,199,196.38Z"/><path class="cls-1" d="M225.5,202a49.27,49.27,0,0,1-15.2-6.23A78.59,78.59,0,0,0,225.5,202Z"/><path class="cls-1" d="M300,190.66c-2.38,1-5.1,2-8.11,3.11l7.73-3Z"/><path class="cls-1" d="M443.27,203c-51.38-14-89.52-6-122.42,7.8l-.1,0c-90,29-114.49-6.63-119-15.48h0a17.85,17.85,0,0,1-.83-1.84h0c25.71,17,48.2,16.39,70.61,10.18C319.19,190.48,366.44,151.79,443.27,203Z"/><path class="cls-1" d="M443.27,203c-51.38-14-89.52-6-122.42,7.8l-.1,0c-90,29-114.49-6.63-119-15.48h0a15.21,15.21,0,0,0-.83-1.84h0c25.71,17,48.2,16.39,70.61,10.18C319.19,190.48,366.44,151.79,443.27,203Z"/><path class="cls-1" d="M303.43,218.79c-11.82,5.81-23.09,12.05-34.26,17.83-36.29,18.81-63.14,27-83,28.8h-.07c-11.14,1.68-18.28.37-22.84-2a14.84,14.84,0,0,1-4.56-4.33c-8.42-12.77,13.82-33,20.65-38.78l.13-.11c.34-.26.68-.54,1-.84a2.43,2.43,0,0,0,.25-.2L181,219l.11-.09.14-.11h0S173,261.59,303.43,218.79Z"/><path class="cls-2" d="M127.23,196.28s-25.71,42.43-48.81,44l.53,4.06S97.22,247.43,127.23,196.28Z"/><path class="cls-1" d="M201.7,195.34a17.85,17.85,0,0,1-.83-1.84A15.21,15.21,0,0,1,201.7,195.34Z"/><path class="cls-2" d="M187.75,198.73a.16.16,0,0,1-.06-.08h0a.11.11,0,0,1,0,.08Z"/><path class="cls-1" d="M309.94,186.23c-.33.17-3.95,2-9.72,4.33l-.25.1c-2.38,1-5.1,2-8.11,3.11l-1.14.42c-17.4,6.19-43.53,12.92-65.22,7.81a49.27,49.27,0,0,1-15.2-6.23.17.17,0,0,1-.1-.06,41.74,41.74,0,0,1-4.86-3.59c-21.25-18.18-47-29.4-57.09-33.39-.85-.31-1.57-.6-2.17-.83a13.07,13.07,0,0,1-1.56-.85h.56a25.73,25.73,0,0,1-5.42-3.9c-.24-.25-.46-.48-.63-.68a2.37,2.37,0,0,1-.17-.2c-.3-.33-.49-.57-.55-.64h0A56.9,56.9,0,0,0,159.23,157h.43a6.64,6.64,0,0,1,1.09.06h.9a4.35,4.35,0,0,1,1,.07c18.38,1.22,46.45,6.41,66.32,25.29C249.59,202,308.45,186.62,309.94,186.23Z"/><path class="cls-1" d="M148.25,158.73h-.12a13.4,13.4,0,0,1-2-.8,13.07,13.07,0,0,1-1.56-.85,24.15,24.15,0,0,1-4.86-3.92c-.24-.25-.46-.48-.63-.68a2.37,2.37,0,0,1-.17-.2c-.3-.33-.49-.57-.55-.64l4.89,3.82,8.29,2.37S153.78,160.37,148.25,158.73Z"/><path class="cls-1" d="M138.31,151.61s3.41,6.79,22.43,12.53,2.44-3.46,2.44-3.46l-20.28-6Z"/></g></g></svg>