<svg xmlns="http://www.w3.org/2000/svg" viewBox="0 0 782.23 294.97"><defs><style>.cls-1,.cls-2{fill:#fff;}.cls-2{font-size:37.57px;font-family:MyriadPro-Regular, Myriad Pro;}</style></defs><g id="Capa_2" data-name="Capa 2"><g id="Capa_1-2" data-name="Capa 1"><path class="cls-1" d="M314.36,156.23a1,1,0,0,1,.21.41,1.07,1.07,0,0,1,.07.35q0,.75-1.26.75a38.46,38.46,0,0,1-4.17-.17c-2.31-.16-3.91-.25-4.8-.25q-2.24,0-6.72.35a13.87,13.87,0,0,1-2.38.07c-.8,0-1.19-.28-1.19-.84a.77.77,0,0,1,.2-.55,38.44,38.44,0,0,1,3-2.45c1.44-1.11,2.16-2.12,2.16-3,.09-.51.2-1.24.32-2.2a29.19,29.19,0,0,0,.17-3.32,49.19,49.19,0,0,0-2.37-15.08,55.34,55.34,0,0,0-11.52-19.76A51.11,51.11,0,0,0,275,101.22a66.72,66.72,0,0,0-14-6.46,88,88,0,0,0-6.77,15.43,66.55,66.55,0,0,0-3.7,20.88q0,10.62.49,15.22a46.41,46.41,0,0,0,3.7,14.39,18.73,18.73,0,0,0,5.44,6.7,29.5,29.5,0,0,0,5,3.07c.56.28.84.61.84,1s-.24.56-.7.7c-1.35.42-2.64.86-3.88,1.32s-2.65,1.1-4.26,1.89a29,29,0,0,0-4.15,2.44,26.52,26.52,0,0,0-2.23,1.75,1.73,1.73,0,0,1-.91.42c-.42,0-.63-.38-.63-1.12,0-1.44-.07-3.1-.21-5s-.49-4.82-1-8.87q-1.26-7.19-2.3-14.24a90.27,90.27,0,0,1-1-13.27,98.2,98.2,0,0,1,3.28-25.2,77.61,77.61,0,0,1,7.47-18.92c-1-.19-2.1-.35-3.24-.49a32.82,32.82,0,0,0-4-.21,38.43,38.43,0,0,0-8.27.94,21.68,21.68,0,0,0-7.51,3.11q-4.26,2.86-4.26,6.7t3.21,4.61a3.58,3.58,0,0,0,.84.07,4.56,4.56,0,0,0,2.55-.7,2.76,2.76,0,0,0,1.26-2.09c.11-.93.36-1.4.73-1.4s.5.26.66.77a6.29,6.29,0,0,1,.25,1.95,7.48,7.48,0,0,1-.14,1.36c-.09.49-.19,1-.28,1.44a9.35,9.35,0,0,1-3.07,4.29,8.43,8.43,0,0,1-5.38,1.71,4.32,4.32,0,0,1-.77.07,8.19,8.19,0,0,1-6.25-2.76,10,10,0,0,1-2.54-7.08q0-7.2,7.82-11.94a34.67,34.67,0,0,1,11.59-4.4,46.23,46.23,0,0,1,4.95-.63c1.82-.14,3.68-.21,5.59-.21a43.54,43.54,0,0,1,8.87.7,79.24,79.24,0,0,1,22.44-20.74A59.22,59.22,0,0,1,311.29,60q2.31,0,2.31.63c0,.19-.17.44-.5.77a13,13,0,0,0-3,4.68q-.86,2.94-.85,10.69V151c0,.88.7,1.86,2.12,2.93C313.28,155.32,314.27,156.1,314.36,156.23ZM299.49,121V65.86a51.64,51.64,0,0,0-20,8.79,61.78,61.78,0,0,0-8.8,7.2,65.56,65.56,0,0,0-7.12,9,68.1,68.1,0,0,1,11,4.75,64.46,64.46,0,0,1,9,6.15,57.45,57.45,0,0,1,8.8,8.58A79.31,79.31,0,0,1,299.49,121Z"/><path class="cls-1" d="M347.18,155.54a2.24,2.24,0,0,1,.84,1.38c0,.55-.51.82-1.53.82a20.66,20.66,0,0,1-2.1-.08c-2.89-.27-4.79-.41-5.72-.41a40.54,40.54,0,0,0-4.09.17c-1.05.11-2.25.21-3.59.32-1.12,0-1.68-.28-1.68-.85a2.5,2.5,0,0,1,.7-1.28c1.16-.94,2-1.67,2.58-2.2a3.76,3.76,0,0,0,1.61-2.58V76.19a29.62,29.62,0,0,0-.14-3.21c-.1-.79-.66-1.12-1.68-1a8.65,8.65,0,0,0-2.58,1.36,13.19,13.19,0,0,1-2.45,1.43c-.69.24-1,0-1-.77a2,2,0,0,1,.42-1,44.15,44.15,0,0,1,3.84-3.92c1.81-1.78,3.25-3.2,4.33-4.28q2.37-2.39,5.16-5.68a23.28,23.28,0,0,1,2.52-2.73.93.93,0,0,1,.41-.21,1.43,1.43,0,0,1,.35-.07c.42,0,.63.37.63,1.12q-.35,2.23-.59,5.56c-.16,2.21-.25,4.56-.25,7V151a3.58,3.58,0,0,0,1.47,2.44Q345.86,154.52,347.18,155.54Z"/><path class="cls-1" d="M426.49,120q0,16.62-8.86,28Q408.35,160,393.68,160a23.73,23.73,0,0,1-10.44-2.24,20.43,20.43,0,0,1-7.72-6.42,16.71,16.71,0,0,1-2.3,4.89,14,14,0,0,1-2.72,3.07,1.75,1.75,0,0,1-1,.42c-.09,0-.33-.19-.7-.56a15.44,15.44,0,0,1-1.26-1.47c-.65-.83-1.11-1.42-1.39-1.74l-3.35-3.49a.88.88,0,0,1,.28-1.54,7.52,7.52,0,0,0,3.21-2.3q1.95-2.65,1.95-8V76.19a27.24,27.24,0,0,0-.14-3.21c-.09-.79-.65-1.12-1.67-1a7.68,7.68,0,0,0-2.69,1.36,15.09,15.09,0,0,1-2.34,1.43.89.89,0,0,1-.84,0,.55.55,0,0,1-.35-.56,2.07,2.07,0,0,1,.53-1.22,38.18,38.18,0,0,1,2.82-2.82q3.71-3.57,5.38-5.31,2.58-2.58,5.31-5.73a24.35,24.35,0,0,1,2.44-2.65,1.4,1.4,0,0,1,.77-.28c.37,0,.56.37.56,1.12-.33,3.07-.51,4.82-.56,5.23-.19,2.57-.28,5-.28,7.34v33.65a35.4,35.4,0,0,1,8.8-9.77,22.35,22.35,0,0,1,13.68-5q12.09,0,19.45,8.55T426.49,120Zm-9.21,2.09q0-10.74-5.24-18.15-5.66-8-14.87-8a18.36,18.36,0,0,0-14.35,6.32q-5.62,6.31-5.62,15.88V140q0,7.68,4.47,11.94,4.18,4,11.17,4,11.1,0,18.08-10.83A41.36,41.36,0,0,0,417.28,122.13Z"/><path class="cls-1" d="M500.92,155.93a2.61,2.61,0,0,1,.49,1.11c0,.47-.35.7-1.05.7-.19,0-.95-.07-2.3-.21a37.3,37.3,0,0,0-3.84-.21,20.92,20.92,0,0,0-2.8.21c-1,.14-1.63.21-1.81.21-1.07,0-1.61-.25-1.61-.76a1.51,1.51,0,0,1,.35-.77,8.83,8.83,0,0,0,1-1.92,6.32,6.32,0,0,0,.39-2.27l-.42-6.71a25.36,25.36,0,0,1-9,10A25.81,25.81,0,0,1,465.73,160a26.91,26.91,0,0,1-18.16-6.36,21.82,21.82,0,0,1-7.81-17.38,22.74,22.74,0,0,1,8.51-18,29.14,29.14,0,0,1,19.55-7,26.5,26.5,0,0,1,10.58,2.17,20.72,20.72,0,0,1,7.72,5.23q0-3.08-3.56-9.14a42.79,42.79,0,0,0-9.85-11.8q-7.12-5.86-14.66-5.87a15.59,15.59,0,0,0-8,2c-2.56,1.49-3.84,3.53-3.84,6.14a5.8,5.8,0,0,0,1.15,3.7,3.82,3.82,0,0,0,3.18,1.47,3.64,3.64,0,0,0,2.44-.91A2.79,2.79,0,0,0,454,102a6.38,6.38,0,0,0-.25-1.78c-.16-.58-.31-1.1-.45-1.57s-.12-.53.07-.63a3.42,3.42,0,0,1,.91-.07,5.88,5.88,0,0,1,3.56,1.82,5,5,0,0,1,1.61,3.63,6.88,6.88,0,0,1-2.62,5.48,9.11,9.11,0,0,1-6,2.2,9,9,0,0,1-6.71-2.72,10.06,10.06,0,0,1-2.65-7.33q0-6,6.35-9.36a28.76,28.76,0,0,1,13.48-2.93,27.72,27.72,0,0,1,15.29,4.92,37.06,37.06,0,0,1,12.22,13.37A55.57,55.57,0,0,1,494,121.78a154.47,154.47,0,0,1,2.37,15.33q1.11,9.73,1.89,13.37a11,11,0,0,0,1.32,3.49Zm-11.87-22.35a15.36,15.36,0,0,0-5.83-12.6q-5.84-4.71-15.26-4.71a19.61,19.61,0,0,0-13.4,5,15.87,15.87,0,0,0-5.73,12.42,17.41,17.41,0,0,0,5.83,13.3,19.69,19.69,0,0,0,13.86,5.42q9.28,0,14.91-5.28A17.8,17.8,0,0,0,489.05,133.58Z"/><path class="cls-1" d="M531.57,155.54a2.24,2.24,0,0,1,.84,1.38c0,.55-.52.82-1.54.82a20.66,20.66,0,0,1-2.1-.08q-4.32-.41-5.72-.41a40.54,40.54,0,0,0-4.09.17c-1,.11-2.24.21-3.59.32-1.12,0-1.68-.28-1.68-.85a2.5,2.5,0,0,1,.7-1.28c1.16-.94,2-1.67,2.58-2.2a3.76,3.76,0,0,0,1.61-2.58V76.19a29.62,29.62,0,0,0-.14-3.21c-.09-.79-.65-1.12-1.68-1a8.65,8.65,0,0,0-2.58,1.36,13.23,13.23,0,0,1-2.44,1.43c-.7.24-1.05,0-1.05-.77a2,2,0,0,1,.42-1A45.85,45.85,0,0,1,515,69.12c1.81-1.78,3.26-3.2,4.33-4.28q2.37-2.39,5.17-5.68A24.59,24.59,0,0,1,527,56.43a.92.92,0,0,1,.42-.21,1.35,1.35,0,0,1,.35-.07c.42,0,.63.37.63,1.12q-.36,2.23-.6,5.56c-.16,2.21-.24,4.56-.24,7V151a3.6,3.6,0,0,0,1.46,2.44C529.82,154.15,530.68,154.86,531.57,155.54Z"/><path class="cls-1" d="M616.48,124.79a33.6,33.6,0,0,1-10.75,25.06,35.56,35.56,0,0,1-50-.31,34.89,34.89,0,0,1-10.3-25.45,33.82,33.82,0,0,1,10.51-25,34.63,34.63,0,0,1,25.24-10.37A33.64,33.64,0,0,1,606.22,99.3,35.22,35.22,0,0,1,616.48,124.79Zm-6,3.07q0-11.52-10.61-21.93-11-10.74-24-10.75a23.84,23.84,0,0,0-17.32,7,22.33,22.33,0,0,0-7.12,16.48q0,13.76,10.82,24.44,10.62,10.47,23.39,10.47A24.27,24.27,0,0,0,602.8,147Q610.48,139.8,610.48,127.86Z"/><path class="cls-1" d="M698.64,124.79a33.6,33.6,0,0,1-10.75,25.06,35.56,35.56,0,0,1-50-.31,34.85,34.85,0,0,1-10.3-25.45,33.78,33.78,0,0,1,10.51-25,34.62,34.62,0,0,1,25.24-10.37A33.66,33.66,0,0,1,688.38,99.3,35.22,35.22,0,0,1,698.64,124.79Zm-6,3.07q0-11.52-10.62-21.93-11-10.74-24-10.75a23.83,23.83,0,0,0-17.31,7,22.33,22.33,0,0,0-7.12,16.48q0,13.76,10.82,24.44,10.61,10.47,23.39,10.47A24.29,24.29,0,0,0,685,147Q692.64,139.8,692.64,127.86Z"/><path class="cls-1" d="M770.63,154.18a5,5,0,0,1-1.82,3.84,6.12,6.12,0,0,1-4.18,1.61q-5,0-8.8-4.68-2.24-2.79-5.94-10.47t-6.35-10.83a47.31,47.31,0,0,0-8.38-8.1,18.21,18.21,0,0,0-10.47-3.35V151a3.58,3.58,0,0,0,1.46,2.44c.84.75,1.7,1.47,2.59,2.17a2.25,2.25,0,0,1,.83,1.4c0,.55-.51.83-1.53.83-.84,0-1.54,0-2.1-.07q-4.32-.42-5.72-.42c-1.68,0-3,.05-4.09.14s-2.24.19-3.59.28c-1.12,0-1.68-.27-1.68-.82a2.35,2.35,0,0,1,.7-1.24q1.74-1.37,2.58-2.13a3.76,3.76,0,0,0,1.61-2.58V76.19a29.62,29.62,0,0,0-.14-3.21c-.09-.79-.65-1.12-1.68-1a8.65,8.65,0,0,0-2.58,1.36,13.23,13.23,0,0,1-2.44,1.43c-.7.24-1,0-1-.76a2,2,0,0,1,.42-1,46.54,46.54,0,0,1,3.84-3.91c1.81-1.77,3.26-3.19,4.33-4.26q2.37-2.37,5.16-5.66a25.85,25.85,0,0,1,2.52-2.72.92.92,0,0,1,.42-.21,1.35,1.35,0,0,1,.35-.07c.42,0,.62.37.62,1.12q-.35,2.23-.59,5.56t-.24,7v47.4a85.28,85.28,0,0,0,9-4,71.32,71.32,0,0,0,11.11-6.78,50.63,50.63,0,0,0,6.77-6.08,11.73,11.73,0,0,0,2.86-7.6,5,5,0,0,0-1.19-3.35,3.92,3.92,0,0,0-3.14-1.39,3.63,3.63,0,0,0-2.37.8,2.87,2.87,0,0,0-1.12,1.85q0,1.89-.63,1.89a1.58,1.58,0,0,1-.77-.35,5.56,5.56,0,0,1-2-2,5.68,5.68,0,0,1-.84-3A7.61,7.61,0,0,1,745,81.43a8.82,8.82,0,0,1,6.21-2.38,8.7,8.7,0,0,1,6.88,3.21,11.23,11.23,0,0,1,2.75,7.54,18.4,18.4,0,0,1-3.28,10.46,32.19,32.19,0,0,1-7.89,7.83,94.83,94.83,0,0,1-8.45,5.38,69.32,69.32,0,0,1-10.54,5.24,52.59,52.59,0,0,1,10.2,3q7.26,3,11,7.62a28.1,28.1,0,0,1,4.82,8.44,39.16,39.16,0,0,1,1.88,8.94q.55,5.23.77,5.94.84,3,2.86,2.65c.33-.05.51-.59.56-1.64A10.36,10.36,0,0,1,763,152c.42-1.58,1.58-2.38,3.49-2.38a3.8,3.8,0,0,1,3.11,1.33A5,5,0,0,1,770.63,154.18Z"/><path class="cls-1" d="M467.82,196.74V180.55h6.66a9,9,0,0,1,3.69.69,5.35,5.35,0,0,1,2.37,2,6.11,6.11,0,0,1,0,6.15,5.41,5.41,0,0,1-2.37,2,9,9,0,0,1-3.69.69h-5l1.34-1.41v6.09Zm3-5.76-1.34-1.46h4.86a4.59,4.59,0,0,0,3-.84,3.33,3.33,0,0,0,0-4.76,4.65,4.65,0,0,0-3-.83h-4.86l1.34-1.48Z"/><path class="cls-1" d="M499,194.22h9.14v2.52H495.94V180.55h11.82v2.52H499Zm-.23-6.94h8v2.47h-8Z"/><path class="cls-1" d="M523,196.74V180.55h3v13.64h8.47v2.55Z"/><path class="cls-1" d="M555.16,197a7.09,7.09,0,0,1-5.22-1.88,7.31,7.31,0,0,1-1.88-5.41v-9.13h3v9a5.15,5.15,0,0,0,1.08,3.63,4.64,4.64,0,0,0,6.07,0,5.2,5.2,0,0,0,1.07-3.63v-9h3v9.13a7.27,7.27,0,0,1-1.89,5.41A7,7,0,0,1,555.16,197Z"/><path class="cls-1" d="M585.6,197a9.38,9.38,0,0,1-3.49-.63,8.29,8.29,0,0,1-2.78-1.74A7.83,7.83,0,0,1,577.5,192a8.8,8.8,0,0,1,0-6.64,7.69,7.69,0,0,1,1.83-2.63,8.31,8.31,0,0,1,2.78-1.75,9.9,9.9,0,0,1,6.95,0,8.54,8.54,0,0,1,2.76,1.73,7.64,7.64,0,0,1,1.83,2.64,8.85,8.85,0,0,1,0,6.66,7.64,7.64,0,0,1-1.83,2.64,8.54,8.54,0,0,1-2.76,1.73A9.3,9.3,0,0,1,585.6,197Zm0-2.64a6,6,0,0,0,2.27-.42,5.05,5.05,0,0,0,1.81-1.19,5.75,5.75,0,0,0,1.19-1.81,6.23,6.23,0,0,0,0-4.55,5.94,5.94,0,0,0-1.19-1.8,5.05,5.05,0,0,0-1.81-1.19,6.32,6.32,0,0,0-4.53,0,5.05,5.05,0,0,0-1.81,1.19,5.94,5.94,0,0,0-1.19,1.8,6.23,6.23,0,0,0,0,4.55,5.75,5.75,0,0,0,1.19,1.81,5.05,5.05,0,0,0,1.81,1.19A6,6,0,0,0,585.57,194.33Zm5.3,5.95a6.9,6.9,0,0,1-1.65-.2,5.87,5.87,0,0,1-1.57-.65,9.8,9.8,0,0,1-1.61-1.18,23,23,0,0,1-1.83-1.79l3.19-.83a9.09,9.09,0,0,0,1.24,1.37,4,4,0,0,0,1.14.75,2.9,2.9,0,0,0,1.16.24,3.66,3.66,0,0,0,2.78-1.3l1.38,1.67A5.26,5.26,0,0,1,590.87,200.28Z"/><path class="cls-1" d="M616,197a7.07,7.07,0,0,1-5.21-1.88,7.27,7.27,0,0,1-1.89-5.41v-9.13h3v9A5.15,5.15,0,0,0,613,193.2a4.64,4.64,0,0,0,6.07,0,5.2,5.2,0,0,0,1.06-3.63v-9h3v9.13a7.31,7.31,0,0,1-1.88,5.41A7.06,7.06,0,0,1,616,197Z"/><path class="cls-1" d="M641.87,194.22H651v2.52H638.87V180.55h11.82v2.52h-8.82Zm-.23-6.94h8.05v2.47h-8.05Z"/><path class="cls-1" d="M665.93,196.74V180.55h6.66a8.94,8.94,0,0,1,3.69.69,5.24,5.24,0,0,1,2.37,2,6,6,0,0,1,0,6.14,5.26,5.26,0,0,1-2.37,2,9.11,9.11,0,0,1-3.69.68h-5l1.34-1.37v6.09Zm3-5.76-1.34-1.44h4.85a4.53,4.53,0,0,0,3-.85,3,3,0,0,0,1-2.38,2.93,2.93,0,0,0-1-2.39,4.65,4.65,0,0,0-3-.83H667.6l1.34-1.48Zm7.58,5.76-4.09-5.88h3.22l4.11,5.88Z"/><path class="cls-1" d="M694,179.23l3.13-3.17h3.4l-4,3.17Zm.44,17.51V180.55h3v16.19Z"/><path class="cls-1" d="M711.06,196.74l7.28-16.19h3l7.31,16.19h-3.14l-6.27-14.6h1.2l-6.24,14.6Zm3.35-3.75.81-2.36H724l.81,2.36Z"/><text class="cls-2" transform="translate(766.48 84.14)">®</text><path class="cls-1" d="M135.31,200.18l1.73-2c.2-.24.39-.5.57-.76,2.27-3.3,1.55-6-2.09-7.63a18.36,18.36,0,0,0-7-1.57c-6.64-.23-13.19-1-19.46-3.38a28.62,28.62,0,0,1-13.46-9.75,27.35,27.35,0,0,1-5-12.77c-1.18-8.73.37-17.15,3-25.44a87.41,87.41,0,0,1,7-16.5,8.32,8.32,0,0,0,.41-.85s0-.09-.08-.24a3.35,3.35,0,0,0-.38.43,101.57,101.57,0,0,0-11.63,22.81,48.89,48.89,0,0,0-3,19.17,28.17,28.17,0,0,0,7.91,18.4,75.22,75.22,0,0,0,6,5.11,3.52,3.52,0,0,1,1,1,15.66,15.66,0,0,1-1.51-.66A41.94,41.94,0,0,1,78.06,160c-2.31-7.31-2.56-14.82-2.1-22.44.58-9.69,3.92-18.51,7.91-27.18,3-6.55,6.42-12.87,9.88-19.19A49.75,49.75,0,0,0,99.13,75a28.15,28.15,0,0,0,0-9.56A15.11,15.11,0,0,0,90.58,54c-3.7-1.83-7.68-2.38-12.11-2.67,1.78.59,3.24,1,4.63,1.54,6.78,2.74,10.43,7.8,11.11,15.09.5,5.28-.57,10.34-2.07,15.34a79.56,79.56,0,0,1-5,12.22,2.4,2.4,0,0,1-.85,1c.15-.47.29-.94.47-1.4a46.26,46.26,0,0,0,3.11-12.17c.52-5.22.34-10.4-2.2-15.21A16.3,16.3,0,0,0,75.5,58.94,33.25,33.25,0,0,0,61,59.32,26.54,26.54,0,0,0,46.4,69a2.36,2.36,0,0,1-1,.85c.14-.9.24-1.8.43-2.69A55.66,55.66,0,0,1,56.8,43,39.52,39.52,0,0,1,81.39,28.59,63.66,63.66,0,0,1,94.9,28a8.47,8.47,0,0,1,2.95.67c-1.23,0-2.46,0-3.69,0A45.38,45.38,0,0,0,76.9,32.48,25.39,25.39,0,0,0,67,40.17l1.33-.93A47,47,0,0,1,89.43,31,38.67,38.67,0,0,1,113.25,35a26.38,26.38,0,0,1,14.38,20.26,47.4,47.4,0,0,1-1.15,18.41,107.47,107.47,0,0,1-7.94,21.7c-1.92,4-3.91,8-5.63,12.13a67.19,67.19,0,0,0-4.81,18.86,56.09,56.09,0,0,0,4.9,29.93A67.33,67.33,0,0,0,135.47,183a34.12,34.12,0,0,1,4.26,3.71,11.08,11.08,0,0,1,1.85,2.72,6,6,0,0,1-.6,6.67A11.86,11.86,0,0,1,135.31,200.18Z"/><path class="cls-1" d="M176.15,214.55c-.28.25-.45.38-.45.38-1.07.89-2.29,1.91-3.59,3.06l0,0c-2.17,1.9-4.57,4.13-7,6.57-11.32,11.5-22.43,27.61-6.75,36a39.31,39.31,0,0,1-18.8-11.77A41.56,41.56,0,0,1,132.79,238a2.29,2.29,0,0,1,.27-.27c-.25-.64-.49-1.28-.71-1.94a23.1,23.1,0,0,1-.7-2.87c-1.49-8,1.12-17.67,11.78-28.78l.61-.62a15.54,15.54,0,0,0,2.07-2.89,11.81,11.81,0,0,0,1-9.14.38.38,0,0,1,0-.1,24.61,24.61,0,0,0-5.12-9,49.49,49.49,0,0,0-6.34-6.11c-9.56-8.06-16.85-17.7-20.51-29.81a51.83,51.83,0,0,1-2.2-13.32c-.48-13.49,3.32-25.8,10.06-37.32.16-.25.35-.47.52-.71l.2.1c-.14.37-.25.75-.41,1.12a61.94,61.94,0,0,0-4.14,16.1,46.77,46.77,0,0,0,6.52,30.22,59.28,59.28,0,0,0,21.38,20.74l2.76,1.63c3.18,1.89,6.32,3.84,9.36,5.92.18.11.36.22.53.34a80.72,80.72,0,0,1,13,10.24l.28.27a41,41,0,0,1,6.1,7.6C187.47,203.17,178.34,212.57,176.15,214.55Z"/><path class="cls-1" d="M152.65,163.34l.09.06s-.06,0-.09,0Z"/><path class="cls-1" d="M136.52,36.4c1.59,1,3.25,1.91,4.75,3A41.3,41.3,0,0,1,152.83,53a64.89,64.89,0,0,1,6.9,20,104.59,104.59,0,0,1,1.59,19.75A96.36,96.36,0,0,0,165.1,121a42.25,42.25,0,0,0,7.55,15.12,21.23,21.23,0,0,0,13.82,8,26.53,26.53,0,0,0,9.1-.34,6.5,6.5,0,0,1,.77-.12c.08,0,.18.08.48.23-1.55.61-2.94,1.2-4.35,1.73A74.54,74.54,0,0,1,176.06,150a38.72,38.72,0,0,1-14.55-.47c-7.68-1.88-12.86-6.57-15.74-13.88A37.76,37.76,0,0,1,143.33,124a73.69,73.69,0,0,1,.79-16.65c.86-5.06,1.91-10.1,2.71-15.17.54-3.36.88-6.76,1.14-10.16a80,80,0,0,0,.26-8.34c-.21-7.8-1.1-15.5-3.74-22.9a38,38,0,0,0-8-13.62,1.54,1.54,0,0,1-.23-.39Z"/><path class="cls-1" d="M61.42,130.19l-1.64-.81c-7.63-3.85-15.25-7.73-22.89-11.57-1.08-.55-2.21-1-3.32-1.44-5.91-2.54-12-2.35-18.32-1.29l-.6.1a140.14,140.14,0,0,0-2,16.67c-.36-4.2,1-11.89,2.15-17.72l.57-.14c2.14-.56,4.14-1.12,6.17-1.56a25.44,25.44,0,0,1,12.47.47c8.9,2.48,17.75,5.09,26.63,7.59a2.11,2.11,0,0,1,1.79,2.14A17.56,17.56,0,0,1,61.42,130.19Z"/><path class="cls-1" d="M35.44,73.54c.33.45.69.9,1.15,1.5-.45.46-.85.91-1.3,1.34a88.36,88.36,0,0,0-9.18,10.15,59.41,59.41,0,0,0-9.54,19.92v0c-.2.69-.39,1.38-.56,2.08-.46,1.82-.83,3.67-1.26,5.59l.11,0c-1.19,5.83-2.51,13.52-2.15,17.72a11.25,11.25,0,0,1-.63-1.36,140.7,140.7,0,0,1-5.38-22A156,156,0,0,1,4.54,82.8a103,103,0,0,1,9.59-43.14,72.66,72.66,0,0,1,10.2-16.59c1.58-1.88,3.36-3.61,5-5.4l.3.2a6.66,6.66,0,0,1-.46.78,23.18,23.18,0,0,0-4.73,11.19c-1.08,7,.5,13.55,3.31,19.9A72.63,72.63,0,0,0,38.55,66.53c.92,1.12,1.88,2.21,2.7,3.42C32.4,62.78,24.86,54.58,21,43.52c.19,1,.32,2.1.53,3.13a54.79,54.79,0,0,0,7.85,18.28C31.25,67.87,33.4,70.67,35.44,73.54Z"/><path class="cls-1" d="M42.05,68.19c-.74-2-1.54-3.87-2.21-5.84A74.34,74.34,0,0,1,36,42.65a48.33,48.33,0,0,1,2.94-20.4c.53-1.37,1.2-2.68,1.71-4.12a6.34,6.34,0,0,0-.63.64,31.79,31.79,0,0,0-6.73,16.7c-.73,7,.54,13.6,2.79,20.1,1.16,3.37,2.61,6.63,4,10a1.45,1.45,0,0,1-.42-.27,62,62,0,0,1-11.4-20.18,36.32,36.32,0,0,1-1.9-11.28,28.34,28.34,0,0,1,7-18.76c6.1-7.22,14-11.4,23.05-13.62A55.24,55.24,0,0,1,69.49,0a61.2,61.2,0,0,1,21.4,4,64,64,0,0,1,20.88,12c1.3,1.15,2.5,2.41,3.72,3.64a2,2,0,0,1,.55,1.14c-.36-.16-.73-.3-1.07-.49A54.4,54.4,0,0,0,65,18.45a37.61,37.61,0,0,0-18.09,19A54.73,54.73,0,0,0,42.4,56a58.69,58.69,0,0,0,0,10.85c0,.41,0,.83,0,1.24Z"/><path class="cls-1" d="M119.05,23c.48.28,1,.53,1.45.83a46.23,46.23,0,0,1,15.66,16.74,64.77,64.77,0,0,1,7.53,22.08A92.49,92.49,0,0,1,144.83,81a156,156,0,0,1-3.15,24.63,85.26,85.26,0,0,0-1.17,8.88,61.44,61.44,0,0,0-.24,7.55A42.59,42.59,0,0,0,143,137a24.75,24.75,0,0,0,7.41,9.84,18.68,18.68,0,0,0,9.07,3.75c3.41.55,6.86.9,10.29,1.35a2.3,2.3,0,0,1,1.28.55c-1.07.12-2.13.32-3.2.37-6.53.31-13,.15-19.39-1.51s-12.11-4.44-16.65-9.35a29.1,29.1,0,0,1-7.16-14.83,54,54,0,0,1-.11-17.4,101.79,101.79,0,0,1,5.12-20.42c1.32-3.71,2.66-7.39,3.62-11.22a69,69,0,0,0,2-22c-1-12.92-6-23.89-16-32.41a6,6,0,0,1-.42-.45Z"/><path class="cls-1" d="M43.14,68.08c.07-2,.07-4,.23-5.93a70.7,70.7,0,0,1,2.49-14.07A46.17,46.17,0,0,1,57,28.54a44.13,44.13,0,0,1,21-11.91,41.08,41.08,0,0,1,13.58-1.07,55.48,55.48,0,0,1,13.42,2.49c11.81,4,19.81,11.9,24.36,23.41a51,51,0,0,1,2.95,11.72,9.21,9.21,0,0,1,0,1,11.88,11.88,0,0,1-.6-1.39A31.45,31.45,0,0,0,125.17,41a37.27,37.27,0,0,0-10.37-8.84,42.92,42.92,0,0,0-10.33-3.76,62,62,0,0,0-20.3-1.87c-6.33.45-12.46,1.85-18,5.24a41.88,41.88,0,0,0-12.31,12A67.91,67.91,0,0,0,43.71,67.2a6.49,6.49,0,0,1-.34.93Z"/><path class="cls-1" d="M43,216.29c.56.65.91,1,1.22,1.41a71,71,0,0,0,18.16,15.69,29.41,29.41,0,0,0,9.41,3.88,21.82,21.82,0,0,0,13.7-1.52,57.47,57.47,0,0,0,15-9.74c2.22-2,4.26-4.19,6.36-6.32a5.6,5.6,0,0,0,.67-1l.39.32a3.65,3.65,0,0,1-.28.64c-5.42,8.06-12.1,14.77-20.72,19.4a21.34,21.34,0,0,1-11.34,2.75,26.11,26.11,0,0,1-11.07-3.3A58.55,58.55,0,0,1,48.7,226.15l-.59-.64c-.1.88-.21,1.57-.27,2.27-1.21,14.07-4.21,27.68-10.36,40.48a72.47,72.47,0,0,1-21.64,26.46c-.13.09-.27.16-.4.24a1.63,1.63,0,0,1-.35,0c.35-.42.61-.77.9-1.09a152.34,152.34,0,0,0,11.24-13.59A72.9,72.9,0,0,0,37.92,257.1,170.59,170.59,0,0,0,42.55,237a74.61,74.61,0,0,0,1-15.22c-.07-1.41-.32-2.81-.47-4.22C43.07,217.29,43.07,217,43,216.29Z"/><path class="cls-1" d="M196.83,194.26l-.17-.32v-.1C196.72,194,196.78,194.12,196.83,194.26Z"/><path class="cls-1" d="M198.66,197.46c-6.89-14.09-18.28-21.19-32.07-27.89h0c-4.52-2.19-9.21-4.23-13.94-6.23l-4-1.94.54.29a.85.85,0,0,1,.15.09c1.7.91,3.48,1.85,5.11,2.82L151.46,163c10.85,6.12,30.84,20.1,34.15,33.45,0,0,0,0,0,0a.21.21,0,0,1,.05.13.17.17,0,0,1-.05-.09,16.31,16.31,0,0,1-2,13.25c-1.28,2.29-2.36,4.63-2,7.36,0,0-.25,32,100.05,3.11C275.68,222,214.69,231.12,198.66,197.46Zm-2-3.52v-.1c.06.14.12.28.17.42Z"/><path class="cls-1" d="M196.83,194.26l-.17-.32v-.1C196.72,194,196.78,194.12,196.83,194.26Z"/><path class="cls-1" d="M196.83,194.26l-.17-.32v-.1C196.72,194,196.78,194.12,196.83,194.26Z"/><path class="cls-1" d="M56.83,205.33c.45-.14.87-.29,1.31-.41a16.77,16.77,0,0,0,5.23-2.48A18.52,18.52,0,0,1,70,199.19a9.18,9.18,0,0,1,5.56.37,2.06,2.06,0,0,0,1.65.14c3.76-1.54,7.19-.62,10.47,1.42,1.38.85,2.75,1.76,4.19,2.49s2.8,1.15,4.31,1.77c-.16.2-.33.43-.51.64-1.32,1.56-2.75,3-4,4.68A15.3,15.3,0,0,1,81,217.33a46.83,46.83,0,0,1-6.6.16,18.91,18.91,0,0,1-3.44-.33,14.85,14.85,0,0,1-9-5.62c-1-1.27-2-2.6-3-3.86C58.36,206.88,57.6,206.15,56.83,205.33Zm8.07-.42c1.88.55,3.58,1,5.25,1.55a21,21,0,0,0,12.81,0c1.4-.42,2.81-.81,4.22-1.22l1-.3c-3.44-1.65-6.69-2.13-10.06-.78a3.91,3.91,0,0,1-3,0C71.66,202.82,68.34,203.28,64.9,204.91ZM91,208.69l-.15-.17c-.62.36-1.23.7-1.84,1.07a23,23,0,0,1-9.66,3.12c-1.24.13-1.83.48-1.75,1.1s.67.93,1.78.92c4.48,0,8-2.08,11.13-5.15A3.64,3.64,0,0,0,91,208.69Zm-19.34,3.76-5.4-2a7.81,7.81,0,0,0,5.27,3.41Zm-4.08-10.78A13.1,13.1,0,0,1,75,201C73,199.36,69.83,199.63,67.53,201.67ZM78.06,201a12.67,12.67,0,0,1,7.67.74C83,199.61,80.23,199.35,78.06,201Zm-4.44,11.34c-.36,0-.61,0-.77.07-.33.2-.81.45-.86.74a1.09,1.09,0,0,0,.6.92,3.41,3.41,0,0,0,1.79.08.82.82,0,0,0,.12-1.49A3.41,3.41,0,0,0,73.62,212.37Z"/><path class="cls-1" d="M29.35,141.36l-2.68-7.11.27-.19c.23.21.48.4.71.62,1.7,1.64,3.3,3.39,5.1,4.91A22.82,22.82,0,0,0,50,145c.84-.07,1.65-.31,2.48-.45a13.26,13.26,0,0,1,8.91,1.8c.07,0,.08.18.14.33l-2.88.23a12.37,12.37,0,0,0-5.73,2,21.14,21.14,0,0,1-13,3.39,20.91,20.91,0,0,1-12.21-4.9,3.25,3.25,0,0,0-2.27-.79,10.21,10.21,0,0,1-7.49-3C22.53,145.45,26.3,144.88,29.35,141.36Z"/><path class="cls-1" d="M9.2,146.07A4.74,4.74,0,0,1,7,141.68a11.61,11.61,0,0,0-1-5.21A12.59,12.59,0,0,0,4.41,134a19.57,19.57,0,0,1-3.9-17,1.78,1.78,0,0,1,.61-1c0,.52,0,1,0,1.57a22.06,22.06,0,0,0,5.19,15.88,8.75,8.75,0,0,1,2.07,8.05A5,5,0,0,0,9,145.66,2.05,2.05,0,0,1,9.2,146.07Z"/><path class="cls-1" d="M65.64,182.32a8.23,8.23,0,0,1,6.11,3.76A6,6,0,0,1,65.64,182.32Z"/><path class="cls-1" d="M81.5,185.64a8.35,8.35,0,0,1,5.44-3.28l.18.28L81.77,186Z"/><path class="cls-1" d="M196.83,194.26l-.17-.32v-.1C196.72,194,196.78,194.12,196.83,194.26Z"/><path class="cls-1" d="M196.83,194.26l-.17-.32v-.1C196.72,194,196.78,194.12,196.83,194.26Z"/><path class="cls-1" d="M223,199.82a48.59,48.59,0,0,1-15-6.17A77.68,77.68,0,0,0,223,199.82Z"/><path class="cls-1" d="M296.7,188.6c-2.36,1-5.05,2-8,3.08l7.64-2.93Z"/><path class="cls-1" d="M438.44,200.8c-50.82-13.84-88.54-5.94-121.09,7.72l-.1,0c-89,28.66-113.26-6.55-117.75-15.3a0,0,0,0,0,0,0,18.92,18.92,0,0,1-.82-1.82v0c25.43,16.78,47.69,16.22,69.85,10.07C315.7,188.42,362.45,150.15,438.44,200.8Z"/><path class="cls-1" d="M438.44,200.8c-50.82-13.84-88.54-5.94-121.09,7.72l-.1,0c-89,28.66-113.26-6.55-117.75-15.3a0,0,0,0,0,0,0,13.26,13.26,0,0,0-.82-1.82v0c25.43,16.78,47.69,16.22,69.85,10.07C315.7,188.42,362.45,150.15,438.44,200.8Z"/><path class="cls-1" d="M300.11,216.43c-11.68,5.75-22.83,11.92-33.88,17.63-35.9,18.61-62.46,26.75-82.11,28.5h-.07c-11,1.66-18.08.36-22.59-2a14.68,14.68,0,0,1-4.51-4.28c-8.33-12.64,13.67-32.68,20.42-38.37l.13-.11c.34-.26.68-.53,1-.82l.24-.2.25-.21.12-.09a.68.68,0,0,1,.14-.11v0S171.09,258.77,300.11,216.43Z"/><path class="cls-1" d="M125.82,194.16s-25.44,42-48.28,43.55l.52,4S96.13,244.76,125.82,194.16Z"/><path class="cls-1" d="M199.48,193.23a18.92,18.92,0,0,1-.82-1.82A13.26,13.26,0,0,1,199.48,193.23Z"/><path class="cls-1" d="M185.68,196.59a.17.17,0,0,1-.05-.09h0v0a.18.18,0,0,1,0,.09Z"/><path class="cls-1" d="M306.55,184.22c-.32.17-3.9,1.93-9.61,4.29a1,1,0,0,0-.24.09c-2.36,1-5.05,2-8,3.08l-1.12.41c-17.22,6.13-43.06,12.78-64.52,7.73a48.59,48.59,0,0,1-15-6.17.19.19,0,0,1-.1-.05,40.7,40.7,0,0,1-4.8-3.55c-21-18-46.52-29.09-56.48-33-.84-.31-1.55-.6-2.14-.82a16.45,16.45,0,0,1-1.55-.84l.55,0a25.63,25.63,0,0,1-5.36-3.86c-.24-.24-.45-.47-.62-.66l-.17-.2c-.3-.33-.48-.57-.54-.64h0a56.54,56.54,0,0,0,20.69,5.3h.43c.35,0,.72,0,1.08.06h.39c.16,0,.33,0,.5,0l1,.07c18.18,1.21,46,6.34,65.61,25C246.86,199.78,305.08,184.6,306.55,184.22Z"/><path class="cls-1" d="M136.78,150h0Z"/><path class="cls-1" d="M146.61,157l-.11,0a13.78,13.78,0,0,1-2-.79,16.45,16.45,0,0,1-1.55-.84,23.89,23.89,0,0,1-4.81-3.89c-.24-.24-.45-.47-.62-.66l-.17-.2c-.3-.33-.48-.57-.54-.64l4.84,3.79,8.19,2.34S152.08,158.64,146.61,157Z"/><path class="cls-1" d="M136.78,150s3.37,6.72,22.19,12.4,2.41-3.43,2.41-3.43l-20.06-6Z"/></g></g></svg>