<svg xmlns="http://www.w3.org/2000/svg" viewBox="0 0 790.76 298.19"><defs><style>.cls-1{fill:#212121;}.cls-2{fill:#dd4080;}.cls-3{font-size:37.98px;font-family:MyriadPro-Regular, Myriad Pro;}.cls-3,.cls-4{fill:#fff;}</style></defs><g id="Capa_2" data-name="Capa 2"><g id="Capa_1-2" data-name="Capa 1"><path class="cls-1" d="M317.79,157.94a.93.93,0,0,1,.21.41,1.07,1.07,0,0,1,.07.35c0,.51-.42.76-1.27.76a39.09,39.09,0,0,1-4.21-.17c-2.34-.17-4-.25-4.86-.25-1.51,0-3.77.12-6.8.35a14.1,14.1,0,0,1-2.4.07c-.81,0-1.21-.28-1.21-.84a.77.77,0,0,1,.21-.57c.15-.19,1.16-1,3-2.47q2.19-1.7,2.19-3c.09-.52.2-1.26.32-2.23a29.75,29.75,0,0,0,.17-3.35,49.64,49.64,0,0,0-2.4-15.25,55.88,55.88,0,0,0-11.64-20A51.69,51.69,0,0,0,278,102.33,66.42,66.42,0,0,0,263.8,95.8,87.85,87.85,0,0,0,257,111.4a67.09,67.09,0,0,0-3.74,21.1q0,10.73.49,15.39a47.23,47.23,0,0,0,3.74,14.54A18.88,18.88,0,0,0,263,169.2a29.68,29.68,0,0,0,5.08,3.11c.56.28.85.61.85,1s-.24.56-.71.7c-1.36.43-2.67.87-3.92,1.35s-2.68,1.1-4.3,1.9a29.14,29.14,0,0,0-4.2,2.47c-.8.57-1.55,1.15-2.26,1.77a1.72,1.72,0,0,1-.92.42c-.42,0-.63-.38-.63-1.13q0-2.19-.21-5t-1.06-9q-1.28-7.26-2.33-14.39A91.14,91.14,0,0,1,247.28,139a99.06,99.06,0,0,1,3.32-25.48,78,78,0,0,1,7.55-19.13c-1-.18-2.13-.35-3.28-.49a33.65,33.65,0,0,0-4-.21,39.43,39.43,0,0,0-8.37.95,21.81,21.81,0,0,0-7.58,3.14q-4.31,2.9-4.31,6.78t3.25,4.66a4.15,4.15,0,0,0,.84.07,4.66,4.66,0,0,0,2.58-.71,2.79,2.79,0,0,0,1.27-2.12c.12-.94.36-1.41.74-1.41s.51.26.67.78a6.49,6.49,0,0,1,.25,2,7.67,7.67,0,0,1-.14,1.37c-.1.5-.19,1-.28,1.45a9.45,9.45,0,0,1-3.11,4.34,8.51,8.51,0,0,1-5.43,1.73,4.59,4.59,0,0,1-.78.07,8.27,8.27,0,0,1-6.32-2.79,10.11,10.11,0,0,1-2.57-7.16q0-7.28,7.9-12.07a35.45,35.45,0,0,1,11.72-4.45,46.8,46.8,0,0,1,5-.63c1.83-.15,3.72-.22,5.65-.22a44.27,44.27,0,0,1,9,.71q10.25-13.55,22.69-21a59.76,59.76,0,0,1,31.16-8.54q2.34,0,2.34.63,0,.28-.51.78a13.18,13.18,0,0,0-3,4.73q-.86,3-.86,10.81v75c0,.89.71,1.88,2.14,3C316.69,157,317.69,157.8,317.79,157.94Zm-15-35.6V66.57a52.29,52.29,0,0,0-20.19,8.9,61.26,61.26,0,0,0-8.89,7.27,65.05,65.05,0,0,0-7.2,9.1,69.47,69.47,0,0,1,11.08,4.8,65.8,65.8,0,0,1,9.1,6.21,57.89,57.89,0,0,1,8.9,8.69A80,80,0,0,1,302.76,122.34Z"/><path class="cls-1" d="M351,157.24a2.26,2.26,0,0,1,.85,1.39c0,.56-.52.83-1.56.83a20.87,20.87,0,0,1-2.11-.08q-4.38-.4-5.79-.41c-1.69,0-3.07.06-4.13.16s-2.27.22-3.64.33c-1.13,0-1.69-.28-1.69-.86a2.59,2.59,0,0,1,.71-1.29q1.75-1.42,2.61-2.22a3.79,3.79,0,0,0,1.62-2.61V77a30.32,30.32,0,0,0-.14-3.25c-.09-.8-.66-1.13-1.69-1a8.68,8.68,0,0,0-2.62,1.37,13,13,0,0,1-2.47,1.45c-.7.24-1.05,0-1.05-.78a2,2,0,0,1,.42-1,46.11,46.11,0,0,1,3.88-4c1.84-1.79,3.29-3.23,4.38-4.32q2.4-2.41,5.22-5.74a24.15,24.15,0,0,1,2.54-2.76.92.92,0,0,1,.43-.22,1.35,1.35,0,0,1,.35-.07c.42,0,.63.38.63,1.13-.23,1.51-.43,3.39-.6,5.62s-.24,4.61-.24,7.11v82a3.63,3.63,0,0,0,1.48,2.48C349.21,155.83,350.08,156.55,351,157.24Z"/><path class="cls-1" d="M431.15,121.35q0,16.8-9,28.3-9.39,12.07-24.21,12.07a24,24,0,0,1-10.55-2.26,20.59,20.59,0,0,1-7.8-6.49,17,17,0,0,1-2.33,4.94,14.08,14.08,0,0,1-2.75,3.11,1.77,1.77,0,0,1-1,.42c-.1,0-.33-.19-.71-.56a17.35,17.35,0,0,1-1.27-1.49c-.66-.84-1.13-1.43-1.41-1.76l-3.39-3.53a1,1,0,0,1-.35-.71,1,1,0,0,1,.64-.84,7.61,7.61,0,0,0,3.24-2.33q2-2.68,2-8.12V77a30.58,30.58,0,0,0-.14-3.25c-.1-.8-.66-1.13-1.7-1a7.7,7.7,0,0,0-2.71,1.37,14.74,14.74,0,0,1-2.37,1.45.91.91,0,0,1-.85,0,.55.55,0,0,1-.35-.57,2.09,2.09,0,0,1,.53-1.23A37.21,37.21,0,0,1,367.55,71q3.74-3.6,5.43-5.36,2.61-2.61,5.37-5.79a23.84,23.84,0,0,1,2.47-2.68,1.43,1.43,0,0,1,.78-.29c.37,0,.56.38.56,1.13-.33,3.11-.52,4.87-.56,5.3q-.28,3.88-.29,7.41v34a35.76,35.76,0,0,1,8.9-9.88q6.71-5.09,13.83-5.08,12.21,0,19.66,8.64T431.15,121.35Zm-9.32,2.12q0-10.87-5.3-18.36-5.71-8-15-8a18.55,18.55,0,0,0-14.5,6.38q-5.69,6.39-5.69,16.06v22q0,7.76,4.52,12.07,4.23,4,11.29,4,11.24,0,18.29-10.94A41.91,41.91,0,0,0,421.83,123.47Z"/><path class="cls-1" d="M506.38,157.63a2.59,2.59,0,0,1,.5,1.13c0,.47-.36.7-1.06.7-.19,0-1-.07-2.33-.21a38.21,38.21,0,0,0-3.88-.21,21.34,21.34,0,0,0-2.83.21q-1.54.21-1.83.21c-1.08,0-1.63-.25-1.63-.77a1.52,1.52,0,0,1,.36-.78,9.23,9.23,0,0,0,1-1.94,6.4,6.4,0,0,0,.39-2.29l-.42-6.78A25.6,25.6,0,0,1,485.56,157a26.06,26.06,0,0,1-14.75,4.73q-10.87,0-18.35-6.42a22.08,22.08,0,0,1-7.91-17.58,23,23,0,0,1,8.61-18.21,29.45,29.45,0,0,1,19.77-7.06,26.91,26.91,0,0,1,10.69,2.19,21.09,21.09,0,0,1,7.8,5.3q0-3.1-3.6-9.25a43.21,43.21,0,0,0-9.95-11.93q-7.2-5.92-14.83-5.93a15.8,15.8,0,0,0-8.11,2,6.9,6.9,0,0,0-3.88,6.21,5.84,5.84,0,0,0,1.16,3.74,3.86,3.86,0,0,0,3.21,1.48,3.65,3.65,0,0,0,2.47-.91,2.82,2.82,0,0,0,1.06-2.19,6.46,6.46,0,0,0-.25-1.8c-.16-.59-.31-1.12-.46-1.59s-.11-.54.07-.64a3.52,3.52,0,0,1,.92-.07,5.93,5.93,0,0,1,3.6,1.84,5.07,5.07,0,0,1,1.63,3.67,7,7,0,0,1-2.65,5.54,9.24,9.24,0,0,1-6.11,2.22,9,9,0,0,1-6.77-2.75,10.15,10.15,0,0,1-2.68-7.41q0-6.08,6.42-9.46a28.9,28.9,0,0,1,13.62-3,28,28,0,0,1,15.46,5,37.52,37.52,0,0,1,12.35,13.52,55.7,55.7,0,0,1,5.29,14.89,155.36,155.36,0,0,1,2.41,15.5q1.13,9.84,1.9,13.51a11.18,11.18,0,0,0,1.34,3.53Zm-12-22.59a15.54,15.54,0,0,0-5.89-12.74q-5.89-4.77-15.42-4.76a19.9,19.9,0,0,0-13.56,5.08,16.09,16.09,0,0,0-5.78,12.56,17.63,17.63,0,0,0,5.89,13.45,19.88,19.88,0,0,0,14,5.47q9.39,0,15.07-5.33A18,18,0,0,0,494.38,135Z"/><path class="cls-2" d="M537.37,157.24a2.28,2.28,0,0,1,.84,1.39c0,.56-.52.83-1.55.83a21.08,21.08,0,0,1-2.12-.08q-4.38-.4-5.79-.41c-1.69,0-3.07.06-4.12.16s-2.28.22-3.64.33c-1.13,0-1.69-.28-1.69-.86a2.55,2.55,0,0,1,.7-1.29q1.77-1.42,2.61-2.22a3.77,3.77,0,0,0,1.63-2.61V77a27.51,27.51,0,0,0-.15-3.25c-.09-.8-.65-1.13-1.69-1a8.55,8.55,0,0,0-2.61,1.37,13.36,13.36,0,0,1-2.47,1.45c-.71.24-1.06,0-1.06-.78a2,2,0,0,1,.42-1,47.08,47.08,0,0,1,3.89-4q2.74-2.69,4.37-4.32,2.4-2.41,5.23-5.74a23.21,23.21,0,0,1,2.54-2.76.83.83,0,0,1,.42-.22,1.43,1.43,0,0,1,.35-.07c.43,0,.64.38.64,1.13-.24,1.51-.44,3.39-.6,5.62s-.25,4.61-.25,7.11v82a3.67,3.67,0,0,0,1.48,2.48C535.6,155.83,536.47,156.55,537.37,157.24Z"/><path class="cls-2" d="M623.21,126.15a34,34,0,0,1-10.87,25.34,36,36,0,0,1-50.58-.32,35.25,35.25,0,0,1-10.41-25.73A34.15,34.15,0,0,1,562,100.21a35,35,0,0,1,25.51-10.48,34,34,0,0,1,25.34,10.65A35.6,35.6,0,0,1,623.21,126.15Zm-6.07,3.1q0-11.64-10.73-22.16-11.08-10.87-24.28-10.87a24.07,24.07,0,0,0-17.51,7.06,22.56,22.56,0,0,0-7.2,16.66q0,13.91,10.94,24.7Q579.1,155.23,592,155.23a24.52,24.52,0,0,0,17.36-6.64Q617.14,141.33,617.14,129.25Z"/><path class="cls-2" d="M706.26,126.15a34,34,0,0,1-10.87,25.34,36,36,0,0,1-50.57-.32,35.25,35.25,0,0,1-10.41-25.73A34.18,34.18,0,0,1,645,100.21a35,35,0,0,1,25.52-10.48,34,34,0,0,1,25.34,10.65A35.63,35.63,0,0,1,706.26,126.15Zm-6.07,3.1q0-11.64-10.73-22.16-11.09-10.87-24.28-10.87a24,24,0,0,0-17.5,7.06,22.56,22.56,0,0,0-7.2,16.66q0,13.91,10.94,24.7,10.73,10.59,23.64,10.59a24.54,24.54,0,0,0,17.37-6.64Q700.19,141.33,700.19,129.25Z"/><path class="cls-2" d="M779,155.86a5.05,5.05,0,0,1-1.84,3.89,6.21,6.21,0,0,1-4.24,1.62q-5.07,0-8.89-4.73c-1.51-1.88-3.5-5.41-6-10.59s-4.63-8.82-6.42-10.94a48,48,0,0,0-8.47-8.19,18.46,18.46,0,0,0-10.59-3.38v29.08a3.67,3.67,0,0,0,1.48,2.47q1.27,1.13,2.61,2.19a2.27,2.27,0,0,1,.85,1.41c0,.56-.52.84-1.55.84-.85,0-1.55,0-2.12-.07q-4.38-.42-5.79-.42c-1.69,0-3.07.05-4.13.14s-2.27.19-3.63.28c-1.13,0-1.69-.27-1.69-.83a2.41,2.41,0,0,1,.7-1.25c1.18-.93,2-1.64,2.61-2.15a3.81,3.81,0,0,0,1.63-2.61V77a30.24,30.24,0,0,0-.14-3.24c-.1-.81-.67-1.14-1.7-1a8.55,8.55,0,0,0-2.61,1.37,13.71,13.71,0,0,1-2.47,1.45c-.71.24-1.06,0-1.06-.78a2.09,2.09,0,0,1,.42-1,48.53,48.53,0,0,1,3.89-4q2.75-2.69,4.37-4.3,2.4-2.4,5.23-5.72A23.64,23.64,0,0,1,732,57.12a.83.83,0,0,1,.42-.22,1.43,1.43,0,0,1,.35-.07c.43,0,.64.38.64,1.13-.24,1.51-.44,3.39-.6,5.62s-.25,4.61-.25,7.1V118.6a86,86,0,0,0,9.11-4,71.49,71.49,0,0,0,11.22-6.86,50.59,50.59,0,0,0,6.85-6.15,11.86,11.86,0,0,0,2.89-7.68,5,5,0,0,0-1.2-3.38,4,4,0,0,0-3.18-1.41,3.67,3.67,0,0,0-2.4.81,2.93,2.93,0,0,0-1.13,1.87c0,1.27-.21,1.91-.63,1.91a1.57,1.57,0,0,1-.78-.35,6,6,0,0,1-2.82-5.09,7.74,7.74,0,0,1,2.61-5.93,9,9,0,0,1,6.28-2.4,8.82,8.82,0,0,1,7,3.25,11.34,11.34,0,0,1,2.78,7.61,18.61,18.61,0,0,1-3.31,10.58,32.75,32.75,0,0,1-8,7.92,99.2,99.2,0,0,1-8.54,5.44,70.9,70.9,0,0,1-10.66,5.3A52.34,52.34,0,0,1,749,123q7.34,3,11.15,7.7a28.2,28.2,0,0,1,4.87,8.54,39.18,39.18,0,0,1,1.9,9q.57,5.3.78,6c.57,2,1.53,2.92,2.89,2.68.33,0,.52-.6.57-1.66a10.56,10.56,0,0,1,.14-1.72c.42-1.6,1.6-2.41,3.53-2.41a3.81,3.81,0,0,1,3.14,1.35A5.06,5.06,0,0,1,779,155.86Z"/><path class="cls-1" d="M472.92,198.88V182.51h6.73a9,9,0,0,1,3.73.71,5.3,5.3,0,0,1,2.4,2,6.18,6.18,0,0,1,0,6.22,5.42,5.42,0,0,1-2.4,2,9,9,0,0,1-3.73.7h-5l1.36-1.43v6.15Zm3-5.82-1.36-1.47h4.91a4.62,4.62,0,0,0,3-.86,3.33,3.33,0,0,0,0-4.8,4.68,4.68,0,0,0-3-.84H474.6l1.36-1.5Z"/><path class="cls-1" d="M504.39,196.33h9.24v2.55H501.35V182.51H513.3v2.55h-8.91Zm-.23-7h8.14v2.5h-8.14Z"/><path class="cls-1" d="M528.71,198.88V182.51h3v13.8h8.56v2.57Z"/><path class="cls-1" d="M561.21,199.12a7.12,7.12,0,0,1-5.27-1.9,7.36,7.36,0,0,1-1.9-5.47v-9.24h3v9.12a5.25,5.25,0,0,0,1.08,3.68,4.06,4.06,0,0,0,3.08,1.14,4,4,0,0,0,3.06-1.14,5.25,5.25,0,0,0,1.08-3.68v-9.12h3v9.24a7.37,7.37,0,0,1-1.91,5.47A7.09,7.09,0,0,1,561.21,199.12Z"/><path class="cls-1" d="M592,199.12a9.59,9.59,0,0,1-3.53-.63,8.55,8.55,0,0,1-2.81-1.77,7.91,7.91,0,0,1-1.85-2.67,9,9,0,0,1,0-6.71,7.87,7.87,0,0,1,1.85-2.66,8.39,8.39,0,0,1,2.81-1.77,10.09,10.09,0,0,1,7,0,8.7,8.7,0,0,1,2.8,1.76,7.65,7.65,0,0,1,1.84,2.66,8.93,8.93,0,0,1,0,6.74,7.84,7.84,0,0,1-1.84,2.66,8.87,8.87,0,0,1-2.8,1.76A9.46,9.46,0,0,1,592,199.12Zm0-2.67a6.1,6.1,0,0,0,2.29-.42,5.29,5.29,0,0,0,1.83-1.2,6.15,6.15,0,0,0,1.2-6.43,5.7,5.7,0,0,0-1.2-1.83,5.29,5.29,0,0,0-1.83-1.2,6.45,6.45,0,0,0-4.58,0,5.25,5.25,0,0,0-1.82,1.2,5.56,5.56,0,0,0-1.21,1.83,6.34,6.34,0,0,0,0,4.59,5.71,5.71,0,0,0,1.21,1.84,5.25,5.25,0,0,0,1.82,1.2A6.14,6.14,0,0,0,592,196.45Zm5.36,6a7,7,0,0,1-1.67-.2,6,6,0,0,1-1.59-.65,10.1,10.1,0,0,1-1.63-1.2,25.42,25.42,0,0,1-1.85-1.81l3.23-.84a9.35,9.35,0,0,0,1.25,1.39,4.11,4.11,0,0,0,1.16.76,2.92,2.92,0,0,0,1.17.24,3.68,3.68,0,0,0,2.8-1.31l1.41,1.68A5.36,5.36,0,0,1,597.32,202.46Z"/><path class="cls-1" d="M622.73,199.12a7.12,7.12,0,0,1-5.27-1.9,7.36,7.36,0,0,1-1.9-5.47v-9.24h3v9.12a5.25,5.25,0,0,0,1.08,3.68,4.06,4.06,0,0,0,3.08,1.14,4,4,0,0,0,3.06-1.14,5.25,5.25,0,0,0,1.08-3.68v-9.12h3v9.24a7.37,7.37,0,0,1-1.91,5.47A7.09,7.09,0,0,1,622.73,199.12Z"/><path class="cls-1" d="M648.88,196.33h9.23v2.55H645.84V182.51h11.95v2.55h-8.91Zm-.24-7h8.14v2.5h-8.14Z"/><path class="cls-1" d="M673.19,198.88V182.51h6.74a9,9,0,0,1,3.73.71,5.35,5.35,0,0,1,2.4,2,6.16,6.16,0,0,1,0,6.21,5.42,5.42,0,0,1-2.4,2,9.17,9.17,0,0,1-3.73.69h-5l1.35-1.38v6.15Zm3-5.82-1.35-1.45h4.91a4.62,4.62,0,0,0,3-.86,3,3,0,0,0,1-2.41,2.93,2.93,0,0,0-1-2.41,4.68,4.68,0,0,0-3-.84h-4.91l1.35-1.5Zm7.67,5.82-4.13-5.94H683l4.16,5.94Z"/><path class="cls-1" d="M701.53,181.18l3.16-3.2h3.44l-4.07,3.2Zm.45,17.7V182.51h3v16.37Z"/><path class="cls-1" d="M718.81,198.88l7.37-16.37h3l7.39,16.37h-3.18l-6.33-14.75h1.21L722,198.88Zm3.39-3.79.82-2.38h8.84l.82,2.38Z"/><text class="cls-3" transform="translate(774.85 85.06)">®</text><path class="cls-2" d="M136.78,202.36c.59-.68,1.18-1.36,1.75-2a8.47,8.47,0,0,0,.58-.76c2.3-3.34,1.57-6.05-2.11-7.71a18.61,18.61,0,0,0-7.09-1.6c-6.71-.23-13.33-1-19.67-3.42A28.85,28.85,0,0,1,96.64,177a27.6,27.6,0,0,1-5-12.91c-1.19-8.82.39-17.34,3-25.71a87.17,87.17,0,0,1,7.06-16.69c.15-.27.28-.57.41-.85,0,0,0-.1-.08-.25a3.63,3.63,0,0,0-.39.44,102.71,102.71,0,0,0-11.75,23.06,49.33,49.33,0,0,0-3,19.37,28.51,28.51,0,0,0,8,18.61,78.9,78.9,0,0,0,6,5.16,3.51,3.51,0,0,1,1,1c-.51-.23-1-.41-1.53-.67C89.61,182,82.54,173.23,78.91,161.71c-2.33-7.39-2.59-15-2.13-22.69.59-9.8,4-18.72,8-27.48,3-6.61,6.5-13,10-19.39a50.14,50.14,0,0,0,5.44-16.38,28.29,28.29,0,0,0,0-9.67,15.27,15.27,0,0,0-8.63-11.51c-3.74-1.85-7.77-2.41-12.24-2.7,1.8.6,3.27,1,4.68,1.55,6.86,2.78,10.54,7.9,11.23,15.26.5,5.34-.58,10.45-2.09,15.51a80.39,80.39,0,0,1-5.06,12.36,2.43,2.43,0,0,1-.86,1c.16-.47.3-1,.48-1.41a47,47,0,0,0,3.14-12.3c.52-5.28.34-10.52-2.22-15.38a16.49,16.49,0,0,0-12.3-8.89A33.66,33.66,0,0,0,61.65,60,26.82,26.82,0,0,0,46.91,69.7a2.37,2.37,0,0,1-1,.86c.15-.9.25-1.82.44-2.71a56.15,56.15,0,0,1,11.1-24.41A39.94,39.94,0,0,1,82.28,28.9a64.36,64.36,0,0,1,13.66-.56,8.42,8.42,0,0,1,3,.68c-1.24,0-2.48,0-3.72,0a46.09,46.09,0,0,0-17.46,3.81,25.76,25.76,0,0,0-10,7.78l1.34-.94A47.5,47.5,0,0,1,90.4,31.38a39.08,39.08,0,0,1,24.09,4c8.26,4.36,13.07,11.23,14.53,20.47,1,6.3.27,12.48-1.16,18.62a108.55,108.55,0,0,1-8,21.93c-1.93,4.07-4,8.11-5.69,12.27a67.52,67.52,0,0,0-4.86,19,56.68,56.68,0,0,0,5,30.26A68,68,0,0,0,137,185a34.88,34.88,0,0,1,4.3,3.76,11,11,0,0,1,1.88,2.75,6.09,6.09,0,0,1-.62,6.74A11.94,11.94,0,0,1,136.78,202.36Z"/><path class="cls-2" d="M178.07,216.89c-.28.25-.45.38-.45.38-1.08.91-2.31,1.94-3.63,3.1,0,0,0,0-.05,0-2.19,1.92-4.61,4.17-7,6.64-11.44,11.63-22.68,27.91-6.82,36.34a39.63,39.63,0,0,1-19-11.9,41.76,41.76,0,0,1-6.83-10.94,2.4,2.4,0,0,1,.28-.27c-.26-.64-.51-1.29-.72-2a21.94,21.94,0,0,1-.72-2.9c-1.5-8.11,1.13-17.86,11.92-29.09.2-.22.41-.42.61-.63a15.64,15.64,0,0,0,2.1-2.93,11.93,11.93,0,0,0,1-9.23s0-.07,0-.1a25,25,0,0,0-5.18-9.12,50.61,50.61,0,0,0-6.41-6.18c-9.66-8.14-17-17.89-20.73-30.14a51.63,51.63,0,0,1-2.22-13.46c-.49-13.64,3.35-26.08,10.16-37.72.16-.26.36-.48.53-.72l.2.1c-.14.37-.26.76-.41,1.13a62.93,62.93,0,0,0-4.19,16.28A47.32,47.32,0,0,0,127,144.15a60,60,0,0,0,21.61,21c.93.55,1.87,1.09,2.8,1.65,3.21,1.91,6.38,3.89,9.46,6l.53.34a81.23,81.23,0,0,1,13.15,10.36,3.58,3.58,0,0,1,.29.27,41.28,41.28,0,0,1,6.16,7.68C189.52,205.39,180.28,214.89,178.07,216.89Z"/><path class="cls-2" d="M154.32,165.13a.25.25,0,0,1,.08.05s-.06,0-.08,0Z"/><path class="cls-2" d="M138,36.8c1.6,1,3.28,1.92,4.8,3.05A42,42,0,0,1,154.5,53.56a65.48,65.48,0,0,1,7,20.23,106,106,0,0,1,1.61,20,97.46,97.46,0,0,0,3.82,28.61,42.89,42.89,0,0,0,7.63,15.28,21.46,21.46,0,0,0,14,8.12,26.55,26.55,0,0,0,9.19-.34,7,7,0,0,1,.78-.12c.09,0,.18.08.49.23-1.57.62-3,1.21-4.4,1.75A75.33,75.33,0,0,1,178,151.61a39.58,39.58,0,0,1-14.71-.47c-7.76-1.91-13-6.65-15.91-14a38,38,0,0,1-2.47-11.8,74.72,74.72,0,0,1,.8-16.83c.87-5.12,1.93-10.21,2.75-15.34.54-3.39.88-6.83,1.15-10.27a81.77,81.77,0,0,0,.26-8.43c-.21-7.88-1.11-15.66-3.79-23.14A38.16,38.16,0,0,0,138,37.51a2.11,2.11,0,0,1-.23-.39Z"/><path class="cls-1" d="M62.09,131.61c-.64-.32-1.15-.55-1.65-.81Q48.86,125,37.29,119.09c-1.09-.55-2.23-1-3.35-1.45-6-2.56-12.13-2.38-18.52-1.3l-.61.1a140.86,140.86,0,0,0-2,16.85c-.36-4.25,1-12,2.17-17.91l.58-.14c2.16-.57,4.18-1.14,6.24-1.59a25.84,25.84,0,0,1,12.6.48c9,2.51,17.94,5.15,26.92,7.67A2.14,2.14,0,0,1,63.16,124,17.65,17.65,0,0,1,62.09,131.61Z"/><path class="cls-2" d="M35.82,74.34c.34.46.7.91,1.16,1.52-.44.46-.85.91-1.3,1.35A88.53,88.53,0,0,0,26.4,87.48a59.73,59.73,0,0,0-9.65,20.13v0c-.2.7-.39,1.39-.57,2.1-.46,1.84-.84,3.72-1.27,5.66l.11,0c-1.2,5.89-2.53,13.66-2.17,17.91a13.55,13.55,0,0,1-.64-1.38A142.53,142.53,0,0,1,6.76,109.7a158.36,158.36,0,0,1-2.17-26,104,104,0,0,1,9.7-43.61A72.81,72.81,0,0,1,24.6,23.32c1.59-1.9,3.39-3.64,5.09-5.46a2.73,2.73,0,0,1,.3.21,5.51,5.51,0,0,1-.46.78,23.49,23.49,0,0,0-4.79,11.31c-1.08,7.07.51,13.71,3.35,20.12A73.93,73.93,0,0,0,39,67.26c.93,1.13,1.9,2.23,2.73,3.45-9-7.25-16.56-15.53-20.51-26.71.19,1,.32,2.12.54,3.16a55.27,55.27,0,0,0,7.93,18.48C31.59,68.61,33.77,71.44,35.82,74.34Z"/><path class="cls-2" d="M42.51,68.93C41.76,67,41,65,40.28,63a75.53,75.53,0,0,1-3.93-19.92,49,49,0,0,1,3-20.62c.54-1.38,1.22-2.7,1.73-4.16a7.6,7.6,0,0,0-.63.64,32.11,32.11,0,0,0-6.81,16.89c-.73,7,.55,13.74,2.82,20.32,1.17,3.4,2.64,6.7,4,10.14a1.6,1.6,0,0,1-.42-.27A62.84,62.84,0,0,1,28.5,45.65a36.51,36.51,0,0,1-1.92-11.4,28.63,28.63,0,0,1,7.11-19C39.86,8,47.84,3.76,57,1.52A55.84,55.84,0,0,1,70.25,0,62,62,0,0,1,91.88,4,64.89,64.89,0,0,1,113,16.19c1.31,1.16,2.52,2.43,3.76,3.67a2.11,2.11,0,0,1,.56,1.16c-.36-.17-.74-.3-1.08-.5A53.87,53.87,0,0,0,95.8,13.81a53.18,53.18,0,0,0-30.06,4.84A38.07,38.07,0,0,0,47.45,37.86a55.49,55.49,0,0,0-4.59,18.76,60,60,0,0,0,0,11c0,.41,0,.84,0,1.25Z"/><path class="cls-2" d="M120.35,23.24c.49.28,1,.54,1.47.84A46.72,46.72,0,0,1,137.64,41a65.41,65.41,0,0,1,7.62,22.31,93,93,0,0,1,1.15,18.56,157.32,157.32,0,0,1-3.18,24.91,84.33,84.33,0,0,0-1.18,9,60.74,60.74,0,0,0-.25,7.63,43.32,43.32,0,0,0,2.78,15.1,24.94,24.94,0,0,0,7.49,9.94,18.9,18.9,0,0,0,9.17,3.79c3.45.56,6.93.91,10.4,1.37a2.29,2.29,0,0,1,1.3.55c-1.08.13-2.16.32-3.24.38-6.59.31-13.16.15-19.6-1.53s-12.24-4.49-16.84-9.46a29.43,29.43,0,0,1-7.23-15,54.63,54.63,0,0,1-.11-17.59,102.36,102.36,0,0,1,5.17-20.63c1.34-3.75,2.69-7.48,3.66-11.35a69.61,69.61,0,0,0,2.05-22.25c-1-13.07-6.11-24.16-16.18-32.77-.16-.14-.29-.3-.44-.45Z"/><path class="cls-2" d="M43.61,68.82c.07-2,.07-4,.24-6A70.86,70.86,0,0,1,46.36,48.6,46.61,46.61,0,0,1,57.57,28.85a44.65,44.65,0,0,1,21.19-12,41.42,41.42,0,0,1,13.73-1.08,56.42,56.42,0,0,1,13.57,2.52c11.94,4,20,12,24.62,23.67a51.53,51.53,0,0,1,3,11.84,9.42,9.42,0,0,1,0,1,13.2,13.2,0,0,1-.61-1.4,31.63,31.63,0,0,0-6.53-11.92,37.49,37.49,0,0,0-10.48-8.94,43.25,43.25,0,0,0-10.44-3.8,62.81,62.81,0,0,0-20.52-1.89c-6.4.46-12.6,1.87-18.15,5.3A42.2,42.2,0,0,0,54.49,44.29a68.43,68.43,0,0,0-10.3,23.64,8.34,8.34,0,0,1-.35.95Z"/><path class="cls-1" d="M43.51,218.65c.57.66.92,1,1.24,1.43A71.76,71.76,0,0,0,63.1,235.93a29.32,29.32,0,0,0,9.52,3.92,22,22,0,0,0,13.84-1.52,58.38,58.38,0,0,0,15.16-9.85c2.25-2,4.31-4.24,6.44-6.4a5.09,5.09,0,0,0,.67-1.05l.4.33a4.27,4.27,0,0,1-.29.65c-5.47,8.14-12.23,14.93-20.94,19.61a21.6,21.6,0,0,1-11.46,2.78,26.39,26.39,0,0,1-11.2-3.34,59.08,59.08,0,0,1-16-12.45l-.59-.64c-.11.89-.21,1.59-.28,2.3-1.23,14.22-4.25,28-10.47,40.92A73.09,73.09,0,0,1,16,297.93a4.37,4.37,0,0,1-.4.25,1.63,1.63,0,0,1-.35,0c.35-.43.61-.78.91-1.1a153.82,153.82,0,0,0,11.35-13.74A73.7,73.7,0,0,0,38.34,259.9,169.86,169.86,0,0,0,43,239.61a76.14,76.14,0,0,0,1.05-15.38c-.07-1.42-.32-2.84-.48-4.26C43.54,219.66,43.54,219.36,43.51,218.65Z"/><path class="cls-2" d="M199,196.38l-.17-.33V196C198.86,196.1,198.92,196.24,199,196.38Z"/><path class="cls-2" d="M200.83,199.61c-7-14.24-18.48-21.42-32.42-28.19h0c-4.57-2.22-9.31-4.27-14.1-6.3l-4.07-2,.54.3a.48.48,0,0,1,.16.08c1.72.93,3.52,1.87,5.16,2.86l-3-1.64c11,6.19,31.17,20.33,34.53,33.83,0,0,0,0,0,0s0,.08.06.12a.32.32,0,0,1-.06-.08,16.41,16.41,0,0,1-2,13.39c-1.29,2.31-2.38,4.67-2,7.44,0,0-.26,32.33,101.14,3.14C278.68,224.4,217,233.65,200.83,199.61Zm-2-3.56V196c.05.15.11.29.17.43Z"/><path class="cls-2" d="M199,196.38l-.17-.33V196C198.86,196.1,198.92,196.24,199,196.38Z"/><path class="cls-2" d="M199,196.38l-.17-.33V196C198.86,196.1,198.92,196.24,199,196.38Z"/><path class="cls-2" d="M57.45,207.57c.45-.15.88-.3,1.32-.42a16.61,16.61,0,0,0,5.29-2.51,18.94,18.94,0,0,1,6.66-3.28,9.35,9.35,0,0,1,5.61.37,2.05,2.05,0,0,0,1.68.14c3.79-1.55,7.26-.62,10.58,1.44,1.39.87,2.77,1.78,4.23,2.52s2.83,1.17,4.36,1.79l-.51.65c-1.34,1.57-2.79,3.06-4,4.73a15.44,15.44,0,0,1-10.75,6.7,47.83,47.83,0,0,1-6.67.16,18.3,18.3,0,0,1-3.47-.33,15,15,0,0,1-9.11-5.68c-1-1.29-2-2.63-3-3.9C59,209.13,58.23,208.4,57.45,207.57Zm8.16-.42c1.9.55,3.62,1,5.3,1.56a21.24,21.24,0,0,0,13,0c1.41-.43,2.84-.83,4.26-1.24l1-.3c-3.48-1.67-6.77-2.16-10.18-.79a3.94,3.94,0,0,1-3.07,0C72.44,205,69.08,205.5,65.61,207.15ZM91.94,211l-.15-.16c-.62.36-1.25.7-1.86,1.07A23,23,0,0,1,80.17,215c-1.25.13-1.86.48-1.78,1.12s.68.93,1.81.92c4.53,0,8.13-2.1,11.24-5.21A3.27,3.27,0,0,0,91.94,211Zm-19.55,3.81-5.45-2a7.88,7.88,0,0,0,5.32,3.44Zm-4.12-10.9a13.2,13.2,0,0,1,7.51-.65C73.83,201.53,70.59,201.81,68.27,203.87Zm10.64-.65a12.89,12.89,0,0,1,7.76.75C83.94,201.79,81.1,201.52,78.91,203.22Zm-4.49,11.47c-.36,0-.61,0-.77.07-.34.2-.82.45-.87.75a1.09,1.09,0,0,0,.6.92,3.38,3.38,0,0,0,1.81.08.82.82,0,0,0,.12-1.5A3.12,3.12,0,0,0,74.42,214.69Z"/><path class="cls-1" d="M29.67,142.9c-1-2.55-1.84-4.87-2.71-7.19l.27-.19c.24.21.49.41.72.63,1.72,1.66,3.34,3.43,5.15,5a23.06,23.06,0,0,0,17.45,5.42c.84-.07,1.66-.31,2.5-.45a13.37,13.37,0,0,1,9,1.82c.07,0,.08.17.15.33l-2.92.23a12.59,12.59,0,0,0-5.79,2A21.5,21.5,0,0,1,28,149a3.27,3.27,0,0,0-2.29-.8,10.3,10.3,0,0,1-7.57-3C22.78,147,26.59,146.46,29.67,142.9Z"/><path class="cls-4" d="M9.3,147.67a4.84,4.84,0,0,1-2.25-4.45,11.85,11.85,0,0,0-1-5.26,13,13,0,0,0-1.61-2.52A19.76,19.76,0,0,1,.52,118.25a1.74,1.74,0,0,1,.61-1c0,.53,0,1.07,0,1.6a22.34,22.34,0,0,0,5.25,16A8.82,8.82,0,0,1,8.47,143a5.06,5.06,0,0,0,.67,4.24A1.92,1.92,0,0,1,9.3,147.67Z"/><path class="cls-4" d="M66.36,184.31a8.29,8.29,0,0,1,6.17,3.8A6.07,6.07,0,0,1,66.36,184.31Z"/><path class="cls-4" d="M82.39,187.66a8.46,8.46,0,0,1,5.5-3.31l.18.29L82.66,188Z"/><path class="cls-2" d="M199,196.38l-.17-.33V196C198.86,196.1,198.92,196.24,199,196.38Z"/><path class="cls-2" d="M199,196.38l-.17-.33V196C198.86,196.1,198.92,196.24,199,196.38Z"/><path class="cls-2" d="M225.46,202a49.36,49.36,0,0,1-15.2-6.23A78.93,78.93,0,0,0,225.46,202Z"/><path class="cls-2" d="M299.93,190.66c-2.38,1-5.1,2-8.11,3.11l7.73-3Z"/><path class="cls-2" d="M443.23,203c-51.38-14-89.52-6-122.42,7.8l-.1.05c-90,29-114.49-6.63-119-15.48a0,0,0,0,0,0,0,18,18,0,0,1-.83-1.84v0c25.71,17,48.2,16.39,70.61,10.18C319.15,190.48,366.4,151.79,443.23,203Z"/><path class="cls-2" d="M443.23,203c-51.38-14-89.52-6-122.42,7.8l-.1.05c-90,29-114.49-6.63-119-15.48a0,0,0,0,0,0,0,14.91,14.91,0,0,0-.83-1.84v0c25.71,17,48.2,16.39,70.61,10.18C319.15,190.48,366.4,151.79,443.23,203Z"/><path class="cls-2" d="M303.39,218.79c-11.82,5.81-23.09,12.05-34.26,17.83-36.29,18.81-63.14,27-83,28.8h-.07c-11.14,1.68-18.28.37-22.84-2a14.78,14.78,0,0,1-4.56-4.33c-8.42-12.77,13.82-33,20.65-38.78l.13-.11c.34-.26.68-.54,1-.84a2.19,2.19,0,0,0,.25-.2l.26-.21.11-.09.14-.11,0,0S173,261.59,303.39,218.79Z"/><path class="cls-1" d="M127.19,196.28s-25.71,42.43-48.81,44l.53,4.06S97.18,247.43,127.19,196.28Z"/><path class="cls-2" d="M201.66,195.34a18,18,0,0,1-.83-1.84A14.91,14.91,0,0,1,201.66,195.34Z"/><path class="cls-1" d="M187.71,198.73a.32.32,0,0,1-.06-.08v0a.1.1,0,0,1,0,.08S187.71,198.72,187.71,198.73Z"/><path class="cls-2" d="M309.9,186.23c-.33.17-3.95,2-9.72,4.33l-.25.1c-2.38,1-5.1,2-8.11,3.11l-1.14.42c-17.4,6.19-43.53,12.92-65.22,7.81a49.36,49.36,0,0,1-15.2-6.23.18.18,0,0,1-.1-.06,41.68,41.68,0,0,1-4.86-3.59c-21.25-18.18-47-29.4-57.09-33.39-.85-.31-1.57-.6-2.17-.83a14.66,14.66,0,0,1-1.56-.85l.56,0a26,26,0,0,1-5.42-3.9c-.24-.25-.46-.48-.63-.68s-.12-.13-.17-.2c-.3-.33-.49-.57-.55-.64s0,0,0,0h0A56.85,56.85,0,0,0,159.19,157a3.1,3.1,0,0,0,.43,0c.36,0,.73,0,1.09.06h.4l.5,0c.38,0,.72,0,1,.07,18.38,1.22,46.45,6.41,66.32,25.29C249.55,202,308.41,186.62,309.9,186.23Z"/><path class="cls-2" d="M138.27,151.59v0s0,0,0,0Z"/><path class="cls-2" d="M148.21,158.73l-.12,0a13.4,13.4,0,0,1-2.05-.8,14.66,14.66,0,0,1-1.56-.85,24.1,24.1,0,0,1-4.86-3.92c-.24-.25-.46-.48-.63-.68s-.12-.13-.17-.2c-.3-.33-.49-.57-.55-.64l4.89,3.82,8.29,2.37S153.74,160.37,148.21,158.73Z"/><path class="cls-2" d="M138.27,151.61s3.41,6.79,22.43,12.53,2.44-3.46,2.44-3.46l-20.28-6Z"/></g></g></svg>