<svg xmlns="http://www.w3.org/2000/svg" xmlns:xlink="http://www.w3.org/1999/xlink" viewBox="0 0 1470.57 407.75"><defs><style>.cls-1{fill:#fcfcfc;}.cls-2{fill:url(#Degradado_sin_nombre_11);}.cls-3{fill:url(#Degradado_sin_nombre_11-2);}.cls-4{fill:url(#Degradado_sin_nombre_11-3);}.cls-5{fill:url(#Degradado_sin_nombre_11-4);}.cls-6{fill:url(#Degradado_sin_nombre_11-5);}.cls-7{fill:url(#Degradado_sin_nombre_11-6);}.cls-8{fill:url(#Degradado_sin_nombre_11-7);}.cls-9{fill:url(#Degradado_sin_nombre_11-8);}.cls-10{fill:url(#Degradado_sin_nombre_11-9);}.cls-11{fill:url(#Degradado_sin_nombre_11-10);}</style><linearGradient id="Degradado_sin_nombre_11" x1="-13.24" y1="331.15" x2="1373.11" y2="311.39" gradientUnits="userSpaceOnUse"><stop offset="0" stop-color="#e2be4f"/><stop offset="0.32" stop-color="#d7af44"/><stop offset="1" stop-color="#c08f2c"/></linearGradient><linearGradient id="Degradado_sin_nombre_11-2" x1="-13.22" y1="332.85" x2="1373.14" y2="313.08" xlink:href="#Degradado_sin_nombre_11"/><linearGradient id="Degradado_sin_nombre_11-3" x1="-13.19" y1="334.92" x2="1373.17" y2="315.16" xlink:href="#Degradado_sin_nombre_11"/><linearGradient id="Degradado_sin_nombre_11-4" x1="-13.16" y1="337.12" x2="1373.2" y2="317.35" xlink:href="#Degradado_sin_nombre_11"/><linearGradient id="Degradado_sin_nombre_11-5" x1="-13.13" y1="338.71" x2="1373.22" y2="318.95" xlink:href="#Degradado_sin_nombre_11"/><linearGradient id="Degradado_sin_nombre_11-6" x1="-13.1" y1="341" x2="1373.25" y2="321.24" xlink:href="#Degradado_sin_nombre_11"/><linearGradient id="Degradado_sin_nombre_11-7" x1="-13.06" y1="343.72" x2="1373.29" y2="323.96" xlink:href="#Degradado_sin_nombre_11"/><linearGradient id="Degradado_sin_nombre_11-8" x1="-13.03" y1="346.03" x2="1373.32" y2="326.26" xlink:href="#Degradado_sin_nombre_11"/><linearGradient id="Degradado_sin_nombre_11-9" x1="-12.99" y1="348.68" x2="1373.36" y2="328.91" xlink:href="#Degradado_sin_nombre_11"/><linearGradient id="Degradado_sin_nombre_11-10" x1="-12.97" y1="350.24" x2="1373.38" y2="330.48" xlink:href="#Degradado_sin_nombre_11"/></defs><g id="Capa_2" data-name="Capa 2"><g id="Capa_1-2" data-name="Capa 1"><path class="cls-1" d="M2.4,156.2q3-6.6,7.2-17t8.8-22.5Q23,104.6,27.8,91.9t9-24.1Q41,56.4,44.1,47.4t4.5-13.8A56,56,0,0,0,27,49.4Q18,60,13.4,76A20.77,20.77,0,0,1,5,70.3,20.54,20.54,0,0,1,0,60,44.4,44.4,0,0,1,7.5,43.2a50.91,50.91,0,0,1,13.9-13,67.32,67.32,0,0,1,19.4-8.3A92.43,92.43,0,0,1,64.4,19a88.35,88.35,0,0,1,29.4,4.7,69.3,69.3,0,0,1,23,13.1,59.27,59.27,0,0,1,15,20.2,62.24,62.24,0,0,1,5.4,26.2,98.8,98.8,0,0,1-7.2,37.4A105.12,105.12,0,0,1,110.5,152,96,96,0,0,1,82,173.7a75.05,75.05,0,0,1-34,8.1q-16.39,0-28.1-6.5A40.67,40.67,0,0,1,2.4,156.2ZM73,29a63.47,63.47,0,0,0-19,2.8,84.3,84.3,0,0,1,14.6,6.7,56.5,56.5,0,0,1,8,5.5,85.63,85.63,0,0,0-4.7,7.8q-3.11,5.6-7.2,13.6T56,82.9q-4.61,9.5-9,19.5-11.4,25.39-16.5,40t-5.1,20.2a29,29,0,0,0,6.8,1.4,85.66,85.66,0,0,0,8.6.4,65.92,65.92,0,0,0,30.7-7.5,84.94,84.94,0,0,0,25.4-20.1,96.21,96.21,0,0,0,17.2-29.3,98.58,98.58,0,0,0,6.3-35.1q0-20.6-12.8-32T73,29Z"/><path class="cls-1" d="M215.4,83.8a68.56,68.56,0,0,1-4.4,21.3,46.48,46.48,0,0,1-10.3,15.6,74.53,74.53,0,0,1-16.3,12.1A177.72,177.72,0,0,1,162,143.2c0,.8,0,1.63-.1,2.5s-.1,1.77-.1,2.7a37.78,37.78,0,0,0,.4,5.4,21.25,21.25,0,0,0,1.4,5.2,10,10,0,0,0,2.8,3.9,6.94,6.94,0,0,0,4.6,1.5,25.07,25.07,0,0,0,10.6-2.4,55.41,55.41,0,0,0,9.9-5.9,80,80,0,0,0,8.8-7.6q4.09-4.09,7.3-7.5a40.26,40.26,0,0,1,3.4,3.4,96.38,96.38,0,0,1-19.7,19.9q-10.7,7.9-20.3,10.1-13.8-1.6-21.5-10.1a29.48,29.48,0,0,1-7.7-20.5,63.9,63.9,0,0,1,2.3-16.7,82,82,0,0,1,6.4-16.4,94.12,94.12,0,0,1,9.6-14.9,79.21,79.21,0,0,1,11.8-12.2,57,57,0,0,1,13-8.2,32.35,32.35,0,0,1,13.3-3Q207.4,73.6,215.4,83.8Zm-13.8,6.6a29.61,29.61,0,0,0-11.2,4.4,46.75,46.75,0,0,0-10.9,9.6,76.34,76.34,0,0,0-9.3,14,80.66,80.66,0,0,0-6.6,17.2,89.17,89.17,0,0,0,26.6-19.7Q200.81,104.2,201.6,90.4Z"/><path class="cls-1" d="M229,129.2q7.4-29.59,14.5-43.3t14.9-13.7q5.6,0,13.4,5.4Q265.4,89,261.9,96.5a79.33,79.33,0,0,0-5.1,13.7q-3.41,12-7.2,24.9t-7.5,24.7q-3.71,11.8-6.8,21.3t-4.9,14.5a178.48,178.48,0,0,1-8.7,20,68.08,68.08,0,0,1-8.9,13.4,30.44,30.44,0,0,1-9.7,7.6A25.74,25.74,0,0,1,192,239a42.4,42.4,0,0,1-8.7-.9,49.62,49.62,0,0,1-8.1-2.4,30.1,30.1,0,0,1-6.8-3.7,22.81,22.81,0,0,1-4.8-4.6,5.38,5.38,0,0,1,1.3-2.7,4,4,0,0,1,2.1-1.5,21.84,21.84,0,0,0,7.1,5.2A22.3,22.3,0,0,0,183,230a18,18,0,0,0,11.3-3.8q4.9-3.8,9.9-14.7T215,180.9Q220.79,161.21,229,129.2Zm32.6-72.8a16.37,16.37,0,0,1,.6-3.4,9.2,9.2,0,0,1-2.4-6.8,33.59,33.59,0,0,1,.5-5q.49-3.2,1.4-6.9c.6-2.47,1.26-5,2-7.5a57.29,57.29,0,0,1,2.3-6.6,17.53,17.53,0,0,1,5.9,1.3,46.18,46.18,0,0,1,7.1,3.4,48,48,0,0,1,6.6,4.6,27.35,27.35,0,0,1,4.6,4.7q-2.4,2.2-6,6.2t-7,8.3q-3.4,4.3-6.2,8a26,26,0,0,0-3.4,5.3,7.93,7.93,0,0,1-4.2-2.1A4.87,4.87,0,0,1,261.6,56.4Z"/><path class="cls-1" d="M340.8,85.8a19,19,0,0,1,4.7.7,25.43,25.43,0,0,1,4.9,1.8,20.91,20.91,0,0,1,3.7,2.3c1,.8,1.5,1.53,1.5,2.2q-4,8.4-7.4,16.9T342.4,126a136.67,136.67,0,0,0-3.7,14.6,63.77,63.77,0,0,0-1.3,11.8,30.63,30.63,0,0,0,1.2,9.3,9,9,0,0,0,4,5.3,20.69,20.69,0,0,1-6.2,2.6,26.93,26.93,0,0,1-6.8,1q-10.8,0-10.8-14.8,0-11.4,7.6-31.2a124.85,124.85,0,0,1-19.8,31.47,63.33,63.33,0,0,1-10.9,10.05,25.69,25.69,0,0,1-10.1,4.68q-7.41,0-12-6.73T269,146.9a65.89,65.89,0,0,1,4.8-23.7,106.14,106.14,0,0,1,12.3-23.09,87.3,87.3,0,0,1,16.3-17.78q8.79-7.12,17-7.13a15.83,15.83,0,0,1,4.5,2.4,35.55,35.55,0,0,1,4.8,4.18,32.89,32.89,0,0,1,3.9,4.89A10.78,10.78,0,0,1,334.4,91q-8,1.2-16.5,7.78a81,81,0,0,0-15.4,15.87,92.77,92.77,0,0,0-11.3,19.85,51.5,51.5,0,0,0-4.4,19.75q0,3.79,2.8,4.79,5.79-1.2,13.4-9.9t18.4-26.9q2-3.6,4.5-8T331,105q2.6-4.8,5.1-9.7T340.8,85.8Z"/><path class="cls-1" d="M493.39,77.8a17,17,0,0,1,6.7,1.5,11.93,11.93,0,0,1,5.1,3.7q-7.4,15-12.5,25.4t-8.8,18.3q-3.7,7.9-6.5,14.1t-5.6,12.8q-4.8,11.21-9,22.7t-7.5,22.6q-3.3,11.1-5.8,21.4t-3.7,18.9c-.53.53-1.73.8-3.6.8a4.73,4.73,0,0,1-2.3-.6,2.37,2.37,0,0,1-1.3-1.4,5.69,5.69,0,0,0-1.5-2,6.12,6.12,0,0,0-2.7-1.4,4.73,4.73,0,0,1-2.7-1.9,8.83,8.83,0,0,1-1.5-3.3q2.21-35.21,21-79.6a155.83,155.83,0,0,1-12.1,11.1q-5.1,4.09-7.7,4.5-2.81,0-6.1-2.9a38.28,38.28,0,0,1-6.2-7.1,44.08,44.08,0,0,1-4.8-9.1,24.81,24.81,0,0,1-1.9-8.9q0-5.21,2.8-13.9a130.84,130.84,0,0,1,7-17.3q16-31.8,47.6-37.6a21.23,21.23,0,0,1,5.7,1.7,23.3,23.3,0,0,1,9.4,7.7,11.78,11.78,0,0,1,2.1,4.6,7.78,7.78,0,0,1,2.8-3Q492.19,77.8,493.39,77.8Zm-35.8,53.4q6.6-9,11.6-17.2t8.4-14.6q4-7.4,7-14a8,8,0,0,0-3.3-1.2,22.75,22.75,0,0,0-4.9-.6q-5.2,0-12.3,5.2a57.55,57.55,0,0,0-12.7,13,122.89,122.89,0,0,0-15.3,27.4q-5.29,13.61-5.3,25.2c0,.93.6,1.4,1.8,1.4a120.22,120.22,0,0,0,13.2-11A111.45,111.45,0,0,0,457.59,131.2Z"/><path class="cls-1" d="M558.19,162.2a15.56,15.56,0,0,1-5.1-8,32,32,0,0,1-1.3-8.2,22.79,22.79,0,0,1,1-7.2c-.53,0-1.73,1.07-3.6,3.19s-3.9,4.65-6.1,7.58-4.37,5.78-6.5,8.57-3.73,4.85-4.8,6.18a31.61,31.61,0,0,1-4.9,4.39,9.6,9.6,0,0,1-3.7,1.79,22.15,22.15,0,0,1-6.7-1.11,27.3,27.3,0,0,1-6.6-3.12,23.09,23.09,0,0,1-5.4-4.83,15.21,15.21,0,0,1-3.1-6.44q0-5.59.3-9.2A52.36,52.36,0,0,1,503,138a156.32,156.32,0,0,1,5.3-17.2,185.84,185.84,0,0,1,8.1-18.9,131.76,131.76,0,0,1,10.3-17.4,52.85,52.85,0,0,1,12.1-12.7,34.41,34.41,0,0,1,4.2.3,27.46,27.46,0,0,1,4.9,1.1,37.45,37.45,0,0,1,4.8,1.9,12.2,12.2,0,0,1,3.9,2.9q-1.8,2-9.1,13.4t-16.3,32.8a68.21,68.21,0,0,0-2.4,6.4c-.93,2.8-1.87,5.73-2.8,8.8s-1.7,6.07-2.3,9a37,37,0,0,0-.9,7,4.62,4.62,0,0,0,.5,2.4,6.86,6.86,0,0,0,.9,1.2q3-1.2,7.6-6.6t12.8-16.6q2-2.81,4.7-6.4t5.5-7.7q2.81-4.1,5.3-8.5a57.85,57.85,0,0,0,4.1-8.8q.79-2.4,2.1-5.7a69.15,69.15,0,0,1,3.2-6.9,79,79,0,0,1,4.4-7.3,40.7,40.7,0,0,1,5.9-6.9,28.68,28.68,0,0,1,5.6.6,47.43,47.43,0,0,1,5.7,1.5,28.61,28.61,0,0,1,4.7,2,10.41,10.41,0,0,1,3,2.3q-3.6,8.81-8,17.4t-8.2,16.9a144.28,144.28,0,0,0-6.4,16.5,52.91,52.91,0,0,0-2.6,16,33.29,33.29,0,0,0,.7,7.3,39.86,39.86,0,0,0,1.5,5.2,36.91,36.91,0,0,0,1.5,3.5,5.51,5.51,0,0,1,.7,2.4c0,.13-.13.33-.4.6a.59.59,0,0,1-.4.2,14.36,14.36,0,0,1-3.6-.6,43.92,43.92,0,0,1-4.9-1.7c-1.8-.73-3.6-1.57-5.4-2.5A52.58,52.58,0,0,1,558.19,162.2Z"/><path class="cls-1" d="M673.19,83.8a68.56,68.56,0,0,1-4.4,21.3,46.48,46.48,0,0,1-10.3,15.6,74.53,74.53,0,0,1-16.3,12.1,177.72,177.72,0,0,1-22.4,10.4c0,.8,0,1.63-.1,2.5s-.1,1.77-.1,2.7a37.78,37.78,0,0,0,.4,5.4,21.25,21.25,0,0,0,1.4,5.2,10,10,0,0,0,2.8,3.9,6.94,6.94,0,0,0,4.6,1.5,25.07,25.07,0,0,0,10.6-2.4,55.41,55.41,0,0,0,9.9-5.9,80,80,0,0,0,8.8-7.6q4.1-4.09,7.3-7.5a40.26,40.26,0,0,1,3.4,3.4,96.38,96.38,0,0,1-19.7,19.9q-10.7,7.9-20.3,10.1-13.8-1.6-21.5-10.1a29.48,29.48,0,0,1-7.7-20.5,63.9,63.9,0,0,1,2.3-16.7,82,82,0,0,1,6.4-16.4,94.12,94.12,0,0,1,9.6-14.9,79.21,79.21,0,0,1,11.8-12.2,57,57,0,0,1,13-8.2,32.35,32.35,0,0,1,13.3-3Q665.19,73.6,673.19,83.8Zm-13.8,6.6a29.61,29.61,0,0,0-11.2,4.4,46.75,46.75,0,0,0-10.9,9.6,76.34,76.34,0,0,0-9.3,14,80.66,80.66,0,0,0-6.6,17.2A89.17,89.17,0,0,0,648,115.9Q658.59,104.2,659.39,90.4Z"/><path class="cls-1" d="M741.79,90q-1-1.2-1.8-5.1a33.58,33.58,0,0,1-.8-6.7,66.15,66.15,0,0,0,10,.8H758q3-5.93,6.5-11.77t6.8-10.67a90.31,90.31,0,0,1,6.2-8.21A23.34,23.34,0,0,1,782,44a23.94,23.94,0,0,1,5.1.7,62.78,62.78,0,0,1,6.3,1.8,62.08,62.08,0,0,1,5.8,2.3,10.48,10.48,0,0,1,3.6,2.4q-6,7.54-10.3,14T783.19,80h8.1a58.67,58.67,0,0,0,8.3-.6,7.47,7.47,0,0,1,1.6,2.5,8.26,8.26,0,0,1,.6,3.1Q792,88.8,778,88.8q-5,9.63-8.9,19.15t-6.6,18.35a160.39,160.39,0,0,0-4.2,16.64,75.25,75.25,0,0,0-1.5,14q0,8.82,6.6,9.82a46,46,0,0,0,11.4-3,37.82,37.82,0,0,0,9.6-5.6,8.42,8.42,0,0,1,1.4,3,21.39,21.39,0,0,1-4.1,4.17q-2.91,2.38-6.3,4.67a59.84,59.84,0,0,1-6.6,3.87,17.13,17.13,0,0,1-4.8,1.79,26.78,26.78,0,0,1-10-2,41.39,41.39,0,0,1-9.1-5,28.8,28.8,0,0,1-6.7-6.71,12.62,12.62,0,0,1-2.6-7.3,71.29,71.29,0,0,1,1.3-12.12q1.29-7.31,3.7-15.92t5.6-18q3.19-9.41,7-18.62Z"/><path class="cls-1" d="M854.79,162.2a15.44,15.44,0,0,1-5.1-8,32,32,0,0,1-1.3-8.2,22.79,22.79,0,0,1,1-7.2c-.54,0-1.74,1.07-3.6,3.19s-3.9,4.65-6.1,7.58-4.37,5.78-6.5,8.57-3.74,4.85-4.8,6.18a32.07,32.07,0,0,1-4.9,4.39,9.67,9.67,0,0,1-3.7,1.79,22.21,22.21,0,0,1-6.71-1.11,27.06,27.06,0,0,1-6.59-3.12,23.34,23.34,0,0,1-5.41-4.83A15.19,15.19,0,0,1,798,155c0-3.73.09-6.8.3-9.2a53.59,53.59,0,0,1,1.29-7.8,156.56,156.56,0,0,1,5.31-17.2,185.84,185.84,0,0,1,8.1-18.9,130.68,130.68,0,0,1,10.3-17.4,52.66,52.66,0,0,1,12.1-12.7,34.26,34.26,0,0,1,4.19.3,27.37,27.37,0,0,1,4.91,1.1,38.64,38.64,0,0,1,4.8,1.9,12.2,12.2,0,0,1,3.9,2.9q-1.8,2-9.11,13.4t-16.29,32.8a68.21,68.21,0,0,0-2.4,6.4c-.94,2.8-1.87,5.73-2.81,8.8s-1.69,6.07-2.29,9a37,37,0,0,0-.9,7,4.52,4.52,0,0,0,.5,2.4,6.86,6.86,0,0,0,.9,1.2q3-1.2,7.6-6.6t12.8-16.6c1.33-1.87,2.89-4,4.7-6.4s3.63-5,5.5-7.7,3.63-5.57,5.3-8.5a58.82,58.82,0,0,0,4.1-8.8q.8-2.4,2.1-5.7a69,69,0,0,1,3.19-6.9,79.2,79.2,0,0,1,4.41-7.3,40.25,40.25,0,0,1,5.9-6.9,28.68,28.68,0,0,1,5.6.6,47.43,47.43,0,0,1,5.7,1.5,29,29,0,0,1,4.7,2,10.41,10.41,0,0,1,3,2.3q-3.6,8.81-8,17.4t-8.2,16.9a142.45,142.45,0,0,0-6.4,16.5,52.6,52.6,0,0,0-2.6,16,33.29,33.29,0,0,0,.7,7.3,37.19,37.19,0,0,0,3,8.7,5.61,5.61,0,0,1,.69,2.4q0,.2-.39.6a.61.61,0,0,1-.4.2,14.22,14.22,0,0,1-3.6-.6,43.23,43.23,0,0,1-4.9-1.7c-1.8-.73-3.6-1.57-5.4-2.5A51.41,51.41,0,0,1,854.79,162.2Z"/><path class="cls-1" d="M948,131.4a54.45,54.45,0,0,1,4.7-22.1,67.78,67.78,0,0,1,12.4-19,63.58,63.58,0,0,1,17.6-13.4,44.22,44.22,0,0,1,20.5-5.1q10.4,0,16,5.2t5.6,14.8a30.47,30.47,0,0,1-1.3,8.9,32.58,32.58,0,0,1-3.4,7.7,19.61,19.61,0,0,1-4.9,5.5,9.31,9.31,0,0,1-5.6,2.1,9.51,9.51,0,0,1-4.9-1.5,12.74,12.74,0,0,1-4.1-3.9Q1014,98.41,1014,88.4q0-5.81-4.6-5.8-4,0-10,3.8a56.49,56.49,0,0,0-11.6,10,68.71,68.71,0,0,0-13.1,21.3,67.67,67.67,0,0,0-4.5,24.5q0,16.2,7.2,19.4a36.69,36.69,0,0,0,7-1.8,74.23,74.23,0,0,0,8.6-3.7q4.6-2.29,9.5-5.3t9.5-6.4a5.81,5.81,0,0,1,2,4,75.25,75.25,0,0,1-7.8,8.2,85.88,85.88,0,0,1-9.2,7.3,83.42,83.42,0,0,1-9.3,5.6,16.35,16.35,0,0,1-20.3-1.2,36.35,36.35,0,0,1-10.1-9.1,46.15,46.15,0,0,1-9.3-27.8Z"/><path class="cls-1" d="M1099.78,85.8a19,19,0,0,1,4.7.7,25.43,25.43,0,0,1,4.9,1.8,20.55,20.55,0,0,1,3.7,2.3c1,.8,1.5,1.53,1.5,2.2q-4,8.4-7.4,16.9t-5.8,16.3a139.11,139.11,0,0,0-3.7,14.6,63.77,63.77,0,0,0-1.3,11.8,30.63,30.63,0,0,0,1.2,9.3,9,9,0,0,0,4,5.3,20.69,20.69,0,0,1-6.2,2.6,26.87,26.87,0,0,1-6.8,1q-10.8,0-10.8-14.8,0-11.4,7.6-31.2a121.35,121.35,0,0,1-9.2,17.23,123.46,123.46,0,0,1-10.6,14.24,63,63,0,0,1-10.9,10.05,25.62,25.62,0,0,1-10.1,4.68q-7.39,0-12-6.73T1028,146.9a65.89,65.89,0,0,1,4.8-23.7,106.14,106.14,0,0,1,12.3-23.09,87.3,87.3,0,0,1,16.3-17.78q8.8-7.12,17-7.13a15.83,15.83,0,0,1,4.5,2.4,34.37,34.37,0,0,1,4.8,4.18,32.89,32.89,0,0,1,3.9,4.89,10.49,10.49,0,0,1,1.8,4.29q-8,1.2-16.5,7.78a81,81,0,0,0-15.4,15.87,92.77,92.77,0,0,0-11.3,19.85,51.68,51.68,0,0,0-4.4,19.75q0,3.79,2.8,4.79,5.81-1.2,13.4-9.9t18.4-26.9q2-3.6,4.5-8t5.1-9.2q2.6-4.8,5.1-9.7T1099.78,85.8Z"/><path class="cls-1" d="M1141.58,168a100,100,0,0,0,18-15.9,155.84,155.84,0,0,0,16-21,148.1,148.1,0,0,0,12.2-23.5,106.54,106.54,0,0,0,6.8-23.4A3.18,3.18,0,0,0,1192,81q-2.81,0-7.7,4.9a133.52,133.52,0,0,0-10.8,12.5q-5.89,7.6-12,17t-11.1,18.7q-5,9.3-8.5,17.4t-3.9,13.1c-1.33,0-2.47-1.33-3.4-4a7.1,7.1,0,0,0-1.4-2.1,22.37,22.37,0,0,0-3.2-2.7,17.5,17.5,0,0,1-2-1.9,9,9,0,0,1-1.4-1.9,12.46,12.46,0,0,1-.8-5.2,135.27,135.27,0,0,1,3-26.6,288.23,288.23,0,0,1,7.9-30.2,307.62,307.62,0,0,1,25.2-57.6,144.39,144.39,0,0,1,14.3-21q7.2-8.6,13.6-11.4a31.74,31.74,0,0,1,4.8,2,59.18,59.18,0,0,1,5.6,3.2c1.87,1.2,3.63,2.4,5.3,3.6a21.57,21.57,0,0,1,3.7,3.2q-22,17.81-38.1,45.7t-26.3,65.9a180.43,180.43,0,0,1,12.6-20.1,176.37,176.37,0,0,1,13.9-17.1,85.16,85.16,0,0,1,13.2-11.8q6.3-4.39,10.5-4.4a19.85,19.85,0,0,1,6.2,2.8,25,25,0,0,1,5.4,4.9,30.78,30.78,0,0,1,4,6.2,21,21,0,0,1,2,6.9,71.72,71.72,0,0,1-2.9,17.9,112.52,112.52,0,0,1-7.2,18.7,144.17,144.17,0,0,1-10.2,17.6,100.54,100.54,0,0,1-12,14.7,66.8,66.8,0,0,1-12.6,10.1q-6.3,3.8-11.9,3.8a25.23,25.23,0,0,1-4.9-.5,22.92,22.92,0,0,1-4.6-1.4,15.77,15.77,0,0,1-3.4-1.9A2.69,2.69,0,0,1,1141.58,168Z"/><path class="cls-1" d="M1289.18,83.8a68.84,68.84,0,0,1-4.4,21.3,46.63,46.63,0,0,1-10.3,15.6,74.53,74.53,0,0,1-16.3,12.1,177.72,177.72,0,0,1-22.4,10.4c0,.8,0,1.63-.1,2.5s-.1,1.77-.1,2.7a37.78,37.78,0,0,0,.4,5.4,20.82,20.82,0,0,0,1.4,5.2,9.88,9.88,0,0,0,2.8,3.9,6.94,6.94,0,0,0,4.6,1.5,25.07,25.07,0,0,0,10.6-2.4,56.12,56.12,0,0,0,9.9-5.9,80.92,80.92,0,0,0,8.8-7.6q4.1-4.09,7.3-7.5a41.82,41.82,0,0,1,3.4,3.4,96.38,96.38,0,0,1-19.7,19.9q-10.71,7.9-20.3,10.1-13.8-1.6-21.5-10.1a29.44,29.44,0,0,1-7.7-20.5,63.48,63.48,0,0,1,2.3-16.7,81.41,81.41,0,0,1,6.4-16.4,94.12,94.12,0,0,1,9.6-14.9,78.75,78.75,0,0,1,11.8-12.2,57,57,0,0,1,13-8.2,32.32,32.32,0,0,1,13.3-3Q1281.17,73.6,1289.18,83.8Zm-13.8,6.6a29.55,29.55,0,0,0-11.2,4.4,46.75,46.75,0,0,0-10.9,9.6,76.34,76.34,0,0,0-9.3,14,80.66,80.66,0,0,0-6.6,17.2,89.3,89.3,0,0,0,26.6-19.7Q1274.57,104.2,1275.38,90.4Z"/><path class="cls-1" d="M1298.18,153.8q0-8.81,4.2-24.7t11.8-37.1q12.39-33.79,23.3-56.3T1358.78.6a24.64,24.64,0,0,1,5.9,2c2.33,1.07,4.63,2.23,6.9,3.5a58.55,58.55,0,0,1,6.1,3.9,15.75,15.75,0,0,1,3.5,3.2,246.21,246.21,0,0,0-27.4,39.6,324.33,324.33,0,0,0-21.6,48.6,395.76,395.76,0,0,0-12.8,42.5q-4.41,18.9-4.4,31.5v4.2a6.26,6.26,0,0,0,.2,1.6,15.61,15.61,0,0,1-4.8-1.4,5.14,5.14,0,0,1-2.6-2.4,11.22,11.22,0,0,0-2.2-2.9,23.4,23.4,0,0,0-3.2-2.9q-1.8-1.2-3-6.3A50.34,50.34,0,0,1,1298.18,153.8Z"/><path class="cls-1" d="M1345.38,153.8q0-8.81,4.2-24.7t11.8-37.1q12.39-33.79,23.29-56.3T1406,.6a24.55,24.55,0,0,1,5.91,2c2.33,1.07,4.63,2.23,6.89,3.5a57.69,57.69,0,0,1,6.11,3.9,16,16,0,0,1,3.5,3.2A246.26,246.26,0,0,0,1401,52.8a325.36,325.36,0,0,0-21.59,48.6,393.48,393.48,0,0,0-12.8,42.5q-4.41,18.9-4.41,31.5v4.2a6.28,6.28,0,0,0,.21,1.6,15.61,15.61,0,0,1-4.8-1.4,5.2,5.2,0,0,1-2.61-2.4,11,11,0,0,0-2.2-2.9,22.83,22.83,0,0,0-3.19-2.9q-1.8-1.2-3-6.3A49.78,49.78,0,0,1,1345.38,153.8Z"/><path class="cls-1" d="M1415.57,173.6a25.38,25.38,0,0,1-18.2-10q-6.8-8.81-6.8-22.4a61.68,61.68,0,0,1,2.4-16.6,80.16,80.16,0,0,1,6.8-16.7,93.57,93.57,0,0,1,10.4-15.3,75.75,75.75,0,0,1,13-12.4q11-8.2,20.6-8.2,6.4,3.41,12.6,14.2a13.92,13.92,0,0,0,1.8-.1,13.92,13.92,0,0,1,1.8-.1q10.6,0,10.6,18.8a69.59,69.59,0,0,1-4.1,23.9,72.38,72.38,0,0,1-11.4,20.5,68.08,68.08,0,0,1-17.4,15.5A68.93,68.93,0,0,1,1415.57,173.6Zm10.2-63a91.64,91.64,0,0,0-6.4,10,95.69,95.69,0,0,0-5.2,10.9,74.39,74.39,0,0,0-3.4,10.6,40.2,40.2,0,0,0-1.2,9.1,26.62,26.62,0,0,0,1.6,9.2q1.61,4.4,3.6,5a43.52,43.52,0,0,0,16.5-7.5,54.35,54.35,0,0,0,13-13.7,68.13,68.13,0,0,0,8.6-18.6,77.2,77.2,0,0,0,3.1-22.2,43.85,43.85,0,0,0-.6-8.2,15.21,15.21,0,0,0-2-5.2,43,43,0,0,0-15.7,8.4A81.63,81.63,0,0,0,1425.77,110.6Z"/><path class="cls-2" d="M7.27,405.86h8.84c5.05,0,5.05-2.84,5.05-6.63V260.32c0-4.1,0-6.63-4.42-6.63H7.27v-1.26H66.62v1.26H57.78c-5.05,0-5.05,2.84-5.05,6.63v66.3H114v-66.3c0-4.1,0-6.63-4.42-6.63h-9.47v-1.26h59.35v1.26H150.6c-5,0-5,2.84-5,6.63V399.23c0,4.1,0,6.63,4.42,6.63h9.47v1.26H100.09v-1.26h8.84c5,0,5-2.84,5-6.63V329.14H52.73v70.09c0,4.1,0,6.63,4.42,6.63h9.47v1.26H7.27Z"/><path class="cls-3" d="M154.7,405.86H167c5,0,7.89-3.16,9.15-6.63L233,250.53l56.19,148.7c1.27,3.79,3.48,6.63,7.89,6.63h7.58v1.26H242.47v-1.26h7.89c5,0,6.32-3.16,5-6.63L239.31,356H195.75l-16.42,43.25c-1.26,3.79-.63,6.63,3.79,6.63h18.94v1.26H154.7Zm83.67-52.09-20.84-55.25-21.15,55.25Z"/><path class="cls-4" d="M312.24,407.12v-1.26h8.84c5.05,0,5.05-2.84,5.05-6.63V260.32c0-4.1,0-6.63-4.42-6.63h-9.47v-1.26h59.35c28.41,0,55.25,10.1,55.25,37.25,0,17.05-11.68,29.36-27.78,33.78,23.67,2.21,43.56,15.47,43.56,41.36,0,30-28.73,42.3-60,42.3Zm45.46-84h5.68c21.47,0,34.73-11.68,34.73-33.47,0-21.47-12.63-34.73-33.78-34.73H357.7Zm16.1,81.45c24.31,0,38.83-15.47,38.83-39.78,0-24.94-15.78-39.15-40.41-39.15H357.7V404.6Z"/><path class="cls-5" d="M451.78,407.12v-1.26h8.84c5.05,0,5.05-2.84,5.05-6.63V260.32c0-4.1,0-6.63-4.42-6.63h-9.47v-1.26h59.35v1.26h-8.84c-5.05,0-5.05,2.84-5.05,6.63V404.6h23c17.68,0,29.05-10.11,37.57-24.63l-6,27.15Z"/><path class="cls-6" d="M563.22,407.12v-1.26h8.84c5.05,0,5.05-2.84,5.05-6.63V260.32c0-4.1,0-6.63-4.42-6.63h-9.47v-1.26h99.45l9.15,38.51h-1c-9.47-22.09-25.88-36-56.82-36h-5.37v72.3H631.1c4.1,0,6.62,0,6.62-4.42V305.78H639v45.46h-1.27V334.83c0-5.05-2.84-5.05-6.62-5.05H608.68V404.6h7.58c26.83,0,45.77-13,56.82-36.31h.63l-9.78,38.83Z"/><path class="cls-7" d="M790.2,399.23c0,4.1,0,6.63,4.42,6.63h9.47v1.26H744.74v-1.26h8.84c5,0,5-2.84,5-6.63V260.32c0-4.1,0-6.63-4.42-6.63h-9.47v-1.26H806.3c35.05,0,64.41,12.94,64.41,47,0,33.15-36.62,47-65.67,47H790.2ZM795.57,344c27.47,0,42.3-17.36,42.3-44.51,0-27.47-14.52-44.52-42.3-44.52H790.2v89Z"/><path class="cls-8" d="M965.42,251.8a78,78,0,1,1-78,78A77.94,77.94,0,0,1,965.42,251.8Zm2.84,153.74c24.31,0,37.57-39.46,37.57-72,0-36-15.79-79.24-42.62-79.24-24,0-37.57,39.15-37.57,71.67C925.64,361.66,942.37,405.54,968.26,405.54Z"/><path class="cls-9" d="M1057,405.86h8.84c5,0,5-2.84,5-6.63V260.32c0-4.1,0-6.63-4.42-6.63H1057v-1.26h55.56c41.36,0,67.88,12.94,67.88,47,0,29.67-32.52,45.77-59,45.77,26.52,0,36.94,21.47,52.41,47.36,3.79,6.94,9.47,13.26,14.52,13.26h8.84v1.26h-51.46l-39.14-60.93h-4.11v53c0,4.1,0,6.63,4.42,6.63h9.47v1.26H1057ZM1102.43,255v89H1105c26.83,0,40.72-13.89,40.72-44.51S1132.42,255,1105,255Z"/><path class="cls-10" d="M1270.06,252.43h111.76l6,25.25h-1.26c-7.58-13.25-25.89-24-41-24h-3.79V399.23c0,4.1,0,6.63,4.42,6.63h9.47v1.26h-59.35v-1.26h8.84c5.05,0,5.05-2.84,5.05-6.63V253.69h-3.48c-17.67,0-31.88,9.47-40.72,24h-1.26Z"/><path class="cls-11" d="M1403.92,405.86h8.84c5,0,5-2.84,5-6.63V260.32c0-4.1,0-6.63-4.42-6.63h-9.47v-1.26l59.35-.32v1.27h-8.84c-5,0-5,2.84-5,6.63v138.9c0,4.11,0,6.63,4.42,6.63h9.47v1.27l-59.35.31Z"/></g></g></svg>