<svg xmlns="http://www.w3.org/2000/svg" viewBox="0 0 1717.24 452.26"><defs><style>.cls-1{fill:#fff;}.cls-2{fill:#dd4080;}</style></defs><g id="Capa_2" data-name="Capa 2"><g id="Capa_1-2" data-name="Capa 1"><path class="cls-1" d="M14.75,39.67q-7,0-10.75-3.94A13.32,13.32,0,0,1,.24,26.18a15.49,15.49,0,0,1,.44-3.33,15.25,15.25,0,0,1,1.13-3.33,35.73,35.73,0,0,0,6.73.85q4.46.25,10.4.25H39.13a213.26,213.26,0,0,0,21.58-1.05q10.31-1.07,18.17-2c5.25-.64,8.62-1,10.14-1q6.47,0,9.35,4.81a37.68,37.68,0,0,1,4.28,12.84,78.37,78.37,0,0,0-9-.52H74.78a94.2,94.2,0,0,0-11.45.7q-2.44,5.09-5.42,12T52.06,60.89q-2.88,7.55-5.51,15T42,89.28q-3.85,11.56-6.73,21.38T30.21,129q-2.19,8.49-3.75,16.21t-2.8,15.07q-11.71-1.75-19.57-14.68,1.39-5.42,3.4-11.8t4.72-14.5q2.71-8.13,6.38-18.44T27,77.42q1.74-4.89,3.67-10.22t3.76-10.58q1.83-5.23,3.32-10.13t2.53-8.92q-7.34.88-13.89,1.49T14.75,39.67Z"/><path class="cls-1" d="M60.88,142.08c.59-3.38,1.6-7.83,3.06-13.37s3.18-11.41,5.16-17.65,4.07-12.49,6.29-18.79,4.37-11.94,6.47-17a78.87,78.87,0,0,1,4-8.47,24.06,24.06,0,0,1,3.84-5.16,30,30,0,0,1,5.07,1.22A41,41,0,0,1,99.86,65a38.22,38.22,0,0,1,4.37,2.54,15.29,15.29,0,0,1,3,2.53,64.08,64.08,0,0,0-8.31,12.76,140,140,0,0,0-7.25,18.35q9.44-8.39,16.69-16.08A131.2,131.2,0,0,0,121.88,68a5.86,5.86,0,0,1,3.67-.87,14.11,14.11,0,0,1,4.71.79,5.71,5.71,0,0,1,3.15,2.18,47,47,0,0,0-3.15,16.6q0,7.69,2.28,11.54a13.44,13.44,0,0,1-2.36,4,49.09,49.09,0,0,1-4.81,5.59A28,28,0,0,1,117,101.1a28.78,28.78,0,0,1-5.42-9.35,122.38,122.38,0,0,0-14,11.27,60.37,60.37,0,0,0-9.87,12.24,74,74,0,0,0-7,15.46,210.36,210.36,0,0,0-5.51,20.8,13.46,13.46,0,0,1-3.75-1.14A31.67,31.67,0,0,1,67.09,148a29.27,29.27,0,0,1-3.93-3A8,8,0,0,1,60.88,142.08Z"/><path class="cls-1" d="M195.8,75a17.17,17.17,0,0,1,4.11.61,22,22,0,0,1,4.28,1.58,18,18,0,0,1,3.23,2c.88.7,1.31,1.34,1.31,1.92q-3.49,7.34-6.46,14.77T197.2,110.1A118.28,118.28,0,0,0,194,122.86a55.79,55.79,0,0,0-1.14,10.31,26.76,26.76,0,0,0,1,8.13,7.84,7.84,0,0,0,3.49,4.63A18.19,18.19,0,0,1,192,148.2a23.81,23.81,0,0,1-6,.87q-9.44,0-9.43-12.93,0-10,6.64-27.26a109.22,109.22,0,0,1-17.3,27.49,54.68,54.68,0,0,1-9.53,8.79,22.49,22.49,0,0,1-8.82,4.09q-6.48,0-10.49-5.88t-4-15a57.47,57.47,0,0,1,4.2-20.7A92.68,92.68,0,0,1,148,87.47a76.63,76.63,0,0,1,14.25-15.53q7.68-6.22,14.85-6.23a13.73,13.73,0,0,1,3.93,2.1,30.15,30.15,0,0,1,4.2,3.65,29,29,0,0,1,3.41,4.27,9.37,9.37,0,0,1,1.57,3.75q-7,1-14.42,6.8a71.24,71.24,0,0,0-13.46,13.86,81.3,81.3,0,0,0-9.87,17.35,45.22,45.22,0,0,0-3.85,17.26q0,3.31,2.45,4.19,5.07-1,11.71-8.65t16.08-23.51q1.74-3.15,3.93-7t4.46-8q2.26-4.2,4.45-8.48T195.8,75Z"/><path class="cls-1" d="M232.32,146.8a87.46,87.46,0,0,0,15.73-13.89,135.52,135.52,0,0,0,14-18.35A128.76,128.76,0,0,0,272.69,94a93.12,93.12,0,0,0,5.95-20.45,2.78,2.78,0,0,0-2.28-2.79q-2.44,0-6.72,4.28A117.26,117.26,0,0,0,260.2,86q-5.16,6.64-10.49,14.86T240,117.18q-4.37,8.13-7.42,15.2t-3.41,11.45c-1.17,0-2.16-1.16-3-3.5A6.31,6.31,0,0,0,225,138.5a18.92,18.92,0,0,0-2.79-2.36,14.11,14.11,0,0,1-1.75-1.66,7.71,7.71,0,0,1-1.22-1.66,10.76,10.76,0,0,1-.7-4.54A118.09,118.09,0,0,1,221.14,105,255,255,0,0,1,228,78.64a269.43,269.43,0,0,1,22-50.33A126.79,126.79,0,0,1,262.56,10q6.29-7.51,11.88-10a27.44,27.44,0,0,1,4.2,1.75,52.91,52.91,0,0,1,4.89,2.79q2.45,1.58,4.63,3.15a18.56,18.56,0,0,1,3.23,2.8Q272.17,26,258.1,50.42t-23,57.58a158,158,0,0,1,11-17.56A154.6,154.6,0,0,1,258.28,75.5a74.29,74.29,0,0,1,11.53-10.31q5.51-3.84,9.18-3.85a17.56,17.56,0,0,1,5.41,2.45,21.67,21.67,0,0,1,4.72,4.28,27.24,27.24,0,0,1,3.5,5.42,18.31,18.31,0,0,1,1.74,6,62.63,62.63,0,0,1-2.53,15.64,98.35,98.35,0,0,1-6.29,16.34,126.08,126.08,0,0,1-8.91,15.38,88,88,0,0,1-10.49,12.84,58.77,58.77,0,0,1-11,8.83,20.33,20.33,0,0,1-10.4,3.32,21.9,21.9,0,0,1-4.28-.44,20.34,20.34,0,0,1-4-1.22,14.35,14.35,0,0,1-3-1.66A2.37,2.37,0,0,1,232.32,146.8Z"/><path class="cls-1" d="M359,75a17,17,0,0,1,4.11.61,22,22,0,0,1,4.28,1.58,18.49,18.49,0,0,1,3.24,2c.87.7,1.31,1.34,1.31,1.92q-3.51,7.34-6.47,14.77t-5.07,14.24a120.68,120.68,0,0,0-3.23,12.76,55.79,55.79,0,0,0-1.14,10.31,26.76,26.76,0,0,0,1.05,8.13,7.82,7.82,0,0,0,3.5,4.63,18.38,18.38,0,0,1-5.42,2.27,23.67,23.67,0,0,1-5.94.87q-9.44,0-9.44-12.93,0-10,6.64-27.26a106.31,106.31,0,0,1-8,15.05,105.59,105.59,0,0,1-9.26,12.44,55,55,0,0,1-9.52,8.79,22.59,22.59,0,0,1-8.83,4.09q-6.46,0-10.49-5.88t-4-15a57.47,57.47,0,0,1,4.2-20.7,92.72,92.72,0,0,1,10.75-20.19,76.6,76.6,0,0,1,14.24-15.53q7.68-6.22,14.85-6.23a13.76,13.76,0,0,1,3.94,2.1,30.67,30.67,0,0,1,4.19,3.65,29,29,0,0,1,3.41,4.27,9.37,9.37,0,0,1,1.57,3.75q-7,1-14.42,6.8a71.2,71.2,0,0,0-13.45,13.86,81.34,81.34,0,0,0-9.88,17.35,45.19,45.19,0,0,0-3.84,17.26c0,2.21.81,3.61,2.45,4.19q5.06-1,11.7-8.65t16.08-23.51q1.76-3.15,3.93-7t4.46-8q2.27-4.2,4.46-8.48T359,75Z"/><path class="cls-1" d="M384.71,112.9Q391.17,87,397.38,75.06t13-12q4.89,0,11.71,4.72-5.6,10-8.65,16.51a70.05,70.05,0,0,0-4.46,12q-3,10.49-6.29,21.76t-6.55,21.59q-3.24,10.31-5.94,18.61t-4.28,12.67a153.69,153.69,0,0,1-7.61,17.47,59.25,59.25,0,0,1-7.77,11.71,26.61,26.61,0,0,1-8.48,6.64,22.45,22.45,0,0,1-9.7,2.1,36.66,36.66,0,0,1-7.6-.79A43.54,43.54,0,0,1,337.7,206a26.8,26.8,0,0,1-5.94-3.24,19.79,19.79,0,0,1-4.2-4,4.68,4.68,0,0,1,1.14-2.35,3.51,3.51,0,0,1,1.84-1.32,19.17,19.17,0,0,0,6.2,4.55,19.6,19.6,0,0,0,7.78,1.4,15.66,15.66,0,0,0,9.87-3.32q4.29-3.33,8.65-12.85t9.44-26.74Q377.55,140.87,384.71,112.9ZM413.2,49.28a14.25,14.25,0,0,1,.52-3,8,8,0,0,1-2.1-5.94,30.55,30.55,0,0,1,.44-4.37q.44-2.79,1.23-6c.52-2.15,1.1-4.34,1.74-6.55a50.12,50.12,0,0,1,2-5.77,15.33,15.33,0,0,1,5.16,1.14,39.63,39.63,0,0,1,6.2,3,41.59,41.59,0,0,1,5.77,4,24.18,24.18,0,0,1,4,4.1C436.79,31.17,435,33,433,35.3s-4.14,4.75-6.12,7.25-3.79,4.84-5.42,7a22.86,22.86,0,0,0-3,4.63,7,7,0,0,1-3.67-1.84A4.25,4.25,0,0,1,413.2,49.28Z"/><path class="cls-1" d="M482.4,75a17,17,0,0,1,4.11.61,22,22,0,0,1,4.28,1.58,18,18,0,0,1,3.23,2c.88.7,1.31,1.34,1.31,1.92q-3.49,7.34-6.46,14.77T483.8,110.1a118.28,118.28,0,0,0-3.23,12.76,55.79,55.79,0,0,0-1.14,10.31,26.76,26.76,0,0,0,1.05,8.13,7.82,7.82,0,0,0,3.5,4.63,18.38,18.38,0,0,1-5.42,2.27,23.8,23.8,0,0,1-5.94.87q-9.45,0-9.44-12.93,0-10,6.64-27.26a109.22,109.22,0,0,1-17.3,27.49,54.68,54.68,0,0,1-9.53,8.79,22.49,22.49,0,0,1-8.82,4.09q-6.46,0-10.49-5.88t-4-15a57.47,57.47,0,0,1,4.2-20.7A93.12,93.12,0,0,1,434.6,87.47a76.63,76.63,0,0,1,14.25-15.53q7.68-6.22,14.85-6.23a13.6,13.6,0,0,1,3.93,2.1,30.15,30.15,0,0,1,4.2,3.65,29,29,0,0,1,3.41,4.27,9.37,9.37,0,0,1,1.57,3.75q-7,1-14.42,6.8a71.24,71.24,0,0,0-13.46,13.86,81.73,81.73,0,0,0-9.87,17.35,45.19,45.19,0,0,0-3.84,17.26q0,3.31,2.44,4.19,5.07-1,11.71-8.65t16.08-23.51q1.74-3.15,3.93-7t4.46-8q2.27-4.2,4.46-8.48T482.4,75Z"/><path class="cls-1" d="M605.26,92q-2.81,0-6.82,3.42a81.68,81.68,0,0,0-8.65,8.75q-4.63,5.34-9.61,11.81t-9.61,12.87q-4.64,6.39-8.65,12t-6.82,8.93a18.24,18.24,0,0,1-6.64-4.63,17.85,17.85,0,0,1-4-7.6,110.58,110.58,0,0,1,2.45-11.25,106.45,106.45,0,0,1,4.1-12.13A127.06,127.06,0,0,1,557.28,101a152.33,152.33,0,0,1,9.18-14.57q-2.62,0-7.16,3.59a85.38,85.38,0,0,0-9.79,9.27q-5.25,5.68-10.84,12.78T528.19,126q-6.47,9.1-10.75,15.93t-6.2,8a18.77,18.77,0,0,1-6.3-7.17,37,37,0,0,1-2.62-8.56,79.92,79.92,0,0,1,1.31-10.49,105.35,105.35,0,0,1,3.24-12.93,167.56,167.56,0,0,1,10.39-25.34q6.39-12.58,12.33-23.07a30.27,30.27,0,0,1,8.82,3.32,41.57,41.57,0,0,1,8.3,6.64,54,54,0,0,1-5.42,11.45q-3.66,6-7.69,12.67t-7.34,13.63a49.76,49.76,0,0,0-4.36,14.16q4.89-7,11.62-16.08t13.8-17.13a113.28,113.28,0,0,1,14.07-13.63q7-5.6,12.58-5.59a16.49,16.49,0,0,1,4.55.7,25.76,25.76,0,0,1,4.54,1.74,32.07,32.07,0,0,1,3.5,2c.93.65,1.45,1.14,1.57,1.49A44.92,44.92,0,0,1,584,87.29q-3.22,6-6.9,12.67t-6.82,12.85q-3.13,6.21-3.67,9.87,8.57-11.7,16.08-21.23a208,208,0,0,1,14.16-16.34,73.87,73.87,0,0,1,12.32-10.49Q614.86,71,619.94,71a12.55,12.55,0,0,1,6.55,1.84,9.73,9.73,0,0,1,4.28,5.33,87.2,87.2,0,0,1-5.15,12.58Q622,98,618.36,106.17t-6.55,16a41.66,41.66,0,0,0-2.88,14.15c0,2.45.35,4.05,1.05,4.81a3.81,3.81,0,0,0,3,1.14,9.92,9.92,0,0,0,3.93-.79,8,8,0,0,1,2.71-.79,2.61,2.61,0,0,1,1.22,1.75,11.44,11.44,0,0,1,.18,1.92,40.18,40.18,0,0,1-7.17,4.63,18,18,0,0,1-8.21,1.84,15.06,15.06,0,0,1-6.91-1.4,12.32,12.32,0,0,1-4.45-3.84A14.84,14.84,0,0,1,591.8,140a31,31,0,0,1-.7-6.8,45.51,45.51,0,0,1,1.57-11.78,92.64,92.64,0,0,1,3.76-11.17q2.19-5.32,4.63-10T605.26,92Z"/><path class="cls-1" d="M658.56,151.69a22.2,22.2,0,0,1-15.9-8.73q-6-7.69-5.95-19.58a53.79,53.79,0,0,1,2.1-14.5,70.18,70.18,0,0,1,5.94-14.6,82.2,82.2,0,0,1,9.09-13.36A66.12,66.12,0,0,1,665.2,70.08q9.62-7.17,18-7.17,5.59,3,11,12.41a12.45,12.45,0,0,0,1.57-.08,12.49,12.49,0,0,1,1.58-.09q9.25,0,9.26,16.43A60.92,60.92,0,0,1,703,112.46a63.16,63.16,0,0,1-10,17.91,59.35,59.35,0,0,1-15.2,13.55A60.17,60.17,0,0,1,658.56,151.69Zm8.91-55a84.16,84.16,0,0,0-10.13,18.27,62.94,62.94,0,0,0-3,9.26,35.08,35.08,0,0,0-1,8,23.36,23.36,0,0,0,1.39,8c.94,2.56,2,4,3.15,4.37A38,38,0,0,0,672.28,138a47.41,47.41,0,0,0,11.36-12,59.26,59.26,0,0,0,7.51-16.25,67.43,67.43,0,0,0,2.71-19.4,38.23,38.23,0,0,0-.52-7.16,13.42,13.42,0,0,0-1.75-4.55A37.86,37.86,0,0,0,677.87,86,71.79,71.79,0,0,0,667.47,96.64Z"/><path class="cls-1" d="M775.3,75.76a33.66,33.66,0,0,1-1.14,6.9,35.73,35.73,0,0,1-2.36,6.47,24.19,24.19,0,0,1-3,4.8c-1.05,1.29-2,1.93-3,1.93-1.28-.12-2-1-2.27-2.62a5.34,5.34,0,0,1,.44-1.66c.29-.76.61-1.6,1-2.54s.67-1.86,1-2.79a8.48,8.48,0,0,0,.44-2.45,7.1,7.1,0,0,0-1.14-4.11A3.55,3.55,0,0,0,762.19,78q-7,0-10.66,8.7t-3.67,25.57a6.53,6.53,0,0,0,.18,2.08h12.23a3.71,3.71,0,0,1,.18,1.39,3.1,3.1,0,0,1-.7,2.26c-2.69.58-4.81,1.08-6.38,1.48a28.64,28.64,0,0,0-3.59,1.13,2.69,2.69,0,0,0-1.48,1.13,4.21,4.21,0,0,0-.26,1.66c0,.92,0,1.85.08,2.78s.09,2.08.09,3.47q0,14.61-8,23.51t-22.11,10.3a14.44,14.44,0,0,1-5.07-1.4,24,24,0,0,1-5-3.14,23.72,23.72,0,0,1-4.1-4.29,14.78,14.78,0,0,1-2.45-4.8,30.12,30.12,0,0,1,2.8-12.77,35.39,35.39,0,0,1,7.6-10.74,38.41,38.41,0,0,1,11.36-7.58,34.83,34.83,0,0,1,14.24-2.9,42.38,42.38,0,0,0-.87-8.6q-.88-4.22-1.84-8.16c-.64-2.64-1.25-5.21-1.83-7.73a32.53,32.53,0,0,1-.88-7.46,24.32,24.32,0,0,1,1.93-9.39,35.62,35.62,0,0,1,5.06-8.6,32.48,32.48,0,0,1,7.34-6.75,26.39,26.39,0,0,1,8.74-3.87,16.64,16.64,0,0,1,5.16,3.06,71.68,71.68,0,0,1,6.38,5.68,62.25,62.25,0,0,1,5.59,6.38A16.32,16.32,0,0,1,775.3,75.76Zm-57.67,79.69a28.79,28.79,0,0,0,8-5.07,38.49,38.49,0,0,0,6.55-7.51,39.94,39.94,0,0,0,4.46-8.91,27.77,27.77,0,0,0,1.66-9.27,20,20,0,0,0-7.69,3.24,45,45,0,0,0-7.86,6.46,43.68,43.68,0,0,0-6.12,7.78,14,14,0,0,0-2.45,7A7.4,7.4,0,0,0,717.63,155.45Z"/><path class="cls-1" d="M804.31,203.42q-2.46-.69-2.8-5.24a25.94,25.94,0,0,1-1-5.42q-.25-3.13-.26-7.16a57.16,57.16,0,0,1,1.22-10q1.23-6.39,3.41-14.42t5.33-17.39q3.15-9.35,7-19,4.72-12.06,8.21-20.88t5.86-15.3q2.36-6.45,3.84-10.66t2.36-7.16a49,49,0,0,1,2.1-5.07q1.39-3,3.23-6t3.76-5.77a24.6,24.6,0,0,1,3.5-4.1A46.93,46.93,0,0,1,861.63,53c3.61,1.52,5.82,3,6.64,4.37a39.76,39.76,0,0,0-5.59,7.08q-3.15,4.81-6.12,10.49t-5.42,11.62A90.1,90.1,0,0,0,847.47,97,56,56,0,0,1,852,90.53q2.79-3.5,8.56-9.61a68.4,68.4,0,0,1,12.15-10.23q5.67-3.59,9.87-3.58a16.15,16.15,0,0,1,10.92,3.67,11.85,11.85,0,0,1,4.28,9.44,76.71,76.71,0,0,1-4.19,24.9,74.27,74.27,0,0,1-12.06,22.28,51,51,0,0,1-7,7.34,65.56,65.56,0,0,1-8.39,6.21,49.17,49.17,0,0,1-8.56,4.28,21.67,21.67,0,0,1-7.51,1.57,11.2,11.2,0,0,1-5.51-1.31,7.18,7.18,0,0,1-3.23-3.23,57.49,57.49,0,0,0,13.28-11.19,101,101,0,0,0,12-16.51,131.48,131.48,0,0,0,9.61-20.19,129,129,0,0,0,6.21-22,83.56,83.56,0,0,0-12,7.6A62.45,62.45,0,0,0,859.88,90.7q-6.28,7.69-10,12.41t-6,8a50.71,50.71,0,0,0-3.84,6.2c-1,1.93-2.07,4.28-3.24,7.08q-2.44,5.59-5.68,14.77t-6.64,20.53q-3.4,11.36-6.81,24.21t-6.56,25.6a5.07,5.07,0,0,1-3.32-2.8c-.93-1-1.6-1.8-2-2.27A3.89,3.89,0,0,0,804.31,203.42Z"/><path class="cls-1" d="M964.39,75a17,17,0,0,1,4.1.61,22.08,22.08,0,0,1,4.29,1.58,18.38,18.38,0,0,1,3.23,2c.87.7,1.31,1.34,1.31,1.92q-3.5,7.34-6.47,14.77t-5.07,14.24a123.17,123.17,0,0,0-3.23,12.76,55.68,55.68,0,0,0-1.13,10.31,27.1,27.1,0,0,0,1,8.13,7.86,7.86,0,0,0,3.5,4.63,18.38,18.38,0,0,1-5.42,2.27,23.67,23.67,0,0,1-5.94.87q-9.44,0-9.44-12.93,0-10,6.64-27.26a106.31,106.31,0,0,1-8,15.05,105.59,105.59,0,0,1-9.26,12.44,54.64,54.64,0,0,1-9.52,8.79,22.59,22.59,0,0,1-8.83,4.09q-6.46,0-10.48-5.88t-4-15a57.66,57.66,0,0,1,4.19-20.7,93.15,93.15,0,0,1,10.75-20.19,76.6,76.6,0,0,1,14.24-15.53q7.7-6.22,14.86-6.23a13.86,13.86,0,0,1,3.93,2.1,30.67,30.67,0,0,1,4.19,3.65,28.35,28.35,0,0,1,3.41,4.27,9.23,9.23,0,0,1,1.57,3.75q-7,1-14.41,6.8a71,71,0,0,0-13.46,13.86,81.3,81.3,0,0,0-9.87,17.35,45,45,0,0,0-3.85,17.26c0,2.21.81,3.61,2.45,4.19q5.07-1,11.71-8.65t16.07-23.51q1.76-3.15,3.94-7t4.45-8q2.28-4.2,4.46-8.48T964.39,75Z"/><path class="cls-1" d="M982,142.08q.88-5.07,3.06-13.37t5.16-17.65q3-9.34,6.29-18.79t6.47-17a78.87,78.87,0,0,1,4-8.47,24.06,24.06,0,0,1,3.84-5.16,30,30,0,0,1,5.07,1.22A41,41,0,0,1,1021,65a38.22,38.22,0,0,1,4.37,2.54,15.29,15.29,0,0,1,3,2.53,63.61,63.61,0,0,0-8.3,12.76,138.46,138.46,0,0,0-7.26,18.35q9.44-8.39,16.69-16.08A130.36,130.36,0,0,0,1043,68a5.86,5.86,0,0,1,3.67-.87,14.22,14.22,0,0,1,4.72.79,5.72,5.72,0,0,1,3.14,2.18,47,47,0,0,0-3.14,16.6q0,7.69,2.27,11.54a13.44,13.44,0,0,1-2.36,4,49.09,49.09,0,0,1-4.81,5.59,28,28,0,0,1-8.39-6.73,28.58,28.58,0,0,1-5.41-9.35,121.68,121.68,0,0,0-14,11.27,60.37,60.37,0,0,0-9.87,12.24,74,74,0,0,0-7,15.46,207.83,207.83,0,0,0-5.5,20.8,13.42,13.42,0,0,1-3.76-1.14,31.67,31.67,0,0,1-4.37-2.36,29.27,29.27,0,0,1-3.93-3A8,8,0,0,1,982,142.08Z"/><path class="cls-1" d="M1117,75a17.17,17.17,0,0,1,4.11.61,22,22,0,0,1,4.28,1.58,18,18,0,0,1,3.23,2c.88.7,1.31,1.34,1.31,1.92q-3.5,7.34-6.46,14.77t-5.07,14.24a118.28,118.28,0,0,0-3.23,12.76,55.79,55.79,0,0,0-1.14,10.31,26.76,26.76,0,0,0,1,8.13,7.84,7.84,0,0,0,3.49,4.63,18.19,18.19,0,0,1-5.41,2.27,23.81,23.81,0,0,1-5.95.87q-9.44,0-9.43-12.93,0-10,6.64-27.26a109.22,109.22,0,0,1-17.3,27.49,54.68,54.68,0,0,1-9.53,8.79,22.49,22.49,0,0,1-8.82,4.09q-6.48,0-10.49-5.88t-4-15a57.47,57.47,0,0,1,4.2-20.7,92.68,92.68,0,0,1,10.74-20.19,76.63,76.63,0,0,1,14.25-15.53q7.68-6.22,14.85-6.23a13.73,13.73,0,0,1,3.93,2.1,30.15,30.15,0,0,1,4.2,3.65,29,29,0,0,1,3.41,4.27,9.37,9.37,0,0,1,1.57,3.75q-7,1-14.42,6.8a71.24,71.24,0,0,0-13.46,13.86,81.3,81.3,0,0,0-9.87,17.35,45.19,45.19,0,0,0-3.84,17.26q0,3.31,2.44,4.19,5.07-1,11.71-8.65T1100,106.78q1.74-3.15,3.93-7t4.46-8q2.27-4.2,4.45-8.48T1117,75Z"/><path class="cls-1" d="M1176.19,142.08q.87-5.07,3.06-13.37t5.16-17.65q3-9.34,6.29-18.79t6.46-17a82.94,82.94,0,0,1,4-8.47,24.42,24.42,0,0,1,3.85-5.16,30,30,0,0,1,5.07,1.22,40.82,40.82,0,0,1,5.06,2.1,37.37,37.37,0,0,1,4.37,2.54,15.29,15.29,0,0,1,3,2.53,64.49,64.49,0,0,0-8.3,12.76,138.58,138.58,0,0,0-7.25,18.35q9.43-8.39,16.69-16.08A130.3,130.3,0,0,0,1237.18,68a5.88,5.88,0,0,1,3.67-.87,14.17,14.17,0,0,1,4.72.79,5.79,5.79,0,0,1,3.15,2.18,47,47,0,0,0-3.15,16.6q0,7.69,2.27,11.54-.16,1.05-2.36,4a48,48,0,0,1-4.8,5.59,27.85,27.85,0,0,1-8.39-6.73,28.61,28.61,0,0,1-5.42-9.35,121.51,121.51,0,0,0-14,11.27,60,60,0,0,0-9.87,12.24,74,74,0,0,0-7,15.46,207.62,207.62,0,0,0-5.51,20.8,13.52,13.52,0,0,1-3.76-1.14,32.16,32.16,0,0,1-4.36-2.36,30,30,0,0,1-3.94-3A8.08,8.08,0,0,1,1176.19,142.08Z"/><path class="cls-1" d="M1313.38,73.23a60.09,60.09,0,0,1-3.85,18.61,40.4,40.4,0,0,1-9,13.63A65,65,0,0,1,1286.29,116a154.73,154.73,0,0,1-19.57,9.09c0,.7,0,1.43-.09,2.18s-.09,1.55-.09,2.36a33.78,33.78,0,0,0,.35,4.72,18.12,18.12,0,0,0,1.23,4.55,8.64,8.64,0,0,0,2.44,3.4,6,6,0,0,0,4,1.31,21.83,21.83,0,0,0,9.26-2.09,48.21,48.21,0,0,0,8.65-5.16,67.86,67.86,0,0,0,7.69-6.64q3.58-3.58,6.38-6.55a34.56,34.56,0,0,1,3,3,84,84,0,0,1-17.21,17.39q-9.35,6.9-17.74,8.82-12.06-1.39-18.79-8.82a25.78,25.78,0,0,1-6.72-17.92,55.78,55.78,0,0,1,2-14.59,71,71,0,0,1,5.59-14.33,82.55,82.55,0,0,1,8.39-13,68.82,68.82,0,0,1,10.31-10.66,49.49,49.49,0,0,1,11.36-7.16,28.23,28.23,0,0,1,11.62-2.63Q1306.39,64.31,1313.38,73.23ZM1301.32,79a25.93,25.93,0,0,0-9.79,3.85,40.58,40.58,0,0,0-9.52,8.39,66.64,66.64,0,0,0-8.13,12.23,70.38,70.38,0,0,0-5.76,15,78,78,0,0,0,23.24-17.22Q1300.62,91.06,1301.32,79Z"/><path class="cls-1" d="M1381.71,75.76a33.66,33.66,0,0,1-1.14,6.9,35.73,35.73,0,0,1-2.36,6.47,24.19,24.19,0,0,1-3,4.8c-1,1.29-2,1.93-3,1.93-1.28-.12-2-1-2.27-2.62a5.34,5.34,0,0,1,.44-1.66c.29-.76.61-1.6,1-2.54s.67-1.86,1-2.79a8.48,8.48,0,0,0,.44-2.45,7.1,7.1,0,0,0-1.14-4.11A3.55,3.55,0,0,0,1368.6,78q-7,0-10.66,8.7t-3.67,25.57a6.53,6.53,0,0,0,.18,2.08h12.23a3.77,3.77,0,0,1,.17,1.39,3.06,3.06,0,0,1-.7,2.26c-2.68.58-4.8,1.08-6.37,1.48a28.64,28.64,0,0,0-3.59,1.13,2.69,2.69,0,0,0-1.48,1.13,4.21,4.21,0,0,0-.26,1.66c0,.92,0,1.85.08,2.78s.09,2.08.09,3.47q0,14.61-7.95,23.51t-22.11,10.3a14.44,14.44,0,0,1-5.07-1.4,24,24,0,0,1-5-3.14,23.72,23.72,0,0,1-4.1-4.29,14.78,14.78,0,0,1-2.45-4.8,30.12,30.12,0,0,1,2.8-12.77,35.39,35.39,0,0,1,7.6-10.74,38.41,38.41,0,0,1,11.36-7.58,34.83,34.83,0,0,1,14.24-2.9,42.38,42.38,0,0,0-.87-8.6q-.88-4.22-1.84-8.16c-.64-2.64-1.25-5.21-1.83-7.73a32.53,32.53,0,0,1-.88-7.46,24.32,24.32,0,0,1,1.93-9.39,35.62,35.62,0,0,1,5.06-8.6,32.48,32.48,0,0,1,7.34-6.75,26.39,26.39,0,0,1,8.74-3.87,16.64,16.64,0,0,1,5.16,3.06,71.68,71.68,0,0,1,6.38,5.68,63.49,63.49,0,0,1,5.59,6.38A16.32,16.32,0,0,1,1381.71,75.76ZM1324,155.45a28.79,28.79,0,0,0,8-5.07,38.49,38.49,0,0,0,6.55-7.51A40.37,40.37,0,0,0,1343,134a28,28,0,0,0,1.66-9.27,20,20,0,0,0-7.69,3.24,45,45,0,0,0-7.86,6.46,43.68,43.68,0,0,0-6.12,7.78,14,14,0,0,0-2.45,7A7.4,7.4,0,0,0,1324,155.45Z"/><path class="cls-1" d="M1442.18,75a17,17,0,0,1,4.1.61,21.74,21.74,0,0,1,4.28,1.58,18.49,18.49,0,0,1,3.24,2c.87.7,1.31,1.34,1.31,1.92q-3.49,7.34-6.47,14.77t-5.07,14.24a123.17,123.17,0,0,0-3.23,12.76,55.79,55.79,0,0,0-1.14,10.31,26.76,26.76,0,0,0,1,8.13,7.82,7.82,0,0,0,3.5,4.63,18.38,18.38,0,0,1-5.42,2.27,23.67,23.67,0,0,1-5.94.87q-9.44,0-9.44-12.93,0-10,6.64-27.26a106.31,106.31,0,0,1-8,15.05,105.59,105.59,0,0,1-9.26,12.44,55,55,0,0,1-9.52,8.79,22.59,22.59,0,0,1-8.83,4.09q-6.46,0-10.48-5.88t-4-15a57.44,57.44,0,0,1,4.19-20.7,93.15,93.15,0,0,1,10.75-20.19,76.6,76.6,0,0,1,14.24-15.53q7.7-6.22,14.86-6.23a13.86,13.86,0,0,1,3.93,2.1,30.67,30.67,0,0,1,4.19,3.65,28.35,28.35,0,0,1,3.41,4.27,9.23,9.23,0,0,1,1.57,3.75q-7,1-14.42,6.8a71.2,71.2,0,0,0-13.45,13.86,81.77,81.77,0,0,0-9.88,17.35,45.19,45.19,0,0,0-3.84,17.26c0,2.21.81,3.61,2.45,4.19q5.05-1,11.7-8.65t16.08-23.51q1.76-3.15,3.94-7t4.45-8q2.27-4.2,4.46-8.48T1442.18,75Z"/><path class="cls-1" d="M1463.84,134.39q0-7.68,3.67-21.58t10.31-32.42q10.85-29.53,20.36-49.19T1516.8.52A22,22,0,0,1,1522,2.27c2,.94,4,1.95,6,3.06a50.71,50.71,0,0,1,5.33,3.41,14,14,0,0,1,3.06,2.79,214.94,214.94,0,0,0-23.94,34.61,283.73,283.73,0,0,0-18.88,42.46,346.78,346.78,0,0,0-11.18,37.14q-3.86,16.52-3.85,27.53v3.67a5.52,5.52,0,0,0,.18,1.39,13.69,13.69,0,0,1-4.2-1.22,4.48,4.48,0,0,1-2.27-2.1,9.7,9.7,0,0,0-1.92-2.53,19.69,19.69,0,0,0-2.8-2.53q-1.58-1-2.62-5.51A43.94,43.94,0,0,1,1463.84,134.39Z"/><path class="cls-1" d="M1515.57,78.64a11.2,11.2,0,0,1-1.57-4.45,29.47,29.47,0,0,1-.7-5.86,57,57,0,0,0,8.74.7h7.69q2.61-5.18,5.68-10.28c2-3.4,4-6.51,5.94-9.33a80,80,0,0,1,5.42-7.17,19.78,19.78,0,0,1,3.93-3.8,20.84,20.84,0,0,1,4.45.61,53.46,53.46,0,0,1,5.51,1.57q2.79,1,5.07,2a9.08,9.08,0,0,1,3.14,2.1q-5.23,6.6-9,12.24t-8.12,12.92h7.07a51.27,51.27,0,0,0,7.26-.52,6.49,6.49,0,0,1,1.4,2.19,7.36,7.36,0,0,1,.52,2.7q-8.57,3.33-20.8,3.32-4.37,8.41-7.77,16.74t-5.77,16A140.2,140.2,0,0,0,1530,124.9a66.21,66.21,0,0,0-1.31,12.27q0,7.71,5.77,8.58a40.36,40.36,0,0,0,10-2.62,33.18,33.18,0,0,0,8.39-4.89,7.46,7.46,0,0,1,1.22,2.62,18.61,18.61,0,0,1-3.58,3.64q-2.54,2.08-5.51,4.08a51.62,51.62,0,0,1-5.77,3.39,15.17,15.17,0,0,1-4.19,1.56,23.49,23.49,0,0,1-8.74-1.75,36.71,36.71,0,0,1-8-4.37,25.42,25.42,0,0,1-5.85-5.87,11,11,0,0,1-2.28-6.38,62.47,62.47,0,0,1,1.14-10.59q1.14-6.37,3.23-13.91t4.9-15.74q2.79-8.23,6.11-16.28Z"/><path class="cls-1" d="M1627.07,75a17,17,0,0,1,4.1.61,22.08,22.08,0,0,1,4.29,1.58,18.38,18.38,0,0,1,3.23,2c.87.7,1.31,1.34,1.31,1.92q-3.49,7.34-6.47,14.77t-5.06,14.24a120.86,120.86,0,0,0-3.24,12.76,55.68,55.68,0,0,0-1.13,10.31,27.1,27.1,0,0,0,1,8.13,7.86,7.86,0,0,0,3.5,4.63,18.38,18.38,0,0,1-5.42,2.27,23.67,23.67,0,0,1-5.94.87q-9.43,0-9.44-12.93,0-10,6.64-27.26a106.31,106.31,0,0,1-8,15.05,105.59,105.59,0,0,1-9.26,12.44,54.64,54.64,0,0,1-9.52,8.79,22.59,22.59,0,0,1-8.83,4.09q-6.46,0-10.48-5.88t-4-15a57.66,57.66,0,0,1,4.19-20.7,93.15,93.15,0,0,1,10.75-20.19,76.6,76.6,0,0,1,14.24-15.53q7.7-6.22,14.86-6.23a13.86,13.86,0,0,1,3.93,2.1,30.09,30.09,0,0,1,4.19,3.65,28.35,28.35,0,0,1,3.41,4.27,9.23,9.23,0,0,1,1.57,3.75q-7,1-14.41,6.8a71,71,0,0,0-13.46,13.86,81.3,81.3,0,0,0-9.87,17.35,45,45,0,0,0-3.85,17.26c0,2.21.81,3.61,2.45,4.19q5.07-1,11.71-8.65t16.08-23.51q1.74-3.15,3.93-7t4.45-8q2.28-4.2,4.46-8.48C1624.42,80.42,1625.78,77.65,1627.07,75Z"/><path class="cls-1" d="M1644.72,142.08q.87-5.07,3-13.37t5.16-17.65q3-9.34,6.29-18.79t6.47-17a78.87,78.87,0,0,1,4-8.47,24.06,24.06,0,0,1,3.84-5.16,30,30,0,0,1,5.07,1.22,41,41,0,0,1,5.07,2.1,38.22,38.22,0,0,1,4.37,2.54,15.29,15.29,0,0,1,3,2.53,63.61,63.61,0,0,0-8.3,12.76,138.46,138.46,0,0,0-7.26,18.35q9.43-8.39,16.69-16.08A130.36,130.36,0,0,0,1705.71,68a5.86,5.86,0,0,1,3.67-.87,14.22,14.22,0,0,1,4.72.79,5.72,5.72,0,0,1,3.14,2.18,47,47,0,0,0-3.14,16.6q0,7.69,2.27,11.54a13.44,13.44,0,0,1-2.36,4,49.09,49.09,0,0,1-4.81,5.59,28,28,0,0,1-8.39-6.73,28.58,28.58,0,0,1-5.41-9.35,120.65,120.65,0,0,0-14,11.27,60.08,60.08,0,0,0-9.88,12.24,74,74,0,0,0-7,15.46,207.83,207.83,0,0,0-5.5,20.8,13.42,13.42,0,0,1-3.76-1.14,31.67,31.67,0,0,1-4.37-2.36,29.27,29.27,0,0,1-3.93-3A7.86,7.86,0,0,1,1644.72,142.08Z"/><path class="cls-2" d="M7.56,232.16H165l8.44,35.57h-1.77c-10.68-18.67-36.47-33.79-57.81-33.79h-5.34v205c0,5.78,0,9.34,6.23,9.34h13.34V450H44.47v-1.78H56.92c7.11,0,7.11-4,7.11-9.34v-205H59.14c-24.9,0-44.91,13.34-57.36,33.79H0Z"/><path class="cls-2" d="M192.53,232.16h83.6v1.78H263.68c-7.12,0-7.12,4-7.12,9.33V373.11c0,38.24,16.9,71.59,46.69,71.59,34.68,0,52.91-26.23,52.91-69.36V243.27c0-5.77,0-9.33-6.22-9.33h-24v-1.78h64v1.78H366.83c-7.11,0-7.11,4-7.11,9.33V375.78c0,50.25-24,76.48-64.48,76.48-50.24,0-83.14-27.57-83.14-77.37V243.27c0-5.77,0-9.33-6.23-9.33H192.53Z"/><path class="cls-2" d="M480.66,450v-1.78h12.45c7.12,0,7.12-4,7.12-9.34V243.27c0-5.77,0-9.33-6.23-9.33H480.66v-1.78h83.6c40,0,77.81,14.23,77.81,52.47,0,24-16.45,41.35-39.13,47.58,33.35,3.11,61.36,21.78,61.36,58.24,0,42.25-40.46,59.59-84.48,59.59Zm64-118.28h8c30.23,0,48.91-16.45,48.91-47.13,0-30.24-17.79-48.91-47.58-48.91h-9.34Zm22.68,114.72c34.24,0,54.69-21.79,54.69-56,0-35.12-22.23-55.13-56.91-55.13H544.69V446.48Z"/><path class="cls-2" d="M673.19,450v-1.78h12.45c7.12,0,7.12-4,7.12-9.34V243.27c0-5.77,0-9.33-6.23-9.33H673.19v-1.78H813.26l12.89,54.25h-1.33c-13.34-31.13-36.46-50.69-80-50.69h-7.56V337.54h31.57c5.78,0,9.34,0,9.34-6.22v-24h1.78v64h-1.78V348.21c0-7.11-4-7.11-9.34-7.11H737.22V446.48H747.9c37.79,0,64.47-18.23,80-51.13h.89L815,450Z"/><path class="cls-2" d="M846.61,450v-1.78h12.45c7.11,0,7.11-4,7.11-9.34V243.27c0-5.77,0-9.33-6.22-9.33H846.61v-1.78H930.2v1.78H917.75c-7.11,0-7.11,4-7.11,9.33V446.48H943.1c24.9,0,40.9-14.23,52.91-34.68L987.56,450Z"/><path class="cls-2" d="M1005.35,450v-1.78h12.45c7.11,0,7.11-4,7.11-9.34V243.27c0-5.77,0-9.33-6.22-9.33h-13.34v-1.78h83.59v1.78h-12.45c-7.11,0-7.11,4-7.11,9.33V446.48h32.46c24.9,0,40.9-14.23,52.91-34.68L1146.3,450Z"/><path class="cls-2" d="M1162.31,450v-1.78h12.45c7.12,0,7.12-4,7.12-9.34V243.27c0-5.77,0-9.33-6.23-9.33h-13.34v-1.78h140.07l12.89,54.25h-1.33c-13.34-31.13-36.46-50.69-80-50.69h-7.56V337.54h31.57c5.78,0,9.34,0,9.34-6.22v-24H1269v64h-1.78V348.21c0-7.11-4-7.11-9.34-7.11h-31.57V446.48H1237c37.8,0,64.48-18.23,80-51.13h.89L1304.16,450Z"/><path class="cls-2" d="M1337.51,450l117.38-214.32h-20c-41.79,0-78.7,37.79-89.82,57.36h-1.78l15.57-60.92h147.62L1389.08,446.48h21.35c51.58,0,82.26-38.24,93.37-57.36h1.78L1489.13,450Z"/><path class="cls-2" d="M1506,448.26h17.35c7.11,0,11.11-4.45,12.89-9.34l80-209.43,79.14,209.43c1.78,5.34,4.9,9.34,11.12,9.34h10.67V450h-87.59v-1.78h11.11c7.12,0,8.89-4.45,7.12-9.34L1625.2,378h-61.36l-23.12,60.92c-1.78,5.34-.89,9.34,5.33,9.34h26.68V450H1506Zm117.84-73.37-29.35-77.81-29.79,77.81Z"/></g></g></svg>