<svg xmlns="http://www.w3.org/2000/svg" xmlns:xlink="http://www.w3.org/1999/xlink" viewBox="0 0 1419.18 497.5"><defs><style>.cls-1{fill:#fcfcfc;}.cls-2{fill:url(#Degradado_sin_nombre_11);}.cls-3{fill:url(#Degradado_sin_nombre_11-2);}.cls-4{fill:url(#Degradado_sin_nombre_11-3);}.cls-5{fill:url(#Degradado_sin_nombre_11-4);}.cls-6{fill:url(#Degradado_sin_nombre_11-5);}.cls-7{fill:url(#Degradado_sin_nombre_11-6);}</style><linearGradient id="Degradado_sin_nombre_11" x1="83.55" y1="385.59" x2="265.8" y2="385.59" gradientUnits="userSpaceOnUse"><stop offset="0" stop-color="#e2be4f"/><stop offset="0.32" stop-color="#d7af44"/><stop offset="1" stop-color="#c08f2c"/></linearGradient><linearGradient id="Degradado_sin_nombre_11-2" x1="232.45" y1="384.22" x2="449.41" y2="384.22" xlink:href="#Degradado_sin_nombre_11"/><linearGradient id="Degradado_sin_nombre_11-3" x1="449.42" y1="385.59" x2="652.22" y2="385.59" xlink:href="#Degradado_sin_nombre_11"/><linearGradient id="Degradado_sin_nombre_11-4" x1="632.58" y1="384.22" x2="849.54" y2="384.22" xlink:href="#Degradado_sin_nombre_11"/><linearGradient id="Degradado_sin_nombre_11-5" x1="950.02" y1="385.59" x2="1128.16" y2="385.59" xlink:href="#Degradado_sin_nombre_11"/><linearGradient id="Degradado_sin_nombre_11-6" x1="1151.45" y1="385.36" x2="1237.32" y2="385.36" xlink:href="#Degradado_sin_nombre_11"/></defs><g id="Capa_2" data-name="Capa 2"><g id="Capa_1-2" data-name="Capa 1"><path class="cls-1" d="M79.8,154.6q5,8.6,5,16.54a16.65,16.65,0,0,1-.3,3.28c-.2,1-.43,2-.7,3.08a49.25,49.25,0,0,0-7.1-.5H59.3a102.62,102.62,0,0,0-10.9.64q-6,.63-13.4,1.7T17.8,182.1a24.56,24.56,0,0,1-9.2-6.3A61.91,61.91,0,0,1,0,164.5q2-4.4,5-10.9t7-15.8q4-9.3,8.9-21.8T31.4,87.1q3.6-10.8,6.2-19t4.7-15.9q2.1-7.7,4.1-16.1t4.4-19.4a34.87,34.87,0,0,1,13.9,5.9A48.87,48.87,0,0,1,76,34.9a78.35,78.35,0,0,0-4.2,8.39q-2.6,5.81-6.1,14.09T58,76.17q-4.2,10.49-8.8,22.48-4.39,11.79-8.6,22.18t-7.5,18.79Q29.8,148,27.8,154c-1.33,4-2,7-2,9,2.13,0,4.07-.07,5.8-.2s3.53-.37,5.4-.7,3.9-.73,6.1-1.2,4.83-1.1,7.9-1.9c2.67-.67,5.13-1.23,7.4-1.7s4.5-.87,6.7-1.2,4.47-.6,6.8-.8S76.87,154.87,79.8,154.6Z"/><path class="cls-1" d="M119.2,173A25.38,25.38,0,0,1,101,163q-6.8-8.81-6.8-22.4A61.68,61.68,0,0,1,96.6,124a80.16,80.16,0,0,1,6.8-16.7A93.57,93.57,0,0,1,113.8,92a75.75,75.75,0,0,1,13-12.4q11-8.2,20.6-8.2,6.4,3.41,12.6,14.2a13.92,13.92,0,0,0,1.8-.1,13.92,13.92,0,0,1,1.8-.1q10.6,0,10.6,18.8a69.59,69.59,0,0,1-4.1,23.9,72.38,72.38,0,0,1-11.4,20.5,68.08,68.08,0,0,1-17.4,15.5A68.93,68.93,0,0,1,119.2,173Zm10.2-63a91.64,91.64,0,0,0-6.4,10,95.69,95.69,0,0,0-5.2,10.9,74.39,74.39,0,0,0-3.4,10.6,40.2,40.2,0,0,0-1.2,9.1,26.62,26.62,0,0,0,1.6,9.2q1.61,4.39,3.6,5a43.52,43.52,0,0,0,16.5-7.5,54.35,54.35,0,0,0,13-13.7,68.13,68.13,0,0,0,8.6-18.6,77.2,77.2,0,0,0,3.1-22.2,43.85,43.85,0,0,0-.6-8.2,15.21,15.21,0,0,0-2-5.2,43,43,0,0,0-15.7,8.4A81.63,81.63,0,0,0,129.4,110Z"/><path class="cls-1" d="M252.8,86.1a38.26,38.26,0,0,1-1.3,7.9,41.32,41.32,0,0,1-2.7,7.4,28.17,28.17,0,0,1-3.4,5.5c-1.2,1.47-2.34,2.2-3.4,2.2-1.47-.13-2.33-1.13-2.6-3a5.93,5.93,0,0,1,.5-1.9c.33-.87.7-1.83,1.1-2.9s.77-2.13,1.1-3.2a9.7,9.7,0,0,0,.5-2.8,8.1,8.1,0,0,0-1.3-4.7,4,4,0,0,0-3.5-1.9q-8,0-12.2,10t-4.2,29.26a7.52,7.52,0,0,0,.2,2.39h14a4.21,4.21,0,0,1,.2,1.59,3.55,3.55,0,0,1-.8,2.59c-3.07.66-5.5,1.23-7.3,1.69a30.77,30.77,0,0,0-4.1,1.3,3.09,3.09,0,0,0-1.7,1.29,4.91,4.91,0,0,0-.3,1.89c0,1.06,0,2.12.1,3.18s.1,2.39.1,4q0,16.73-9.1,26.91T187.4,186.5a16.49,16.49,0,0,1-5.8-1.6,27.92,27.92,0,0,1-10.4-8.5,17.17,17.17,0,0,1-2.8-5.5,34.41,34.41,0,0,1,3.2-14.61,40.7,40.7,0,0,1,8.7-12.3,43.91,43.91,0,0,1,13-8.66A39.7,39.7,0,0,1,209.6,132a48,48,0,0,0-1-9.84c-.67-3.21-1.37-6.33-2.1-9.34s-1.44-6-2.1-8.84a37.61,37.61,0,0,1-1-8.54,27.85,27.85,0,0,1,2.2-10.74,40.57,40.57,0,0,1,5.8-9.85,37.2,37.2,0,0,1,8.4-7.73,30.29,30.29,0,0,1,10-4.42,19,19,0,0,1,5.9,3.5,80.15,80.15,0,0,1,7.3,6.5,70.7,70.7,0,0,1,6.4,7.3A18.59,18.59,0,0,1,252.8,86.1Zm-66,91.2a32.84,32.84,0,0,0,9.1-5.8,43.67,43.67,0,0,0,7.5-8.6,45.9,45.9,0,0,0,5.1-10.2,31.71,31.71,0,0,0,1.9-10.6,22.84,22.84,0,0,0-8.8,3.7,52.05,52.05,0,0,0-9,7.4,49.67,49.67,0,0,0-7,8.9c-1.87,3.07-2.8,5.73-2.8,8A8.46,8.46,0,0,0,186.8,177.3Z"/><path class="cls-1" d="M416.2,104.7q-3.21,0-7.8,3.91a93.14,93.14,0,0,0-9.9,10q-5.31,6.12-11,13.52t-11,14.73q-5.31,7.31-9.9,13.71t-7.8,10.22a20.85,20.85,0,0,1-7.6-5.3,20.42,20.42,0,0,1-4.6-8.7,126.57,126.57,0,0,1,2.8-12.88,120.82,120.82,0,0,1,4.7-13.87A144.06,144.06,0,0,1,361.3,115,170.48,170.48,0,0,1,371.8,98.3q-3,0-8.2,4.11A98.27,98.27,0,0,0,352.4,113q-6,6.51-12.4,14.62t-12,15.92q-7.41,10.42-12.3,18.23T308.6,171a21.44,21.44,0,0,1-7.2-8.2,41.49,41.49,0,0,1-3-9.8,90.1,90.1,0,0,1,1.5-12,119,119,0,0,1,3.7-14.8,190.29,190.29,0,0,1,11.9-29q7.29-14.4,14.1-26.4a34.62,34.62,0,0,1,10.1,3.8,47.48,47.48,0,0,1,9.5,7.6A62.62,62.62,0,0,1,343,95.3q-4.2,6.9-8.8,14.5a174.88,174.88,0,0,0-8.4,15.6,56.54,56.54,0,0,0-5,16.2q5.59-8,13.3-18.4t15.8-19.6A129.44,129.44,0,0,1,366,88q8-6.41,14.4-6.4a19.16,19.16,0,0,1,5.2.8,30,30,0,0,1,5.2,2,34.69,34.69,0,0,1,4,2.3,4.92,4.92,0,0,1,1.8,1.7,52.26,52.26,0,0,1-4.7,10.9q-3.7,6.9-7.9,14.5t-7.8,14.7q-3.6,7.09-4.2,11.3,9.79-13.4,18.4-24.3a237.51,237.51,0,0,1,16.2-18.7,83.61,83.61,0,0,1,14.1-12q6.49-4.2,12.3-4.2a14.36,14.36,0,0,1,7.5,2.1,11.21,11.21,0,0,1,4.9,6.1,98.93,98.93,0,0,1-5.9,14.4q-4.11,8.4-8.3,17.7t-7.5,18.3a47.66,47.66,0,0,0-3.3,16.2q0,4.2,1.2,5.5a4.38,4.38,0,0,0,3.4,1.3,11.3,11.3,0,0,0,4.5-.9,9,9,0,0,1,3.1-.9,3,3,0,0,1,1.4,2,13.81,13.81,0,0,1,.2,2.2,46.59,46.59,0,0,1-8.2,5.3,20.75,20.75,0,0,1-9.4,2.1,17.11,17.11,0,0,1-7.9-1.6,14.06,14.06,0,0,1-5.1-4.39,17.1,17.1,0,0,1-2.8-6.39,35.37,35.37,0,0,1-.8-7.79,51.71,51.71,0,0,1,1.8-13.48,105.86,105.86,0,0,1,4.3-12.78q2.49-6.09,5.3-11.38T416.2,104.7Z"/><path class="cls-1" d="M525.2,83.2a68.84,68.84,0,0,1-4.4,21.3,46.63,46.63,0,0,1-10.3,15.6,74.53,74.53,0,0,1-16.3,12.1,177.72,177.72,0,0,1-22.4,10.4c0,.8,0,1.63-.1,2.5s-.1,1.77-.1,2.7a37.78,37.78,0,0,0,.4,5.4,20.82,20.82,0,0,0,1.4,5.2,9.88,9.88,0,0,0,2.8,3.9,6.94,6.94,0,0,0,4.6,1.5,25.07,25.07,0,0,0,10.6-2.4,56.12,56.12,0,0,0,9.9-5.9,80.92,80.92,0,0,0,8.8-7.6q4.1-4.1,7.3-7.5a41.82,41.82,0,0,1,3.4,3.4,96.38,96.38,0,0,1-19.7,19.9q-10.71,7.91-20.3,10.1-13.8-1.61-21.5-10.1a29.44,29.44,0,0,1-7.7-20.5,63.48,63.48,0,0,1,2.3-16.7,81.41,81.41,0,0,1,6.4-16.4,94.12,94.12,0,0,1,9.6-14.9A78.75,78.75,0,0,1,481.7,83a57,57,0,0,1,13-8.2,32.32,32.32,0,0,1,13.3-3Q517.19,73,525.2,83.2Zm-13.8,6.6a29.55,29.55,0,0,0-11.2,4.4,46.75,46.75,0,0,0-10.9,9.6,76.34,76.34,0,0,0-9.3,14,80.66,80.66,0,0,0-6.6,17.2A89.3,89.3,0,0,0,500,115.3Q510.59,103.6,511.4,89.8Z"/><path class="cls-1" d="M538.79,128.6Q546.2,99,553.29,85.3t14.9-13.7q5.61,0,13.4,5.4-6.39,11.4-9.9,18.9a81,81,0,0,0-5.1,13.7q-3.39,12-7.2,24.9t-7.5,24.7q-3.69,11.81-6.8,21.3t-4.9,14.5a174.87,174.87,0,0,1-8.7,20,67.2,67.2,0,0,1-8.9,13.4,30.33,30.33,0,0,1-9.7,7.6,25.74,25.74,0,0,1-11.1,2.4,42.4,42.4,0,0,1-8.7-.9,50.22,50.22,0,0,1-8.1-2.4,30.1,30.1,0,0,1-6.8-3.7,22.81,22.81,0,0,1-4.8-4.6,5.46,5.46,0,0,1,1.3-2.7,4,4,0,0,1,2.1-1.5,21.94,21.94,0,0,0,7.1,5.2,22.33,22.33,0,0,0,8.9,1.6,17.93,17.93,0,0,0,11.3-3.8q4.91-3.79,9.9-14.7t10.8-30.6Q530.6,160.6,538.79,128.6Zm32.6-72.8a16.37,16.37,0,0,1,.6-3.4,9.2,9.2,0,0,1-2.4-6.8,35,35,0,0,1,.5-5c.34-2.13.8-4.43,1.4-6.9s1.27-5,2-7.5a59.26,59.26,0,0,1,2.3-6.6,17.48,17.48,0,0,1,5.9,1.3,45.74,45.74,0,0,1,7.1,3.4,48,48,0,0,1,6.6,4.6,27,27,0,0,1,4.6,4.7q-2.4,2.2-6,6.2t-7,8.3q-3.39,4.31-6.2,8a26.51,26.51,0,0,0-3.4,5.3,7.93,7.93,0,0,1-4.2-2.1A4.87,4.87,0,0,1,571.39,55.8Z"/><path class="cls-1" d="M605.19,173A25.38,25.38,0,0,1,587,163q-6.79-8.81-6.8-22.4a61.68,61.68,0,0,1,2.4-16.6,80.16,80.16,0,0,1,6.8-16.7A93.57,93.57,0,0,1,599.79,92a75.75,75.75,0,0,1,13-12.4q11-8.2,20.6-8.2,6.4,3.41,12.6,14.2a13.92,13.92,0,0,0,1.8-.1,13.92,13.92,0,0,1,1.8-.1q10.6,0,10.6,18.8a69.59,69.59,0,0,1-4.1,23.9,72.38,72.38,0,0,1-11.4,20.5,68.08,68.08,0,0,1-17.4,15.5A68.93,68.93,0,0,1,605.19,173Zm10.2-63a91.64,91.64,0,0,0-6.4,10,95.69,95.69,0,0,0-5.2,10.9,74.39,74.39,0,0,0-3.4,10.6,40.2,40.2,0,0,0-1.2,9.1,26.62,26.62,0,0,0,1.6,9.2q1.61,4.39,3.6,5a43.52,43.52,0,0,0,16.5-7.5,54.35,54.35,0,0,0,13-13.7,68.13,68.13,0,0,0,8.6-18.6,77.2,77.2,0,0,0,3.1-22.2,43.85,43.85,0,0,0-.6-8.2,15.21,15.21,0,0,0-2-5.2,43,43,0,0,0-15.7,8.4A81.63,81.63,0,0,0,615.39,110Z"/><path class="cls-1" d="M665,162q1-5.81,3.5-15.3t5.9-20.2q3.4-10.69,7.2-21.5T689,85.6a92.33,92.33,0,0,1,4.6-9.7A27.73,27.73,0,0,1,698,70a33.16,33.16,0,0,1,5.8,1.4,45.35,45.35,0,0,1,5.8,2.4,42.61,42.61,0,0,1,5,2.9,17.37,17.37,0,0,1,3.4,2.9,73.31,73.31,0,0,0-9.5,14.6,159.14,159.14,0,0,0-8.3,21q10.8-9.6,19.1-18.4a149.14,149.14,0,0,0,15.5-19.6c.8-.67,2.2-1,4.2-1a16.36,16.36,0,0,1,5.4.9,6.58,6.58,0,0,1,3.6,2.5,53.82,53.82,0,0,0-3.6,19q0,8.81,2.6,13.2-.19,1.2-2.7,4.6a55.77,55.77,0,0,1-5.5,6.4,32,32,0,0,1-9.6-7.7,32.7,32.7,0,0,1-6.2-10.7,138,138,0,0,0-16,12.9,68.91,68.91,0,0,0-11.3,14,85,85,0,0,0-8,17.7,239.19,239.19,0,0,0-6.3,23.8,15.26,15.26,0,0,1-4.3-1.3,36,36,0,0,1-5-2.7,34.39,34.39,0,0,1-4.5-3.4A9.26,9.26,0,0,1,665,162Z"/><path class="cls-1" d="M822,83.2a68.56,68.56,0,0,1-4.4,21.3,46.48,46.48,0,0,1-10.3,15.6A74.53,74.53,0,0,1,791,132.2a177.72,177.72,0,0,1-22.4,10.4c0,.8,0,1.63-.1,2.5s-.1,1.77-.1,2.7a37.78,37.78,0,0,0,.4,5.4,21.25,21.25,0,0,0,1.4,5.2,10,10,0,0,0,2.8,3.9,6.94,6.94,0,0,0,4.6,1.5,25.07,25.07,0,0,0,10.6-2.4,55.41,55.41,0,0,0,9.9-5.9,80,80,0,0,0,8.8-7.6q4.1-4.1,7.3-7.5a40.26,40.26,0,0,1,3.4,3.4,96.38,96.38,0,0,1-19.7,19.9q-10.7,7.91-20.3,10.1-13.8-1.61-21.5-10.1a29.48,29.48,0,0,1-7.7-20.5,63.9,63.9,0,0,1,2.3-16.7,82,82,0,0,1,6.4-16.4,94.12,94.12,0,0,1,9.6-14.9A79.21,79.21,0,0,1,778.49,83a57,57,0,0,1,13-8.2,32.35,32.35,0,0,1,13.3-3Q814,73,822,83.2Zm-13.8,6.6A29.61,29.61,0,0,0,797,94.2a46.75,46.75,0,0,0-10.9,9.6,76.34,76.34,0,0,0-9.3,14,80.66,80.66,0,0,0-6.6,17.2,89.17,89.17,0,0,0,26.6-19.7Q807.4,103.6,808.19,89.8Z"/><path class="cls-1" d="M900.19,86.1a38.26,38.26,0,0,1-1.3,7.9,41.32,41.32,0,0,1-2.7,7.4,28.17,28.17,0,0,1-3.4,5.5c-1.2,1.47-2.33,2.2-3.4,2.2-1.47-.13-2.33-1.13-2.6-3a6.22,6.22,0,0,1,.5-1.9c.33-.87.7-1.83,1.1-2.9s.77-2.13,1.1-3.2a9.7,9.7,0,0,0,.5-2.8,8.1,8.1,0,0,0-1.3-4.7,4,4,0,0,0-3.5-1.9q-8,0-12.2,10t-4.2,29.26a7.86,7.86,0,0,0,.2,2.39h14a4.21,4.21,0,0,1,.2,1.59,3.55,3.55,0,0,1-.8,2.59c-3.07.66-5.5,1.23-7.3,1.69a30.77,30.77,0,0,0-4.1,1.3,3.09,3.09,0,0,0-1.7,1.29,4.91,4.91,0,0,0-.3,1.89c0,1.06,0,2.12.1,3.18s.1,2.39.1,4q0,16.73-9.1,26.91t-25.3,11.78a16.49,16.49,0,0,1-5.8-1.6,27.92,27.92,0,0,1-10.4-8.5,17.17,17.17,0,0,1-2.8-5.5,34.56,34.56,0,0,1,3.2-14.61,40.7,40.7,0,0,1,8.7-12.3,44,44,0,0,1,13-8.66A39.7,39.7,0,0,1,857,132a48,48,0,0,0-1-9.84c-.67-3.21-1.37-6.33-2.1-9.34s-1.43-6-2.1-8.84a37.61,37.61,0,0,1-1-8.54A27.85,27.85,0,0,1,853,84.7a40.89,40.89,0,0,1,5.8-9.85,37.2,37.2,0,0,1,8.4-7.73,30.29,30.29,0,0,1,10-4.42,19,19,0,0,1,5.9,3.5,80.15,80.15,0,0,1,7.3,6.5,70.7,70.7,0,0,1,6.4,7.3A18.59,18.59,0,0,1,900.19,86.1Zm-66,91.2a32.84,32.84,0,0,0,9.1-5.8,43.67,43.67,0,0,0,7.5-8.6,45.9,45.9,0,0,0,5.1-10.2,31.71,31.71,0,0,0,1.9-10.6,22.84,22.84,0,0,0-8.8,3.7,52.05,52.05,0,0,0-9,7.4,50.13,50.13,0,0,0-7,8.9c-1.87,3.07-2.8,5.73-2.8,8A8.46,8.46,0,0,0,834.19,177.3Z"/><path class="cls-1" d="M1019.59,83.2a68.84,68.84,0,0,1-4.4,21.3,46.63,46.63,0,0,1-10.3,15.6,74.53,74.53,0,0,1-16.3,12.1,177.72,177.72,0,0,1-22.4,10.4c0,.8,0,1.63-.1,2.5s-.1,1.77-.1,2.7a37.78,37.78,0,0,0,.4,5.4,20.82,20.82,0,0,0,1.4,5.2,9.88,9.88,0,0,0,2.8,3.9,6.94,6.94,0,0,0,4.6,1.5,25.07,25.07,0,0,0,10.6-2.4,56.12,56.12,0,0,0,9.9-5.9,80.92,80.92,0,0,0,8.8-7.6q4.1-4.1,7.3-7.5a41.82,41.82,0,0,1,3.4,3.4,96.38,96.38,0,0,1-19.7,19.9q-10.71,7.91-20.3,10.1-13.8-1.61-21.5-10.1a29.44,29.44,0,0,1-7.7-20.5,63.48,63.48,0,0,1,2.3-16.7,81.41,81.41,0,0,1,6.4-16.4,94.12,94.12,0,0,1,9.6-14.9A78.75,78.75,0,0,1,976.09,83a57,57,0,0,1,13-8.2,32.32,32.32,0,0,1,13.3-3Q1011.59,73,1019.59,83.2Zm-13.8,6.6a29.55,29.55,0,0,0-11.2,4.4,46.75,46.75,0,0,0-10.9,9.6,76.34,76.34,0,0,0-9.3,14,80.66,80.66,0,0,0-6.6,17.2,89.3,89.3,0,0,0,26.6-19.7Q1005,103.6,1005.79,89.8Z"/><path class="cls-1" d="M1097.79,86.1a38.94,38.94,0,0,1-1.3,7.9,42.92,42.92,0,0,1-2.7,7.4,28.17,28.17,0,0,1-3.4,5.5c-1.2,1.47-2.34,2.2-3.4,2.2-1.47-.13-2.34-1.13-2.6-3a5.93,5.93,0,0,1,.5-1.9c.33-.87.7-1.83,1.1-2.9s.76-2.13,1.1-3.2a9.7,9.7,0,0,0,.5-2.8,8.18,8.18,0,0,0-1.3-4.7,4,4,0,0,0-3.5-1.9q-8,0-12.2,10t-4.2,29.26a7.52,7.52,0,0,0,.2,2.39h14a4.21,4.21,0,0,1,.2,1.59,3.55,3.55,0,0,1-.8,2.59c-3.07.66-5.5,1.23-7.3,1.69a30.77,30.77,0,0,0-4.1,1.3,3,3,0,0,0-1.7,1.29,4.91,4.91,0,0,0-.3,1.89c0,1.06,0,2.12.1,3.18s.1,2.39.1,4q0,16.73-9.1,26.91t-25.3,11.78a16.49,16.49,0,0,1-5.8-1.6,27.92,27.92,0,0,1-10.4-8.5,17,17,0,0,1-2.8-5.5,34.41,34.41,0,0,1,3.2-14.61,40.7,40.7,0,0,1,8.7-12.3,43.91,43.91,0,0,1,13-8.66,39.7,39.7,0,0,1,16.3-3.33,48.74,48.74,0,0,0-1-9.84c-.67-3.21-1.37-6.33-2.1-9.34s-1.44-6-2.1-8.84a37.61,37.61,0,0,1-1-8.54,27.85,27.85,0,0,1,2.2-10.74,40.57,40.57,0,0,1,5.8-9.85,37.2,37.2,0,0,1,8.4-7.73,30.29,30.29,0,0,1,10-4.42,19.12,19.12,0,0,1,5.9,3.5,81.51,81.51,0,0,1,7.3,6.5,70.7,70.7,0,0,1,6.4,7.3A18.78,18.78,0,0,1,1097.79,86.1Zm-66,91.2a32.84,32.84,0,0,0,9.1-5.8,44.34,44.34,0,0,0,7.5-8.6,45.9,45.9,0,0,0,5.1-10.2,32,32,0,0,0,1.9-10.6,22.84,22.84,0,0,0-8.8,3.7,52.05,52.05,0,0,0-9,7.4,49.67,49.67,0,0,0-7,8.9c-1.87,3.07-2.8,5.73-2.8,8A8.46,8.46,0,0,0,1031.79,177.3Z"/><path class="cls-1" d="M1109.78,89.4q-1-1.2-1.8-5.1a34.33,34.33,0,0,1-.8-6.7,66.25,66.25,0,0,0,10,.8h8.8q3-5.93,6.5-11.77t6.8-10.67a92.19,92.19,0,0,1,6.2-8.21,23.94,23.94,0,0,1,4.5-4.35,23.78,23.78,0,0,1,5.1.7,61.31,61.31,0,0,1,6.3,1.8,60,60,0,0,1,5.8,2.3,10.28,10.28,0,0,1,3.6,2.4q-6,7.55-10.3,14t-9.3,14.8h8.1a58.56,58.56,0,0,0,8.3-.6,7.31,7.31,0,0,1,1.6,2.5,8.26,8.26,0,0,1,.6,3.1q-9.79,3.8-23.8,3.8-5,9.63-8.9,19.15t-6.6,18.35a160.39,160.39,0,0,0-4.2,16.64,75.25,75.25,0,0,0-1.5,14q0,8.82,6.6,9.82a46,46,0,0,0,11.4-3,37.82,37.82,0,0,0,9.6-5.6,8.25,8.25,0,0,1,1.4,3,21.1,21.1,0,0,1-4.1,4.17q-2.9,2.39-6.3,4.67a58.05,58.05,0,0,1-6.6,3.87,16.91,16.91,0,0,1-4.8,1.79,26.86,26.86,0,0,1-10-2,41.85,41.85,0,0,1-9.1-5,29.19,29.19,0,0,1-6.7-6.71,12.69,12.69,0,0,1-2.6-7.3,72.33,72.33,0,0,1,1.3-12.12q1.3-7.31,3.7-15.92t5.6-18q3.21-9.4,7-18.62Z"/><path class="cls-1" d="M1168.58,152.6a42.06,42.06,0,0,1,.3-4.5q.3-2.7,1.1-7.2t2.1-10.9q1.31-6.41,3.3-15.4c.27-1.33.87-3.47,1.8-6.4a77.29,77.29,0,0,1,3.7-9.3,59.84,59.84,0,0,1,5.6-9.5,20.66,20.66,0,0,1,7.9-6.8,35,35,0,0,1,9,4.1,30.39,30.39,0,0,1,9.6,9.1,69.52,69.52,0,0,0-7.7,10.4,104,104,0,0,0-5.6,10.8q-2.51,5.59-4.6,11.6t-4.7,12.6q-2.2,5.6-4,11.5a42.54,42.54,0,0,0-2,10.3c0,2.4,0,4.1-.1,5.1s-.43,1.5-1.1,1.5a10.89,10.89,0,0,1-3.2-1,19.38,19.38,0,0,1-4.9-3.1,22.13,22.13,0,0,1-4.5-5.3A14.07,14.07,0,0,1,1168.58,152.6Zm38.2-86.8a16.41,16.41,0,0,1,.6-3.6,8,8,0,0,1-1.7-3,10.91,10.91,0,0,1-.7-3.6,33.11,33.11,0,0,1,.5-4.9c.33-2.07.77-4.3,1.3-6.7s1.2-4.9,2-7.5,1.6-5,2.4-7.1a17.48,17.48,0,0,1,5.9,1.3,46.18,46.18,0,0,1,7.1,3.4,48,48,0,0,1,6.6,4.6,27.35,27.35,0,0,1,4.6,4.7q-2.2,2.2-5.8,6.1t-7,8.2q-3.4,4.3-6.2,8.1a43.73,43.73,0,0,0-3.6,5.4,7.93,7.93,0,0,1-4.2-2.1A4.72,4.72,0,0,1,1206.78,65.8Z"/><path class="cls-1" d="M1215.38,153.2q0-8.8,4.2-24.7t11.8-37.1q12.4-33.79,23.3-56.3T1276,0a24.64,24.64,0,0,1,5.9,2c2.33,1.07,4.63,2.23,6.9,3.5a58.55,58.55,0,0,1,6.1,3.9,15.51,15.51,0,0,1,3.5,3.2A246.85,246.85,0,0,0,1271,52.2a324.33,324.33,0,0,0-21.6,48.6,395.76,395.76,0,0,0-12.8,42.5q-4.39,18.9-4.4,31.5V179a6.74,6.74,0,0,0,.2,1.6,15.61,15.61,0,0,1-4.8-1.4,5.18,5.18,0,0,1-2.6-2.4,11.22,11.22,0,0,0-2.2-2.9,23.4,23.4,0,0,0-3.2-2.9q-1.8-1.2-3-6.3A50.34,50.34,0,0,1,1215.38,153.2Z"/><path class="cls-1" d="M1285.58,173a25.38,25.38,0,0,1-18.2-10q-6.81-8.81-6.8-22.4A61.68,61.68,0,0,1,1263,124a79.62,79.62,0,0,1,6.8-16.7,93.57,93.57,0,0,1,10.4-15.3,75.75,75.75,0,0,1,13-12.4q11-8.2,20.6-8.2,6.39,3.41,12.6,14.2a14.13,14.13,0,0,0,1.8-.1,13.92,13.92,0,0,1,1.8-.1q10.59,0,10.6,18.8a69.59,69.59,0,0,1-4.1,23.9,72.63,72.63,0,0,1-11.4,20.5,68.08,68.08,0,0,1-17.4,15.5A69,69,0,0,1,1285.58,173Zm10.2-63a91.64,91.64,0,0,0-6.4,10,94,94,0,0,0-5.2,10.9,74.39,74.39,0,0,0-3.4,10.6,40.2,40.2,0,0,0-1.2,9.1,26.62,26.62,0,0,0,1.6,9.2c1.07,2.93,2.26,4.6,3.6,5a43.52,43.52,0,0,0,16.5-7.5,54.35,54.35,0,0,0,13-13.7,68.43,68.43,0,0,0,8.6-18.6,77.55,77.55,0,0,0,3.1-22.2,43.85,43.85,0,0,0-.6-8.2,15.21,15.21,0,0,0-2-5.2,43,43,0,0,0-15.7,8.4A81.63,81.63,0,0,0,1295.78,110Z"/><path class="cls-1" d="M1419.18,86.1a38.94,38.94,0,0,1-1.3,7.9,42.92,42.92,0,0,1-2.7,7.4,28.17,28.17,0,0,1-3.4,5.5c-1.2,1.47-2.34,2.2-3.4,2.2-1.47-.13-2.34-1.13-2.6-3a5.93,5.93,0,0,1,.5-1.9c.33-.87.7-1.83,1.1-2.9s.76-2.13,1.1-3.2a9.7,9.7,0,0,0,.5-2.8,8.18,8.18,0,0,0-1.3-4.7,4,4,0,0,0-3.5-1.9q-8,0-12.2,10t-4.2,29.26a7.52,7.52,0,0,0,.2,2.39h14a4.21,4.21,0,0,1,.2,1.59,3.55,3.55,0,0,1-.8,2.59c-3.07.66-5.5,1.23-7.3,1.69a30.77,30.77,0,0,0-4.1,1.3,3,3,0,0,0-1.7,1.29,4.91,4.91,0,0,0-.3,1.89c0,1.06,0,2.12.1,3.18s.1,2.39.1,4q0,16.73-9.1,26.91t-25.3,11.78a16.49,16.49,0,0,1-5.8-1.6,27.92,27.92,0,0,1-10.4-8.5,17,17,0,0,1-2.8-5.5,34.41,34.41,0,0,1,3.2-14.61,40.7,40.7,0,0,1,8.7-12.3,43.91,43.91,0,0,1,13-8.66A39.7,39.7,0,0,1,1376,132a48.74,48.74,0,0,0-1-9.84c-.67-3.21-1.37-6.33-2.1-9.34s-1.44-6-2.1-8.84a37.61,37.61,0,0,1-1-8.54A27.85,27.85,0,0,1,1372,84.7a40.57,40.57,0,0,1,5.8-9.85,37.2,37.2,0,0,1,8.4-7.73,30.29,30.29,0,0,1,10-4.42,19.12,19.12,0,0,1,5.9,3.5,81.51,81.51,0,0,1,7.3,6.5,70.7,70.7,0,0,1,6.4,7.3A18.78,18.78,0,0,1,1419.18,86.1Zm-66,91.2a32.84,32.84,0,0,0,9.1-5.8,44.34,44.34,0,0,0,7.5-8.6,45.9,45.9,0,0,0,5.1-10.2,32,32,0,0,0,1.9-10.6,22.84,22.84,0,0,0-8.8,3.7,52.05,52.05,0,0,0-9,7.4,49.67,49.67,0,0,0-7,8.9c-1.87,3.07-2.8,5.73-2.8,8A8.46,8.46,0,0,0,1353.18,177.3Z"/><path class="cls-2" d="M149.33,486.08c0,5.94,0,9.59,6.39,9.59h13.7v1.83H83.55v-1.83H96.34c7.31,0,7.31-4.11,7.31-9.59v-201c0-5.94,0-9.59-6.39-9.59H83.55v-1.83h89.07c50.7,0,93.18,18.72,93.18,68.05,0,48-53,68.06-95,68.06H149.33Zm7.76-79.93c39.74,0,61.21-25.12,61.21-64.41,0-39.73-21-64.4-61.21-64.4h-7.76V406.15Z"/><path class="cls-3" d="M232.45,495.67h17.82c7.31,0,11.42-4.57,13.24-9.59L345.73,271,427,486.08c1.83,5.48,5,9.59,11.42,9.59h11v1.83h-90v-1.83h11.42c7.31,0,9.14-4.57,7.31-9.59l-23.3-62.58h-63l-23.75,62.58c-1.83,5.48-.91,9.59,5.48,9.59H301v1.83H232.45Zm121-75.36-30.14-79.94-30.6,79.94Z"/><path class="cls-4" d="M449.42,495.67h12.79c7.31,0,7.31-4.11,7.31-9.59v-201c0-5.94,0-9.59-6.4-9.59h-13.7v-1.83h80.39c59.83,0,98.2,18.72,98.2,68.05C628,384.68,581,408,542.6,408,581,408,596,439,618.42,476.49c5.48,10.05,13.7,19.18,21,19.18h12.79v1.83H577.77l-56.64-88.16h-5.94v76.74c0,5.94,0,9.59,6.4,9.59h13.7v1.83H449.42Zm65.77-218.33V406.15h3.66c38.82,0,58.92-20.1,58.92-64.41s-19.19-64.4-58.92-64.4Z"/><path class="cls-5" d="M632.58,495.67h17.81c7.31,0,11.42-4.57,13.25-9.59L745.86,271l81.3,215.13c1.83,5.48,5,9.59,11.42,9.59h11v1.83h-90v-1.83H771c7.31,0,9.13-4.57,7.31-9.59L755,423.5H692l-23.75,62.58c-1.83,5.48-.92,9.59,5.48,9.59h27.4v1.83H632.58Zm121-75.36-30.15-79.94-30.6,79.94Z"/><path class="cls-6" d="M957.79,273.69h161.69l8.68,36.54h-1.83c-11-19.18-37.45-34.71-59.38-34.71h-5.48V486.08c0,5.94,0,9.59,6.39,9.59h13.71v1.83H995.7v-1.83h12.79c7.3,0,7.3-4.11,7.3-9.59V275.52h-5c-25.58,0-46.13,13.7-58.92,34.71H950Z"/><path class="cls-7" d="M1151.45,495.67h12.79c7.31,0,7.31-4.11,7.31-9.59v-201c0-5.94,0-9.59-6.4-9.59h-13.7v-1.83l85.87-.46v1.83h-12.79c-7.31,0-7.31,4.11-7.31,9.59v201c0,5.94,0,9.59,6.4,9.59h13.7V497l-85.87.46Z"/></g></g></svg>