<svg xmlns="http://www.w3.org/2000/svg" viewBox="0 0 249.29 215.21"><defs><style>.cls-1{fill:#c08f2c;}</style></defs><g id="Capa_2" data-name="Capa 2"><g id="Capa_1-2" data-name="Capa 1"><path class="cls-1" d="M218.31,121c5.33.41,9,.84,12.42-3.46,3.65-4.62,11.49-3.57,15.57.94a11.36,11.36,0,0,1-.78,16.13c-4.46,4-12.38,4.28-15.6-.72-3.08-4.78-6.89-4.88-11.38-4.84a15.59,15.59,0,0,1-4-.21c-4-1-6,.52-8,4.22-4.38,8.16-14.33,11.21-22.9,7.22-3.17-1.48-5.18-1.2-7.29,1.25a13.25,13.25,0,0,1-2.25,2c-4.64,3.28-7.95,6.6-5.51,13.33,1.61,4.43-.26,9.33-3.48,13-2,2.24-1.73,4-.29,6.15a48,48,0,0,1,3.16,5.65c1.44,3,3.28,4.7,7,5.23,6.67,1,10.25,7.22,8.74,13.85-1.36,6-7.7,9.75-13.92,8.25-6-1.45-10.46-8.11-7.8-13.9,2.33-5.1-.16-8-2-11.73-2.15-4.41-4.35-8.17-10.28-6.37a3.83,3.83,0,0,1-2.93-.27c-5.68-4-9-.18-12.37,3.58a42.33,42.33,0,0,1-4.26,4.21c-3.19,2.66-4.94,5.45-4.44,10.13.67,6.31-5,11.35-11.33,11.26a11.65,11.65,0,0,1-11.26-11.19c-.13-6.3,5.09-12.41,11.18-11.39,5.15.87,7.65-1.48,10.48-4.54a49.1,49.1,0,0,1,3.92-3.85c4-3.42,7.35-6.66,4.1-12.78-1.49-2.79-.78-6.64.65-9.74,1.09-2.34.38-3.71-1.45-5a19.84,19.84,0,0,1-2.6-2.33c-3.86-4.08-7.42-7.24-13.88-3.7-3.84,2.11-8.92.91-12.86-1.73-2.6-1.74-4.51-1.78-7,.29C92,143,88,145.59,84.05,148.44s-7.82,5.1-7.77,11.43c0,5.83-7.1,9.64-13.07,8.41a11.35,11.35,0,0,1-9-13.41c1.42-6.49,7.36-10.53,14-8.64,3.41,1,5.56.25,8-1.77a99,99,0,0,1,8.46-6.18c5.65-3.73,11.48-6.93,8.69-15.73-1-3.07.84-7,3.31-9.62,2.33-2.45,1.92-4.34.23-6.86a119.72,119.72,0,0,1-6-10.39c-2.09-4-4-7.3-9.52-7.93-6.06-.7-9.35-8-7.49-14.1a11.56,11.56,0,0,1,14.44-7.39c6.11,2,9.67,8.83,7,14.9-1.35,3.07-.93,5.14.62,7.67,2.77,4.55,5.45,9.15,7.94,13.85,1.25,2.34,2.53,3.15,5.41,2.84,13.63-1.49,23.62,10.85,19.41,24-.86,2.7-.76,4.34,1.63,5.81a10.32,10.32,0,0,1,2.2,2c3.8,4.31,7.56,7.14,13.89,3.78,3.86-2.05,8.59-.78,12.5,1.35,2.21,1.2,3.66.82,5.27-.74a48.77,48.77,0,0,1,3.76-3.28c4-3.2,7.21-5.88,5.13-12.49-2.14-6.76,1.47-13.08,7.38-17.26,2.2-1.56,2.61-3,1.94-5.4-1.32-4.61-1.38-9.33-7.32-11.76-5.37-2.19-6.24-10.38-2.84-15.32a11.53,11.53,0,0,1,15.9-3.06c5.15,3.52,7,11.09,2.82,15.81-4.81,5.42-.82,10.19-.18,15.21.21,1.64,2.18,1.14,3.4,1.4,6.1,1.28,11.11,4.43,13.18,10.29,1.53,4.32,3.88,5.61,8,5.18A20.79,20.79,0,0,1,218.31,121Z"/><path class="cls-1" d="M101.86,211.2c-30.61,11.18-68.63-1.67-86.46-30.39-20-32.24-20.12-65.71-2.67-99.28C28.76,50.69,51.3,25,76.41,1.4,77.92,0,79-.72,80.9,1.07,109.46,28,135,57.14,150.52,93.81a86.41,86.41,0,0,1,7,34c0,3-.36,4.06-3.82,3.56-7.5-1.09-7.44-.85-7.87-8.35-.82-14.47-6.16-27.55-13-40-13.49-24.6-31.36-45.8-51.22-65.44-1.75-1.74-3-2.64-5.19-.41C53.87,39.84,33.35,64,19.82,93.31c-11.83,25.62-10.76,51.17,2,76C34.7,194.44,63,207.68,90.69,202.36c2.94-.57,4.93-.54,6.38,2.64C98.07,207.19,100.05,208.92,101.86,211.2Z"/></g></g></svg>