<?xml version="1.0" encoding="utf-8"?>
<!-- Generator: Adobe Illustrator 26.2.1, SVG Export Plug-In . SVG Version: 6.00 Build 0)  -->
<svg version="1.1" id="Capa_1" xmlns="http://www.w3.org/2000/svg" xmlns:xlink="http://www.w3.org/1999/xlink" x="0px" y="0px"
	 viewBox="0 0 207.3 213.6" style="enable-background:new 0 0 207.3 213.6;" xml:space="preserve">
<style type="text/css">
	.st0{fill:#C08F2C;}
</style>
<g id="a">
</g>
<g id="b">
	<g id="c">
		<path class="st0" d="M204.2,205.2c-11.5-11.5-22.8-23-34.5-34.3c-2.9-2.8-4.1-5.7-4.3-9.8c-1.5-31.9-1.2-63.9-3.7-95.8
			c-0.7-8.9-0.1-18.5-4.9-26.1C144.3,19,127.2,4.5,102.9,1C82-2.1,62.3,2.6,43.2,10.8c-1.9,0.8-3.5,1.6-5.9,1.1
			c-8.5-1.9-12.4,0-15.1,8.2c-1.9,5.8-5.2,10.1-9.3,14.4C-1.2,49.5-4.3,77.2,6.5,92c2.6,3.6,3.6,5.9-0.4,9
			c-3.6,2.9-4.6,8.7-1.2,10.4c7.5,3.6,8.5,8.8,8.1,15.8c-0.4,6.6,5.8,12.6,2.3,19.8c-0.5,0.9-0.2,2.5,0.3,3.4
			c4.1,7.8,2.5,16.1,1.7,24.1c-1,10.2-2.1,20.6-8.3,29.5c-0.9,1.3-3.8,2.5-1.2,4.4c2.1,1.5,3.3-0.8,4.5-2.2
			c2.6-3.1,4.1-6.8,5.3-10.7c2.5-8.4,3.7-17,4.2-25.7c0.6-9.9,0.5-9.6,10.5-9.9c4.5-0.1,5.4,1.1,5.4,5.3c0,13.4,0.4,26.8,0.8,40.2
			c0.1,2.5-0.7,7.2,4.2,2.8c-1.2-36.2-2-72.4-1.2-108.6c0.4-16,2.1-31.9,3-47.8c0.1-1.9,1.3-5-1.6-5.3c-3-0.3-2.3,2.9-2.4,4.8
			c-1,14-2,28-2.9,42.1c-1.3,18.8-0.1,37.6-0.2,56.4c0,2,1.2,5-1.3,5.6c-4.6,1.2-9.5,0.8-13.6-1.8c-3.4-2.2-4.1-5.5-2.1-9.2
			c5.1-5.5,0-10.1-1.2-15.1c-1.9-3.6-3-7.2-1.4-11.5c1.2-3.2-1.4-4.9-4.3-6.2c-7.7-3.4-7.9-4.2-2-10.5c5.4-5.8,7.4-12.3,5.8-20
			c-0.5-2.3-0.6-4.6-0.8-6.9c1.8-2.4,1.7-4.8-0.2-7.1c-0.6-4.1,0.9-7.9,2.5-11.5c2.9-7,6.3-13.7,13.7-17.2c6.5-3.1,11.8,0,17,3.4
			c1,0.7,2.2,1.2,3.1-0.1c1.4-2.1-0.4-2.8-1.7-3.8c-10-8-22.1-6-30,5C13.1,54.3,10,66.5,12.6,80c0.7,3.8,2.3,7.8-1,11.6
			c-3.9-3.3-5.5-7.7-6.5-12.2C0.8,60.6,9,40.3,25,29.4c3.7-2.5,7.5-5,10.5-8.2c4.5-4.8,7-2.8,9.4,1.6c3.5,6.5,8.3,12,14.2,16.4
			c1.3,1,2.8,2.5,4.2,0.6c1.5-2-0.5-3-1.8-3.8c-7.1-4.8-10.8-12.2-15.7-18.8c-1.9-2.5-0.6-2.8,1.3-3.9c4.3-2.5,5.4,1.2,6.8,3.6
			c4.8,8.3,10.5,15.6,19.4,19.7c1.7,0.8,3.7,2.5,5,0.5c1.4-2.2-1-3-2.8-3.8c-8.5-4-14-10.8-18.3-18.9c-0.7-1.4-3.5-3-0.5-4.5
			c1.8-0.9,4.3-2.2,6.2,0.8c2,3.2,4.3,6.2,6.4,9.3c5.1,7.5,12.6,11.8,20.6,15.3c1.4,0.6,2.8,1.1,3.6-0.5c0.9-1.8-0.6-2.4-1.9-3
			c-1.7-0.8-3.3-1.7-5-2.5C76.9,24.7,71,16.6,65.9,7.2c4.4-0.6,6.2,2.4,8.3,4.3c10.4,9.5,22,16.8,35.7,20.4c3,0.8,7.6,4.4,9,0.3
			c1-3.1-4.9-3.2-7.7-4C97,24,85,16.7,74.6,5.7c2.4-0.5,4.2-1,6,0.3c8.9,6.6,19.4,9.2,29.7,12.5c8.1,2.6,16.2,5.6,22.2,11.8
			c4.8,4.9,10,8.5,16.7,9.8c3.7,0.8,5.4,2.8,6.1,6.6c1.7,8.3,2.5,16.8,2.8,25.2c1.2,29.7,2.3,59.4,3.4,91.1
			c-4.9-5.2-11.7-9.3-11.5-12.9c0.6-8.4-2-15.5-3.4-23.2c-2.3-12.9-3.2-26.1-4.8-39.2c-1.9-15.6-3.7-31.3-5.6-46.9
			c-0.2-1.7,0.1-4.3-2.7-3.9c-2.2,0.4-1.4,2.6-1.3,4.1c0,1.2,0.2,2.3,0.3,3.5c2.6,21.7,5.3,43.4,7.9,65.1c0.4,3.1,1,6.3-0.3,9.5
			c-2.4-1.4-2.6-5.3-5.1-4.6c-5,1.4-4.2-1.8-4.5-4.5c-1.3-12.8-2.7-25.7-4-38.6c-1.1-10.3-2-20.6-3.1-30.9c-0.2-1.6-0.4-3.6-2.6-3.3
			c-1.8,0.2-1.5,2.1-1.5,3.4c0.2,2.8,0.5,5.6,0.8,8.4c2,19.7,4,39.4,6,59.6c-7.3-4.2-10.5-9.5-11.2-17.3c-1.4-16.4-3.7-32.7-5.9-49
			c-0.3-2.3,0.5-6.6-2.6-6.4c-3.7,0.3-1.5,4.2-1.3,6.5c2,17.3,3.8,34.6,6.4,51.8c1,6.8-2.5,9.5-7.2,13c-2.2-22-4.3-43.3-6.5-64.5
			c-0.2-2.1,0.5-5.7-2.8-5.3c-2.6,0.3-1.3,3.5-1.2,5.4c2,20.6,3.6,41.2,6.3,61.7c1,7.3-1.8,11.2-7.5,15.8c-1.5-18.1-3-35.4-4.5-52.6
			C87.5,59.4,86.8,51.2,86,43c-0.1-1.4-0.4-3.1-2.2-2.9c-2,0.2-1.6,1.9-1.6,3.3c0,1.2,0.2,2.4,0.2,3.5c1.8,21.3,3.8,42.6,5.3,64
			c0.4,6,3.6,12.5-2,18.1c-1,1,0,2.8,1.3,3.6c3,2,3,5,3.2,8.1c0.7,9.1,1.4,18.3,2.4,27.4c1.5,14,1.6,28.1,4.1,42v0
			c3.3,0.5,3.3-1.6,3.1-3.9c-0.3-4.2-0.6-8.4-1-12.7c-1.5-17.6-2.9-35.2-4.4-53.3c8,5.7,10.2,9.8,11.1,18.4
			c1.4,14.7,2.9,29.5,4.5,44.2c0.3,2.3-0.5,6.6,2.5,6.4c3.7-0.2,1.2-4.1,1.5-6.4c0.1-0.7-0.1-1.4-0.1-2.1c-1.5-14.9-3-29.8-4.5-44.8
			c8,1.7,11.1,6.3,11.6,13.9c0.8,11.5,2.6,22.9,4.1,34.3c0.3,2.1-0.5,5.7,2.8,5.2c2.8-0.4,1.4-3.5,1.2-5.4
			c-1.3-11.9-3-23.8-4.2-35.7c-0.2-1.6-3.1-5,1.4-5.3c3.4-0.2,5.8,0.6,6.1,5.4c0.7,12.4,2.3,24.8,3.7,37.2c0.2,1.7-0.9,5.1,2.5,4.5
			c2.9-0.5,1.5-3.4,1.3-5.4c-1.1-11.5-2.5-22.9-3.3-34.4c-0.2-2.9-3.2-8.3,2.1-8.6c3.7-0.2,7.3,3.7,8.8,7.9c0.4,1.1,0.2,2.3,0.4,3.5
			c1.3,10.3,2.5,20.5,3.8,30.8c0.2,2-0.2,5.3,2.3,5.2c3.5-0.3,1.9-3.7,1.6-5.7c-1.1-10.2-2.4-20.3-3.7-31c7.5,4,11.7,8.9,11.5,17.4
			c-0.1,5.8,1.7,11.6,2.8,17.3c0.3,1.5,0.8,3.6,3,3.1c2.4-0.6,1.3-2.6,0.9-4.1c-1.8-6.8-3-13.6-2.8-21.7c11.1,9.3,21.4,18,31.9,26.6
			c1.9,1.6,3.6,4.8,6.9,1.3C209,208.6,206,207.1,204.2,205.2z M119.3,17.3c-10.9-3.6-22.4-6-34-13c28.4-2,47.7,10.5,63.3,30.5
			C136.9,32.4,130.5,21,119.3,17.3z M96.2,135.7c-5.1-4.4-6.4-7.2-0.7-12.2c5.6-4.9,10.5-10.8,15.2-16.5c2.5-3,4.1-2.7,6.5-0.1
			c2.9,3,6.1,5.9,9.3,8.5c2.4,2,3.3,3.3,0.7,6.1c-2.7,2.9-3.8,0.9-5.4-0.9c-1.3-1.4-2.5-2.8-3.9-4.1c-1.1-1-2.2-3.2-3.9-1.6
			c-2,1.9,0.1,3.3,1.2,4.7c1.6,1.8,3.3,3.4,4.8,5.1c0.9,1,2.3,1.8,0.9,3.4c-1.3,1.5-2.4,1.8-4.1,0.5c-2.5-2.1-5.3-3.9-8-5.7
			c-1.3-0.9-2.9-2.3-4.2-0.2c-1.1,1.7,0.6,2.5,1.7,3.3c3.1,2.4,6.4,4.7,9.6,7l0,0C106.9,145.3,107.2,145,96.2,135.7z M171.4,181.9
			C171.4,181.9,171.4,181.9,171.4,181.9L171.4,181.9c-9.1-7.5-18.2-14.8-27.1-22.4c-2.9-2.5-5.2-3.7-9.2-1.8
			c-5.5,2.5-23.7-3.4-26.4-7.9c-1.4-2.2,0.9-2.9,1.8-3.9c7.8-8.7,15.8-17.3,24.3-26.6c5.5,9.5,15.3,16.7,10.2,29.6
			c-1.2,2.9,1.5,4.2,3,5.8c8.3,8.5,16.8,17,25.1,25.5l0,0c4.7,4.4,9.4,8.9,14.2,13.3C180.9,190.9,176,186.6,171.4,181.9z"/>
		<path class="st0" d="M81.3,171.9c0.2,10,0.5,20,0.8,30c0.1,2.7,0.9,5.6-1.1,8c-0.9-0.4-1.8-0.8-2.7-1.2
			c-1.8-50.9-3.7-101.9-5.6-152.9c-0.1-2.3-0.4-4.7-0.1-7c0.3-2.3-1.8-6.3,1.7-6.4c3.4-0.1,2.2,4.1,2.3,6.3
			c1.5,39,2.9,77.9,4.3,116.9c0,1.2,0.3,2.3,0.4,3.5C82.1,170,82.1,170.9,81.3,171.9L81.3,171.9z"/>
		<path class="st0" d="M49.1,208.4C48.7,156,50.2,103.6,51,51.2c0-1.9-0.9-5.1,2-5c3.1,0,1.8,3.3,1.8,5.1c0,18.1-0.2,36.2-0.3,54.3
			c-1.3,32.7-1.4,65.4-1.5,98.1C53,205.9,54.9,210.6,49.1,208.4L49.1,208.4z"/>
		<path class="st0" d="M61.3,105.5c-0.3-17.1-0.6-34.2-0.9-51.4c0-1.6-0.2-3.3-0.1-4.9c0.1-2-0.7-5.3,1.9-5.3c3.4,0,2.1,3.5,2.2,5.6
			c0.4,9.6,0.6,19.2,0.8,28.9C66.1,120,67,161.5,67.9,203c0,1.9,0,3.7-1,5.4c-4.6-0.5-3-4.2-3-6.6c-0.8-29.8-1.5-59.6-2.2-89.4
			C61.6,110.2,61.5,107.9,61.3,105.5L61.3,105.5z"/>
		<path class="st0" d="M31.9,179.8c-0.3,9.1-0.9,18.3-4.5,26.9c-0.6,1.4-1.2,3.4-3.4,2.6c-1.7-0.6-1.3-2.2-0.7-3.6
			c4.4-10.4,4.3-21.4,4.5-32.5c0-2-1.4-5.7,2.1-5.6c3.1,0.1,1.8,3.7,2,5.8C32,175.6,31.9,177.7,31.9,179.8L31.9,179.8z"/>
		<path class="st0" d="M29.2,83c3.6-9-0.2-17.9-0.1-26.8c1.9-4.2,3.2-8.8,6.7-12.2c1.1-1,2.2-1.9,3.5-0.5c1,1.1,0.5,2.1-0.4,3
			c-5.9,6.3-6,13.6-4.5,21.7c1.2,6.4,0.7,13.2-1.9,19.4c-1,2.3-2.5,5.8-5.2,4.3c-3.5-1.9,1-3.6,1.3-5.5C28.8,85.3,29,84.1,29.2,83
			L29.2,83z"/>
		<path class="st0" d="M171.4,181.9C171.4,181.9,171.4,181.9,171.4,181.9L171.4,181.9L171.4,181.9
			C171.4,181.9,171.4,181.9,171.4,181.9z"/>
		<path class="st0" d="M24.7,23.5c2.5-4.6,3.6-9.8,10.6-8C32.2,18.8,29.9,22.4,24.7,23.5z"/>
	</g>
</g>
</svg>
