<svg xmlns="http://www.w3.org/2000/svg" viewBox="0 0 474.93 411.52"><defs><style>.cls-1{fill:#c08f2c;}</style></defs><g id="Capa_2" data-name="Capa 2"><g id="Capa_1-2" data-name="Capa 1"><path class="cls-1" d="M471,77.39c-8.82-8.89-17.52-17.9-26.57-26.55Q378.1-12.72,287.53,3.24,229.89,13.5,172.26,23.91C123.81,32.6,75.34,41.18,26.92,50,14.23,52.35,5.63,59.93,1.5,72.34c-.3.91-.11,2.27-1.5,2.62v13c.69.23.75.82.94,1.42,6,19,22,28.49,41.3,24.32C102.84,100.6,163.38,87.23,224,74.39c28.81-6.1,57.3-13.86,86.61-17.41a197.65,197.65,0,0,1,87.7,9.31C420,73.56,440.78,82.92,462,91.19c5.28,2.06,9.21,1.26,11.56-2.3S475.22,81.6,471,77.39Zm-61.79-24.2A220.88,220.88,0,0,0,320.12,40c-20.73,1.09-40.84,6.1-61,10.48q-106,23-212,45.82c-3,.65-6,1.35-9.06,1.91-10.81,2-19.59-3.57-21.62-13.6-1.86-9.19,4.09-17.13,14.84-19.12,27-5,54-9.79,81.05-14.65C159.65,42.34,207,33.72,254.4,25.41c21.7-3.81,43.2-9.53,65.4-9.6q64.24-.18,111.07,44.1c.51.48.92,1.05,1.95,2.26C424.41,59,416.85,56,409.24,53.19Z"/><path class="cls-1" d="M428.57,100.2C414.33,93.22,400.18,86.06,386,79c-9.63-4.81-14.8-1.63-14.8,9.11,0,28.45,0,56.89.06,85.33a9.76,9.76,0,0,1-2.63,7c-7.33,8.36-14.45,16.92-21.76,25.3q-33.94,38.88-84.23,50.6C243,260.87,223,260,203.09,259.7c-38.16-.64-71.26-14.26-99.64-39.67-9.51-8.51-16.85-18.87-25.06-28.5-10-11.72-23-17.83-38.32-19-1.25-.1-3.52-1.23-3.63,1.33-.21,4.47-.95,9.25.33,13.33.76,2.4,5.54,1.2,8.41,2,.45.13.88.29,1.33.4,12.66,3,20.39,12.15,27.62,22,1,1.36.31,2.29-.17,3.34a56.3,56.3,0,0,1-22,25c-3.18,2-8.73,1.93-9.33,5.5S45,252.86,46,256.74c.66,2.66,1.8,2.58,3.87,1.75a71.73,71.73,0,0,0,21.55-13.27A75.49,75.49,0,0,0,86.45,225.7a177.63,177.63,0,0,0,19.48,17c1.76,1.29,1.58,2.49,1,4.33A112.72,112.72,0,0,1,86.5,285.61c-2.42,3-7.51,5.56-6.78,9,.7,3.3,5.2,5.8,8,8.66a3.4,3.4,0,0,1,.32.34c1.21,1.6,2.26,1.66,3.61,0,3.5-4.32,7.31-8.39,10.69-12.79a118.05,118.05,0,0,0,18.09-34.17c1-3,2.09-3.33,4.71-1.78a113.62,113.62,0,0,0,19.21,9c2.68,1,3.35,2.37,3.12,5.07a131.14,131.14,0,0,1-9.61,40.31c-1.49,3.53-4.81,7.64-3.94,10.47,1,3.22,6.61,3.68,9.88,5.89,3,2,4,.75,5.21-1.9,7.46-15.91,12.5-32.49,14.11-50,.25-2.69.87-3.35,3.62-2.66a133.42,133.42,0,0,0,32,4.37c3.47,0,3.95,1.26,3.53,4.38-2,14.69-3.78,29.41-5.58,44.12-.81,6.71-.74,6.72,5.73,7.66,9,1.32,9,1.32,10.38-7.61.19-1.22.33-2.46.48-3.68,1.67-13.49,3.3-27,5-40.45.23-1.73-.26-4,3.07-4,6.79.08,13.59-.28,20.38-.59,2.12-.1,2.87.49,3.13,2.73,1.74,15,3.76,30,5.5,45.06,1.16,10,1,10,10.94,8.47,6.39-1,6.25-1,5.37-7.65-2.08-15.77-4-31.56-6.06-47.33-.34-2.6.18-3.71,3.07-4.3a162.26,162.26,0,0,0,18.29-4.92c3.41-1.13,4.69-.49,5.42,3a142.34,142.34,0,0,0,15.19,39.54c1.85,3.35,3.56,8.47,6.29,9.2,3.22.86,6.48-3.83,10-5.61,3-1.53,2.82-3,1.15-5.61A135.33,135.33,0,0,1,302,263.16c-.44-2-.77-3.34,1.57-4.41a116.3,116.3,0,0,0,19.21-11.06c2.57-1.83,3.47-1.17,4.39,1.56a79.79,79.79,0,0,0,24.55,35.81c6.89,5.88,6.87,5.9,11.95-1.71a21.94,21.94,0,0,1,2.08-3.06c2.22-2.31,1.34-3.6-1-5.32-12.44-9.29-20.47-21.58-24.52-36.57a4.32,4.32,0,0,1,1.49-5.13c4.45-4.06,8.84-8.2,13-12.59,5.42-5.78,10.55-11.83,16.51-18.55v6q0,96,0,192c0,8.64,2.75,11.41,11.3,11.42q21.11,0,42.2,0c7.48,0,10.35-2.95,10.35-10.43q0-145.14.07-290.3C435.12,105.58,433.11,102.43,428.57,100.2Zm-9.39,262.13c0,9.89-.11,19.77.07,29.66.06,2.92-.86,3.66-3.66,3.6-8-.18-16.07-.24-24.09,0-3.51.12-4.38-.92-4.37-4.39.13-35.68.08-71.36.08-107,0-35.53.11-71.06-.12-106.59,0-4.67,1.33-5.61,5.63-5.39,7.25.37,14.53.34,21.78,0,3.85-.18,4.79.88,4.78,4.76Q419.07,269.64,419.18,362.33ZM407.09,156.4h-4.16c-4.16,0-8.32-.1-12.47,0-2.28.08-3.19-.48-3.32-3-.67-13-.75-13,12.24-13,5.39,0,10.78.13,16.17-.06,2.69-.09,3.69.49,3.72,3.5C419.39,156.4,419.51,156.4,407.09,156.4ZM419,122.59c.2,3.11-3,1.59-4.64,1.69-3.7.25-7.42.08-11.13.08-4.17,0-8.35-.11-12.52,0-2.42.09-3.64-.36-3.56-3.23.2-6.79.15-13.6,0-20.4-.06-3,.9-3,3.18-1.79,8.79,4.49,17.67,8.79,26.46,13.26C421.6,114.68,418.78,119.13,419,122.59Z"/></g></g></svg>