<svg xmlns="http://www.w3.org/2000/svg" viewBox="0 0 184.59 224.25"><defs><style>.cls-1{fill:#c08f2c;}</style></defs><g id="Capa_2" data-name="Capa 2"><g id="Capa_1-2" data-name="Capa 1"><path class="cls-1" d="M165.93,19.7a40,40,0,0,1-14.4-10.16c-2.17-2.3-4.49-4.46-6.69-6.73s-4.9-4.21-7.73-1.43-.86,5.41,1.42,7.68c5,4.93,10,9.77,14.8,14.88,6,6.47,7.59,14,3.93,23.93-4.36-4.79-8-8.86-11.72-12.84-2.1-2.23-4.66-3.76-7.35-1.14s-1.21,5.11,1,7.31c4.24,4.24,8.56,8.41,12.62,12.81.87.94,1.52,3.14,1,4.09-2.23,4.16-4.92,8.08-7.41,12-4.13-4-7.8-7.65-11.54-11.2-2.33-2.22-4.69-5.8-8.27-2.35-3.44,3.3-.7,6.1,1.85,8.36,4.35,3.86,8.88,7.53,13.37,11.32L128.59,90.82c-4-4.25-7.71-8.28-11.5-12.25-2.29-2.41-5-4.73-8-1.51-2.82,3-.65,5.48,1.64,7.66,4.09,3.89,8.2,7.74,12.33,11.64L111.37,109c-5.14-5.22-9.66-9.84-14.21-14.42-2.28-2.29-4.93-4.07-7.7-1.1-2.53,2.7-.86,5.22,1.33,7.34,4.3,4.17,8.62,8.32,13.5,13-4.47,2.64-8.3,4.87-12.1,7.15-2.13,1.27-3.74,1.12-5.58-.87a141,141,0,0,0-12.82-12.59c-1.43-1.19-4.33-.6-6.56-.82.07,2.22-.27,4.58.36,6.64.43,1.41,2.2,2.4,3.36,3.6,2.72,2.78,5.42,5.57,8.38,8.62-13.06,3.62-23.7,1.63-32.11-8.81-3-3.74-6.78-6.88-10.19-10.3-2.34-2.37-4.92-4.72-8-1.53-2.88,3-.66,5.42,1.58,7.64,2.84,2.81,5.47,5.88,8.52,8.43,4.29,3.58,6.38,7.91,7.35,13.45,2.35,13.49,2.6,13.44-9.53,20.35-18,10.29-30.36,25.22-35.77,45.35-3.27,12.21.41,19.32,11.35,24.06h6c4.09-1.78,8.48-3.08,12.22-5.42,18-11.22,30.09-27.1,35.81-47.48,3-10.61,10.51-15.64,20-18.85a35.59,35.59,0,0,1,5.33-1.25,85.24,85.24,0,0,0,39-17.91A195.48,195.48,0,0,0,165.39,98c9.55-12.85,16.61-26.75,18.84-42.91C186.31,40,179.35,25.13,165.93,19.7Zm1.5,58.58c-12.11,21.8-29.22,39.07-49.44,53.38-9,6.39-19.45,9.17-30.07,11.47a47.68,47.68,0,0,0-10.4,3.36c-9.36,4.44-16.29,10.95-19.19,21.53A71.2,71.2,0,0,1,30.9,208a54.05,54.05,0,0,1-11.2,6.38c-6.75,2.72-11.34-.91-10.58-8.13,1.17-11.22,6.55-20.74,14.06-28.6a106.84,106.84,0,0,1,20.15-16c12.8-8.1,14.29-10.34,12.33-25.47a5.87,5.87,0,0,1,.3-1.55c21,5,38.83-2.61,54.86-14.82C131.43,104,147.65,84.21,160.89,62c5.47-9.18,8.64-19.07,6.53-31a21.85,21.85,0,0,1,8,16.3C176,58.45,172.74,68.72,167.43,78.28Z"/><path class="cls-1" d="M81.82,18.19c1.57.86,3.06,1.32,4.08,2.28,3.86,3.65,7.6,7.44,11.32,11.24,2.11,2.15,3.07,5,.4,6.85-1.42,1-5,.59-6.4-.58A98.76,98.76,0,0,1,79.57,26.4c-1.06-1.21-1.3-3.61-1-5.34C78.68,20,80.54,19.25,81.82,18.19Z"/><path class="cls-1" d="M63,35.25a10.08,10.08,0,0,1,2.67,1.23c4.38,4.26,8.9,8.43,12.88,13.05.91,1.06.55,4.26-.43,5.55-.72,1-4.14,1.24-5.11.39A162,162,0,0,1,59.7,42.18c-.78-.87-.56-3.25,0-4.56C60.24,36.52,62,36,63,35.25Z"/><path class="cls-1" d="M115.76,24.9c-1.41-.67-2.64-.94-3.42-1.69a128.61,128.61,0,0,1-11.2-11.32c-1-1.29-.24-4.09-.28-6.2,2.09,0,4.91-.87,6.16.16a99.45,99.45,0,0,1,11.62,11.6c.92,1.06.91,3.48.44,5C118.77,23.52,116.93,24.1,115.76,24.9Z"/><path class="cls-1" d="M62.93,71.68c-.61.9-1.19,2.75-2.24,3.08-1.52.47-3.94.48-5-.44a118.9,118.9,0,0,1-11.9-12c-.87-1-.6-4,.28-5.2.71-1,3.89-1.68,4.67-1,4.73,4.11,9.09,8.63,13.51,13.08C62.66,69.64,62.62,70.48,62.93,71.68Z"/><path class="cls-1" d="M49.36,93.71c-.16,3.6-4.21,5.68-6.94,3.38A90.79,90.79,0,0,1,31.88,86.51c-.86-1-.83-3.76,0-4.89s3.87-2.13,4.52-1.56c4.46,3.89,8.55,8.2,12.72,12.42C49.37,92.77,49.3,93.42,49.36,93.71Z"/><path class="cls-1" d="M101.39,46.27a7.36,7.36,0,0,1,2.24,1.09c3,2.86,6.21,5.61,8.69,8.89.93,1.23.84,4.52-.16,5.55s-4.36,1.25-5.54.34A53.48,53.48,0,0,1,97.5,53C95.28,50.22,97.51,46.29,101.39,46.27Z"/><path class="cls-1" d="M95.56,77.88c-.41.57-1,2.27-2.12,2.72-1.32.53-3.59.59-4.54-.22a80,80,0,0,1-9.44-9.51c-.76-.9-.61-3.23,0-4.44a5,5,0,0,1,3.6-2.05C85.84,64.14,95.53,74.22,95.56,77.88Z"/><path class="cls-1" d="M114.17,27.79a21.07,21.07,0,0,1,3.68,2.15c2.67,2.49,5.56,4.87,7.61,7.81,1,1.47.42,4.07.55,6.17-2.09.07-4.8,1-6.15,0a44,44,0,0,1-8.43-8.37c-.91-1.15-1-3.47-.57-5C111.16,29.48,112.93,28.78,114.17,27.79Z"/><path class="cls-1" d="M76.93,94.16c.16,3.14-3.08,5.88-5.56,4.07A53.22,53.22,0,0,1,60.93,88c-1.7-2.18,1.22-5.76,4.15-5.67C67.72,82.37,76.78,91.46,76.93,94.16Z"/><path class="cls-1" d="M61.43,109.06c-.27,4.56-4,6.6-6.73,4.66a24.13,24.13,0,0,1-6.58-6.63c-.8-1.27-.24-4.27.83-5.54.76-.89,4-.93,5.1-.06C57,103.88,59.45,107,61.43,109.06Z"/></g></g></svg>