<svg xmlns="http://www.w3.org/2000/svg" viewBox="0 0 383.14 383.21"><defs><style>.cls-1{fill:#c08f2c;}</style></defs><g id="Capa_2" data-name="Capa 2"><g id="Capa_1-2" data-name="Capa 1"><path class="cls-1" d="M336.4,281h-98c-6.42,0-8.52,2.11-8.53,8.52q0,23.38,0,46.76c0,6.4,2.17,8.59,8.49,8.6h98c6.35,0,8.51-2.18,8.51-8.56q0-23.39,0-46.76C344.88,283.16,342.8,281,336.4,281Zm-7.35,51.17c-13.84-.11-27.68-.06-41.52-.06s-27.43-.06-41.15.06c-2.75,0-3.9-.42-3.83-3.59.22-10.59.17-21.19,0-31.79,0-2.53.76-3.12,3.16-3.12q41.7.1,83.41,0c2.56,0,3.07.86,3,3.22q-.18,16.08,0,32.17C332.22,331.57,331.48,332.22,329.05,332.2ZM336.4,281h-98c-6.42,0-8.52,2.11-8.53,8.52q0,23.38,0,46.76c0,6.4,2.17,8.59,8.49,8.6h98c6.35,0,8.51-2.18,8.51-8.56q0-23.39,0-46.76C344.88,283.16,342.8,281,336.4,281Zm-7.35,51.17c-13.84-.11-27.68-.06-41.52-.06s-27.43-.06-41.15.06c-2.75,0-3.9-.42-3.83-3.59.22-10.59.17-21.19,0-31.79,0-2.53.76-3.12,3.16-3.12q41.7.1,83.41,0c2.56,0,3.07.86,3,3.22q-.18,16.08,0,32.17C332.22,331.57,331.48,332.22,329.05,332.2Zm53.3-64.59c-3-11.63-10.14-19.58-21.52-23.3-2.82-.92-3.25-2.13-3.23-4.63.09-13.47,0-26.93.06-40.4,0-3.83-1.45-6.6-5.32-7.45a2.26,2.26,0,0,1-2-2.21c-2.69-14.77-11.56-25.34-23.23-33.94-11.14-8.22-23.7-13.56-36.84-17.58-2.4-.73-3.05-1.75-3-4.11.17-5.86.22-11.73,0-17.58-.82-24.65-7-47.74-21.12-68.21-20-29-48.92-42.6-82.91-46.53A266.48,266.48,0,0,0,93.06,7C75.07,11.13,58,17.71,44,30.2,32,40.85,25.11,53.72,25.38,70.43c.49,30.29.12,60.6.17,90.9a11.33,11.33,0,0,1-1.59,6q-11.3,19.53-22.42,39.18c-2.63,4.63-1.94,7.41,2.51,10.42S13.13,223,17.73,226a5.25,5.25,0,0,1,2.59,3.78c2.39,12.47,4.84,24.92,7.44,37.34,2.91,13.91,11.34,22.71,25.18,26,5.6,1.33,11.42.66,17.14.76,11.31.2,22.34,1.79,32.54,7,8.27,4.25,12.51,10.82,12.41,20.41-.2,17.82.09,35.66,0,53.49,0,3.92,1.12,6.75,4.73,8.42H367.42a17.47,17.47,0,0,0,15.72-15.71v-98C382.14,269.17,382.52,268.27,382.35,267.61Zm-37.43-60c-.37,3.06,1.31,7.13-.67,8.93-1.68,1.52-5.67.54-8.63.56-7.11,0-14.21,0-21.31,0-4.84,0-7.59,2.3-7.67,6.25-.09,4.15,2.63,6.47,7.73,6.49,9.23,0,18.45.09,27.67,0,2.35,0,3.08.65,2.89,2.94a40,40,0,0,0,0,7.09c.23,2.46-.8,2.83-3,2.83q-54.58-.09-109.17,0c-2.21,0-3-.45-3-2.85-.08-10-.17-10,9.69-10,15.58,0,31.16,0,46.74,0,3.31,0,5.92-1,7.11-4.26,1.61-4.47-1.62-8.47-6.91-8.5-12.34-.06-24.68,0-37,0-5.6,0-11.21-.08-16.82,0-2.05.05-2.92-.42-2.76-2.65.23-3.21-1-7.38.57-9.41s6-.68,9.23-.7c16-.07,31.91,0,47.86,0,18.07,0,36.14.06,54.21-.07C344.38,204.32,345.23,205.08,344.92,207.66Zm-63.3-54.46c0-1.33,0-2.67,0-4.39,17.12,5,33.19,11.28,45.92,24a38.71,38.71,0,0,1,9.7,16.15c.65,2.12.21,2.75-2.11,2.75q-47.65-.11-95.32,0c-2.6,0-2.78-.69-2.16-2.95,3.57-12.81,9.78-16.51,20.27-16.39a39,39,0,0,0,9.26-1C276.68,169.11,281.58,162.94,281.62,153.2ZM153.29,219.38V364.87c0,5.56,0,5.56-5.4,5.56-5.74,0-11.48-.12-17.2.06-2.35.08-2.9-.63-2.89-2.9.07-14.22-.53-28.45.08-42.64,1.06-24.63-13.27-34.26-29.63-39.66-9.53-3.16-19.43-4.24-29.45-4.27-3.62,0-7.24.09-10.84-.15a18.81,18.81,0,0,1-17.48-15.29q-4.23-20.65-8.24-41.36a9.6,9.6,0,0,0-4.5-6.92c-3.6-2.22-7-4.77-10.62-6.94-2-1.2-2-2.14-.85-4,6.69-11.5,13.19-23.12,19.87-34.62a15.43,15.43,0,0,0,2.17-8.12c-.07-28.4,0-56.81,0-86.11,8.39,6.89,16.16,13.27,23.92,19.67Q98.42,127,134.61,156.82c5.35,4.4,8.44,4,12.2-1.66,7.24-10.84,18-10.91,25.4-.17,8.95,13,8.87,35.35-.23,48.15-2.82,4-6.31,7-11.44,7.62C154.56,211.55,153.29,213.16,153.29,219.38Zm38.32,144.29a4.69,4.69,0,0,1,0,.75c-.3,2,1.7,4.71.39,5.57-1.58,1.05-4.31.42-6.54.43-5.36,0-10.73-.19-16.08.09-3,.16-3.4-.89-3.39-3.55.11-23.44.06-46.88.06-70.32s0-47.13-.06-70.69c0-2.32.56-3.42,2.83-4.3,7.85-3,13.27-8.92,16.68-16.33,9-19.66,8.84-39.19-2.95-57.69-8.26-12.95-22.39-16.84-34.68-10.46a18.34,18.34,0,0,0-6.28,4.62c-1.83,2.33-3.07,1.78-5.05.14Q99.4,111.18,62.13,80.57c-6.93-5.7-13.77-11.52-20.84-17-2.32-1.82-2.56-3.48-1.56-6C44,46.74,51.85,39.12,61.43,33.11,75,24.57,90.18,20.18,105.8,17.38a272.45,272.45,0,0,1,69.25-3.77c23,1.79,44.58,7.93,62.93,22.65C257.48,51.9,267.59,73,272.4,97c2.32,11.58,2.29,23.28,2.26,35,0,1.5-.42,2.2-1.86,2.62-3.39,1-4.64,3.55-4.52,6.87.12,3.49.43,7,.54,10.46.16,5.23-.65,6.29-5.85,7.23a50.4,50.4,0,0,1-7.07.51c-14.39.52-24.13,7.52-29.05,21.05a43.85,43.85,0,0,0-2.2,7.89c-.32,1.94-.79,2.88-2.91,3.44-3.69,1-4.67,4-4.65,7.6.06,13.34,0,26.68.06,40,0,2.49-.36,3.8-3.21,4.68a31.4,31.4,0,0,0-22.3,30.31C191.55,304.33,191.61,334,191.61,363.67Zm169.78,6.76H213.24c-6.88,0-8.88-2-8.88-8.92q0-42.47,0-84.92c0-13.25,7.89-21.13,21.17-21.14H349.36c13.07,0,21,7.91,21,20.89q0,42.65,0,85.3C370.39,368.46,368.37,370.43,361.39,370.43Zm-25-89.4h-98c-6.42,0-8.52,2.11-8.53,8.52q0,23.38,0,46.76c0,6.4,2.17,8.59,8.49,8.6h98c6.35,0,8.51-2.18,8.51-8.56q0-23.39,0-46.76C344.88,283.16,342.8,281,336.4,281Zm-7.35,51.17c-13.84-.11-27.68-.06-41.52-.06s-27.43-.06-41.15.06c-2.75,0-3.9-.42-3.83-3.59.22-10.59.17-21.19,0-31.79,0-2.53.76-3.12,3.16-3.12q41.7.1,83.41,0c2.56,0,3.07.86,3,3.22q-.18,16.08,0,32.17C332.22,331.57,331.48,332.22,329.05,332.2Z"/><path class="cls-1" d="M336.4,281h-98c-6.42,0-8.52,2.11-8.53,8.52q0,23.38,0,46.76c0,6.4,2.17,8.59,8.49,8.6h98c6.35,0,8.51-2.18,8.51-8.56q0-23.39,0-46.76C344.88,283.16,342.8,281,336.4,281Zm-7.35,51.17c-13.84-.11-27.68-.06-41.52-.06s-27.43-.06-41.15.06c-2.75,0-3.9-.42-3.83-3.59.22-10.59.17-21.19,0-31.79,0-2.53.76-3.12,3.16-3.12q41.7.1,83.41,0c2.56,0,3.07.86,3,3.22q-.18,16.08,0,32.17C332.22,331.57,331.48,332.22,329.05,332.2Z"/><path class="cls-1" d="M336.4,281h-98c-6.42,0-8.52,2.11-8.53,8.52q0,23.38,0,46.76c0,6.4,2.17,8.59,8.49,8.6h98c6.35,0,8.51-2.18,8.51-8.56q0-23.39,0-46.76C344.88,283.16,342.8,281,336.4,281Zm-7.35,51.17c-13.84-.11-27.68-.06-41.52-.06s-27.43-.06-41.15.06c-2.75,0-3.9-.42-3.83-3.59.22-10.59.17-21.19,0-31.79,0-2.53.76-3.12,3.16-3.12q41.7.1,83.41,0c2.56,0,3.07.86,3,3.22q-.18,16.08,0,32.17C332.22,331.57,331.48,332.22,329.05,332.2Z"/></g></g></svg>