<?xml version="1.0" encoding="UTF-8"?><svg xmlns="http://www.w3.org/2000/svg" viewBox="0 0 233.98 241.19"><defs><style>.d{fill:#c08f2c;}</style></defs><g id="a"/><g id="b"><g id="c"><path class="d" d="M83.97,75.08c-.56,1.04-1.81,1.35-3.15,.73-1.89-.88-3.76-1.83-5.85-2.17-.97-.16-1.95-.28-2.93-.41h-4.97l-1.29,.06c-1.12,.38-2.25,.65-3.44,.5-2.37,.23-4.66,.87-6.97,1.38-1.66,.36-2.89-.41-2.98-1.85-.06-1.05,.42-1.89,1.43-2.13,7.26-1.75,14.55-3.36,22.08-1.79,2.48,.52,4.84,1.36,7.02,2.67,1.32,.79,1.68,1.87,1.06,3.02Z"/><path class="d" d="M80.27,99.83c.78,1.04,1.48,2.15,2.16,3.26,.7,1.15,.47,2.31-.5,2.96-1,.67-2.3,.4-3.05-.67-.82-1.19-1.64-2.38-2.38-3.62-.39-.64-.77-.74-1.46-.48-1.53,.59-3.13,.92-4.76,1.02-.68,.04-.88,.26-.86,.91,.04,1.31,.04,2.61,0,3.92-.05,1.51-.78,2.28-2.08,2.29-1.35,.02-2.11-.8-2.13-2.35-.03-1.4-.05-2.8,0-4.19,.03-.65-.22-.92-.81-1.06-1.64-.38-3.22-.95-4.67-1.81-.57-.33-.8-.13-1.09,.33-.69,1.1-1.42,2.19-2.15,3.27-.85,1.26-2,1.59-3.1,.92-1.14-.7-1.32-1.93-.46-3.29,.72-1.14,1.45-2.28,2.25-3.37,.45-.61,.4-.98-.12-1.52-1.92-1.96-3.24-4.3-4.1-6.9-.47-1.42,.02-2.57,1.21-2.97,1.23-.41,2.3,.15,2.8,1.57,1.67,4.69,4.85,7.83,9.57,9.41,.3,.1,.63,.11,.95,.17,5.11,1.68,11.88-.85,15.21-5.68,.32-.46,.62-.93,.9-1.41,.9-1.52,1.46-1.76,3.2-1.33,1.23,1.34,1.32,2.06,.42,3.61-1.23,2.12-2.77,3.98-4.73,5.45-.69,.52-.72,.89-.23,1.56Z"/><path class="d" d="M103.65,115.85c-1.84,1.24-3.92,1.65-6.91,1.77-1.72,0-4.2-.31-6.38-1.77-1.34-.9-1.7-2.09-1.01-3.19,.72-1.13,1.85-1.23,3.28-.44,2.91,1.61,5.86,1.62,8.76-.01,1.4-.78,2.57-.67,3.27,.46,.68,1.08,.27,2.31-1.03,3.19Z"/><path class="d" d="M105.84,139.63c-2.54,.67-5.14,.89-7.75,.95-4.27,.09-8.46-.47-12.54-1.72-.22-.06-.42-.2-.65-.04,.46,3.89,3.9,7.26,8.34,8.31,2.92,.69,5.8,.71,8.7-.1,1.58-.44,2.69,.13,2.99,1.4,.31,1.29-.41,2.24-1.95,2.69-4.16,1.21-8.3,1.06-12.37-.36-5.98-2.08-9.37-6.35-10.24-12.58-.15-1.08-.56-1.59-1.5-2.04-1.29-.62-2.51-1.41-3.69-2.22-1.34-.92-1.59-2.13-.8-3.21,.76-1.04,1.98-1.22,3.19-.27,.95,.75,1.65,.72,2.68,.06,3.08-1.97,6.38-3.46,10.06-3.91,2.25-.27,4.38,.06,6.28,1.3,.62,.41,.99,.4,1.56,0,1.78-1.23,3.8-1.73,5.94-1.68,1.45,.03,2.29,.8,2.31,2.06,.03,1.33-.78,2.13-2.32,2.17-1.49,.03-2.82,.44-4.05,1.29-2.04,1.39-3.52,1.35-5.51-.09-1.05-.76-2.22-.91-3.45-.83-2.71,.18-5.09,1.32-7.67,2.74,6.88,2.82,13.69,3.43,20.69,2.14,.32-.06,.64-.15,.96-.18,1.19-.11,2.14,.58,2.37,1.7,.22,1.06-.42,2.12-1.58,2.42Z"/><path class="d" d="M171.14,47.35c-4.04-10.1-9.92-19.01-17.92-26.37C133.8,3.15,110.98-3.37,85.13,1.63c-17.44,3.38-31.88,12.24-43.23,25.92-10.36,12.48-16.05,26.86-16.75,43.11-.42,9.69-.03,19.4-.02,29.09,0,5.54-.43,10.99-2.12,16.28-2.1,6.59-5.15,12.63-9.84,17.83C5.2,142.72,.76,153.19,.09,165.09c-.75,13.36,3.22,25.27,11.67,35.67,1.87,2.3,3.97,4.38,6.17,6.41-.47,.41-.86,.75-1.24,1.09-7.31,6.57-12.06,14.6-13.77,24.34-.35,2.03-.48,4.08-.54,6.12-.05,1.53,.78,2.44,2.07,2.47,1.33,.03,2.12-.8,2.21-2.34,.01-.23,.02-.47,.03-.7,.21-8.65,3.28-16.22,8.92-22.68,8.65-9.9,19.73-14.65,32.8-14.97,3.45-.08,6.91,.26,10.33-.26,1.2-.18,1.61,.17,1.91,1.23,.56,1.98,1.45,3.84,2.47,5.62,6.71,11.69,16.73,18.57,30.11,20.27,9.3,1.18,17.96-.95,25.88-6,1.31-.84,1.67-2.12,.94-3.19-.72-1.05-1.93-1.18-3.33-.31-6.52,4.08-13.6,5.91-21.3,5.46-13.81-.81-26.52-10.42-30.84-23.34-.28-.85-.25-1.23,.64-1.7,6.91-3.63,10.64-9.25,10.56-17.2-.03-3.49,0-6.98,0-10.46,.22-.02,.32-.06,.39-.02,.34,.16,.66,.34,.99,.52,4.23,2.34,8.72,4,13.48,4.84,10.74,1.89,20.61-.5,29.86-6.04,1.08-.64,2.08-2.16,3.33-1.63,1.15,.48,1.7,2.02,2.4,3.18,.12,.2,.21,.41,.32,.62,2.95,5.68,3.8,11.84,4.06,18.12,.31,7.44-.47,14.8-1.66,22.13-.35,2.15,.5,3.95,2.22,4.84,1.78,.93,3.57,.63,5.24-.94,2.21-2.08,4.19-4.38,5.98-6.83,6.23-8.55,9.15-18.04,7.93-28.65-.98-8.56-4.21-16.29-9.03-23.35-2.58-3.77-4.22-7.83-5.04-12.29-.66-3.6-.78-7.22-.73-10.86,.03-1.62-.79-2.56-2.11-2.56-1.31,0-2.12,.94-2.14,2.54-.04,2.75-.02,5.5,.3,8.24,.67,5.86,2.17,11.43,5.59,16.35,2.29,3.3,4.23,6.8,5.79,10.51,7.02,16.76,2.89,32.05-9.81,44.04,.09-.77,.13-1.27,.21-1.77,1.59-9.89,2.33-19.82,.71-29.78-.96-5.91-2.74-11.52-6.71-16.18-2.38-2.78-4.31-5.85-5.94-9.1-2.19-4.36-3.94-8.89-3.95-13.85-.03-21.5,.04-43,0-64.5-.02-8.63-.65-17.23-2.1-25.74-1.43-8.39-3.44-16.6-7.43-24.21-2.12-4.04-4.78-7.67-8.39-10.52-1.6-1.27-3.13-.93-3.81,.84-3.5,9.17-9.03,17-15.83,23.97-11.05,11.33-24.44,18.78-39.46,23.44-2.02,.63-2.32,1.03-2.32,3.19,0,9.42,.06,18.84-.02,28.26-.06,7.76-.84,15.45-3.04,22.93-1.28,4.36-2.91,8.57-6.5,11.67-1.19,1.04-1.39,2.29-.54,3.29,.8,.95,2.14,.92,3.35-.1,1.76-1.49,3.17-3.27,4.31-5.28,1.58-2.77,2.71-5.71,3.58-8.76,.12-.42,0-1.03,.81-1.08,1.97-.12,2.35,.12,2.79,2.03,.11,.45,.18,.92,.3,1.37,4.47,17.46,13.16,32.24,27.55,43.41,.62,.48,.85,.97,.85,1.74-.03,4.2-.14,8.4,.02,12.59,.29,7.6-5.36,12.73-10.91,14.31-3.62,1.03-7.32,.7-10.98,.69-9.86-.05-18.97,2.46-27.29,7.76-.66,.42-1.04,.43-1.66-.1-18.19-15.76-21.73-41.96-8.39-62.04,1.89-2.85,4.41-5.19,6.41-7.92,6.58-8.94,10.33-18.97,10.55-30.11,.2-9.74-.02-19.49-.02-29.23,0-16.3,4.85-31.06,15.33-43.52C63.19,8.97,87.11,.21,115.43,5.94c24.62,4.98,41.85,19.8,51.73,42.99,.86,2.01,1.85,2.72,3.24,2.16,1.3-.53,1.55-1.72,.74-3.73Zm-100.3,114.25c-13.31-11.5-21.15-26.13-24.45-43.31-.37-1.91-.95-2.42-2.94-2.35-2.93,.11-2.94,.11-2.49-2.72,.91-5.67,1.36-11.38,1.34-17.13-.03-8.16,.03-16.32-.04-24.48-.01-1.32,.35-1.9,1.64-2.32,12.12-3.97,23.21-9.86,32.95-18.15,9.1-7.74,16.44-16.84,21.44-27.75,.09-.2,.22-.38,.39-.67,2.94,2.87,4.95,6.26,6.59,9.87,3.52,7.76,5.23,15.99,6.41,24.37,1.2,8.56,1.48,17.17,1.46,25.81-.05,20.15-.12,40.29,.05,60.44,.06,6.79,2.43,13.04,6.21,18.71,1.72,2.57,1.72,2.59-.9,4.19-8.41,5.15-17.43,7.46-27.27,5.64-7.76-1.43-14.5-5.04-20.41-10.15Z"/><path class="d" d="M226.74,197.94c.15-.23,.29-.46,.43-.69,2.37-3.81,2.59-7.8,.44-11.67-2.06-3.7-5.3-5.74-9.73-5.6-2.61,.09-5.22,0-7.83,.03-.65,0-.97-.12-1.1-.87-1.71-9.97-7.77-16.79-16.11-21.87-3.11-1.9-6.51,.15-6.51,3.79,0,3.31,.04,6.62,.05,9.93,0,2.58-.94,4.73-3.01,6.31-1.62,1.23-3.49,1.94-5.48,2.31-3.7,.7-7.44,.32-11.16,.39-2.45,.04-4.69,.66-6.66,2.13-4.63,3.44-5.77,9.92-2.65,15.03,.28,.46,.78,.76-.13,1.22-3.24,1.66-4.33,4.18-3.56,7.76,1.44,6.69,2.88,13.38,4.29,20.08,1.94,9.19,8.77,14.76,18.17,14.76,6.57,0,13.15,0,19.72,0,5.08,0,10.17,.11,15.24-.08,8.18-.31,15.21-6.33,16.68-14.37,1.21-6.64,2.11-13.34,3.13-20.01,.7-4.58-.18-6.34-4.22-8.55Zm-60.14-13.7c2.75-.04,5.49-.02,8.24-.05,3.51-.03,6.78-.99,9.88-2.61,4.38-2.81,6.16-6.88,5.96-12-.11-2.82-.02-5.65-.02-8.65,1.84,1.01,3.43,2.19,4.94,3.49,4.5,3.87,7.76,8.5,9.01,14.41,.2,.95,.02,1.23-.95,1.17-1.21-.07-2.42-.03-3.63-.01-1.62,.01-2.56,.77-2.62,2.09-.06,1.26,.92,2.14,2.53,2.15,6.06,.03,12.12,.02,18.18,.02,3.19,0,5.89,2.18,6.49,5.26,.66,3.42-1.04,6.73-4.07,7.88-.25,.1-.54,.1-.82,.14-.02,.01-.05,.03-.07,.04-.67,.36-1.41,.24-2.11,.24-16.95,.01-33.9,.01-50.85,0-3.83,0-6.71-2.84-6.78-6.68-.08-3.87,2.77-6.83,6.69-6.89Zm60.25,21.06c-.99,6.49-1.99,12.98-2.95,19.48-.97,6.55-6.49,11.76-13.07,11.84-12.03,.14-24.06,.13-36.09,0-6.26-.07-11.12-4.6-12.58-11.29-.77-3.5-1.46-7.03-2.27-10.52-.28-1.22,.05-1.45,1.24-1.44,11.24,.04,22.48,.02,33.71,.03,1.11,0,2.18-.08,2.7-1.28,.59-1.34-.15-2.71-1.6-2.95-.5-.08-1.02-.06-1.53-.06-11.47,0-22.94-.03-34.41,.03-1.1,0-1.47-.34-1.59-1.34-.1-.87-.37-1.73-.53-2.6-.43-2.21,.36-3.15,2.62-3.15,10.63,0,21.26,0,31.89,0,10.54,0,21.08,0,31.61,0,2.46,0,3.21,.87,2.84,3.26Z"/><path class="d" d="M183.35,87.51c-.06,3.31-.84,6.69-2.52,9.82-.64,1.19-.59,2.19-.01,3.41,9.9,20.76,19.75,41.54,29.62,62.32,.74,1.57,.59,2.69-.44,3.35-1.16,.75-2.52,.29-3.2-1.14-3.37-7.06-6.72-14.13-10.08-21.19-6.61-13.92-13.21-27.85-19.85-41.76-1.06-2.22-1.13-4.35,0-6.56,3.03-5.91,2.98-11.79-.19-17.65-2.26-4.17-4.43-8.4-6.67-12.59-1.09-2.05-2.18-2.36-4.2-1.29-8.52,4.51-17.04,9.01-25.55,13.53-2.51,1.33-3.02,3.02-1.69,5.54,2.15,4.08,4.28,8.17,6.48,12.21,3.02,5.54,7.71,8.69,13.96,9.55,.6,.08,1.07-.09,1.58-.36,2.59-1.38,5.17-2.77,7.79-4.1,1.59-.81,3.18,.06,3.26,1.71,.05,1.02-.52,1.63-1.36,2.08-1.69,.89-3.33,1.89-5.07,2.66-1.25,.55-.91,1.12-.41,1.97,6.78,11.51,13.54,23.04,20.31,34.56,.64,1.08,1.28,2.17,1.9,3.26,.85,1.49,.66,2.74-.51,3.4-1.15,.65-2.29,.2-3.18-1.32-5.12-8.71-10.24-17.42-15.35-26.14-2.36-4.01-4.71-8.03-7.05-12.06-.48-.83-1.09-1.28-2.08-1.41-8.41-1.09-14.45-5.49-18.24-13.08-1.7-3.41-3.52-6.77-5.34-10.13-2.45-4.51-2.28-6.86,.98-10.79,.52-.62,.06-.94-.14-1.33-2.16-4.12-4.35-8.23-6.53-12.34-.56-1.05-.63-2.07,.32-2.93,.84-.75,1.78-.7,2.7-.08,.49,.33,.68,.88,.94,1.36,2.06,3.86,4.13,7.71,6.13,11.61,.51,.99,.89,1.27,1.96,.64,2.4-1.43,2.43-1.36,1.1-3.85-1.9-3.57-3.8-7.15-5.67-10.75-.72-1.37-.44-2.54,.65-3.14,1.18-.65,2.31-.25,3.09,1.2,2.18,4.06,4.35,8.13,6.46,12.22,.43,.83,.79,.99,1.56,.48,.97-.64,2.58-.82,2.89-1.76,.31-.94-.85-2.04-1.38-3.06-1.78-3.43-3.62-6.83-5.39-10.27-.75-1.46-.16-2.92,1.25-3.23,1.23-.27,2.01,.34,2.58,1.41,2.11,4.04,4.29,8.05,6.38,12.11,.48,.93,.86,1.12,1.74,.53,.92-.62,2.41-.88,2.77-1.69,.39-.87-.79-1.94-1.29-2.92-1.77-3.44-3.61-6.83-5.41-10.25-.7-1.32-.5-2.43,.49-3.11,1.13-.78,2.47-.36,3.24,1.06,2.17,4.06,4.35,8.12,6.46,12.22,.44,.86,.73,.95,1.63,.52,3.23-1.53,6.94-.32,8.65,2.85,2.64,4.87,5.2,9.78,7.74,14.7,1.57,3.04,2.18,6.32,2.2,9.97Z"/><path class="d" d="M233.97,169.78v-51.76c0-17.21,0-34.41,0-51.62,0-6.23-3.79-10.04-9.98-10.05-7.55,0-15.11,.01-22.66-.01-6.07-.02-9.97,3.84-9.97,9.94,0,14.74,0,29.47,0,44.21,0,.47-.01,.94,.05,1.4,.16,1.07,.85,1.65,1.89,1.73,1.03,.08,1.82-.4,2.14-1.42,.13-.43,.14-.92,.14-1.38,0-5.74,.03-11.47-.02-17.21,0-.99,.15-1.36,1.27-1.36,10.54,.05,21.08,.04,31.62,0,1.04,0,1.33,.26,1.32,1.32-.05,7.79-.06,15.58,0,23.36,.01,1.18-.38,1.36-1.42,1.36-8.21-.04-16.42-.03-24.62-.03-.79,0-1.6-.06-2.37,.05-1.18,.17-1.82,.98-1.79,2.14,.03,1.09,.69,1.81,1.79,2.01,.41,.07,.84,.03,1.26,.03,8.63,0,17.26,.01,25.88-.02,.93,0,1.28,.18,1.27,1.21-.04,8.72-.04,17.44,0,26.16,0,.99-.26,1.24-1.23,1.23-4.48-.06-8.95-.03-13.43-.03-1.63,0-2.61,.76-2.66,2.01-.05,1.34,.96,2.21,2.61,2.21,4.48,.01,8.95,.05,13.43-.02,1.09-.02,1.3,.31,1.28,1.33-.06,4.85-.04,9.7-.01,14.55,0,1.38,.93,2.28,2.15,2.25,1.16-.02,1.99-.89,2.06-2.2,.03-.46,0-.93,0-1.4Zm-5.6-81.72c-5.22-.06-10.44-.03-15.66-.03s-10.54-.03-15.8,.02c-.99,0-1.36-.16-1.35-1.28,.06-6.85,.02-13.7,.03-20.56,0-3.58,2.05-5.62,5.63-5.62,7.69-.01,15.38,0,23.07,0,3.36,0,5.44,2.13,5.45,5.52,0,6.85-.03,13.7,.03,20.56,0,1.13-.31,1.39-1.4,1.38Z"/><path class="d" d="M131.08,110.06c0-3.26,0-6.51,0-9.77,0-1.71,.8-2.7,2.13-2.7,1.34,0,2.11,.97,2.11,2.7,0,6.56,0,13.12,0,19.68,0,1.69-.72,2.58-2.04,2.61-1.4,.03-2.18-.88-2.19-2.61-.01-3.3,0-6.61,0-9.91h0Z"/><path class="d" d="M83.97,75.08c-.56,1.04-1.81,1.35-3.15,.73-1.89-.88-3.76-1.83-5.85-2.17-.97-.16-1.95-.28-2.93-.41h-4.97l-1.29,.06c-1.12,.38-2.25,.65-3.44,.5-2.37,.23-4.66,.87-6.97,1.38-1.66,.36-2.89-.41-2.98-1.85-.06-1.05,.42-1.89,1.43-2.13,7.26-1.75,14.55-3.36,22.08-1.79,2.48,.52,4.84,1.36,7.02,2.67,1.32,.79,1.68,1.87,1.06,3.02Z"/><path class="d" d="M80.27,99.83c.78,1.04,1.48,2.15,2.16,3.26,.7,1.15,.47,2.31-.5,2.96-1,.67-2.3,.4-3.05-.67-.82-1.19-1.64-2.38-2.38-3.62-.39-.64-.77-.74-1.46-.48-1.53,.59-3.13,.92-4.76,1.02-.68,.04-.88,.26-.86,.91,.04,1.31,.04,2.61,0,3.92-.05,1.51-.78,2.28-2.08,2.29-1.35,.02-2.11-.8-2.13-2.35-.03-1.4-.05-2.8,0-4.19,.03-.65-.22-.92-.81-1.06-1.64-.38-3.22-.95-4.67-1.81-.57-.33-.8-.13-1.09,.33-.69,1.1-1.42,2.19-2.15,3.27-.85,1.26-2,1.59-3.1,.92-1.14-.7-1.32-1.93-.46-3.29,.72-1.14,1.45-2.28,2.25-3.37,.45-.61,.4-.98-.12-1.52-1.92-1.96-3.24-4.3-4.1-6.9-.47-1.42,.02-2.57,1.21-2.97,1.23-.41,2.3,.15,2.8,1.57,1.67,4.69,4.85,7.83,9.57,9.41,.3,.1,.63,.11,.95,.17,5.11,1.68,11.88-.85,15.21-5.68,.32-.46,.62-.93,.9-1.41,.9-1.52,1.46-1.76,3.2-1.33,1.23,1.34,1.32,2.06,.42,3.61-1.23,2.12-2.77,3.98-4.73,5.45-.69,.52-.72,.89-.23,1.56Z"/><path class="d" d="M103.65,115.85c-1.84,1.24-3.92,1.65-6.91,1.77-1.72,0-4.2-.31-6.38-1.77-1.34-.9-1.7-2.09-1.01-3.19,.72-1.13,1.85-1.23,3.28-.44,2.91,1.61,5.86,1.62,8.76-.01,1.4-.78,2.57-.67,3.27,.46,.68,1.08,.27,2.31-1.03,3.19Z"/><path class="d" d="M105.84,139.63c-2.54,.67-5.14,.89-7.75,.95-4.27,.09-8.46-.47-12.54-1.72-.22-.06-.42-.2-.65-.04,.46,3.89,3.9,7.26,8.34,8.31,2.92,.69,5.8,.71,8.7-.1,1.58-.44,2.69,.13,2.99,1.4,.31,1.29-.41,2.24-1.95,2.69-4.16,1.21-8.3,1.06-12.37-.36-5.98-2.08-9.37-6.35-10.24-12.58-.15-1.08-.56-1.59-1.5-2.04-1.29-.62-2.51-1.41-3.69-2.22-1.34-.92-1.59-2.13-.8-3.21,.76-1.04,1.98-1.22,3.19-.27,.95,.75,1.65,.72,2.68,.06,3.08-1.97,6.38-3.46,10.06-3.91,2.25-.27,4.38,.06,6.28,1.3,.62,.41,.99,.4,1.56,0,1.78-1.23,3.8-1.73,5.94-1.68,1.45,.03,2.29,.8,2.31,2.06,.03,1.33-.78,2.13-2.32,2.17-1.49,.03-2.82,.44-4.05,1.29-2.04,1.39-3.52,1.35-5.51-.09-1.05-.76-2.22-.91-3.45-.83-2.71,.18-5.09,1.32-7.67,2.74,6.88,2.82,13.69,3.43,20.69,2.14,.32-.06,.64-.15,.96-.18,1.19-.11,2.14,.58,2.37,1.7,.22,1.06-.42,2.12-1.58,2.42Z"/><path class="d" d="M105.84,139.63c-2.54,.67-5.14,.89-7.75,.95-4.27,.09-8.46-.47-12.54-1.72-.22-.06-.42-.2-.65-.04,.46,3.89,3.9,7.26,8.34,8.31,2.92,.69,5.8,.71,8.7-.1,1.58-.44,2.69,.13,2.99,1.4,.31,1.29-.41,2.24-1.95,2.69-4.16,1.21-8.3,1.06-12.37-.36-5.98-2.08-9.37-6.35-10.24-12.58-.15-1.08-.56-1.59-1.5-2.04-1.29-.62-2.51-1.41-3.69-2.22-1.34-.92-1.59-2.13-.8-3.21,.76-1.04,1.98-1.22,3.19-.27,.95,.75,1.65,.72,2.68,.06,3.08-1.97,6.38-3.46,10.06-3.91,2.25-.27,4.38,.06,6.28,1.3,.62,.41,.99,.4,1.56,0,1.78-1.23,3.8-1.73,5.94-1.68,1.45,.03,2.29,.8,2.31,2.06,.03,1.33-.78,2.13-2.32,2.17-1.49,.03-2.82,.44-4.05,1.29-2.04,1.39-3.52,1.35-5.51-.09-1.05-.76-2.22-.91-3.45-.83-2.71,.18-5.09,1.32-7.67,2.74,6.88,2.82,13.69,3.43,20.69,2.14,.32-.06,.64-.15,.96-.18,1.19-.11,2.14,.58,2.37,1.7,.22,1.06-.42,2.12-1.58,2.42Z"/><path class="d" d="M84.81,89.21c-1.8,.03-2.71,1.18-3.59,2.58-3.08,4.88-9.06,7.47-14.65,6.47-.42-.08-.98,.04-1.07-.62,5.11,1.68,11.88-.85,15.21-5.68,.32-.46,.62-.93,.9-1.41,.9-1.52,1.46-1.76,3.2-1.33Z"/><path class="d" d="M80.27,99.83c.78,1.04,1.48,2.15,2.16,3.26,.7,1.15,.47,2.31-.5,2.96-1,.67-2.3,.4-3.05-.67-.82-1.19-1.64-2.38-2.38-3.62-.39-.64-.77-.74-1.46-.48-1.53,.59-3.13,.92-4.76,1.02-.68,.04-.88,.26-.86,.91,.04,1.31,.04,2.61,0,3.92-.05,1.51-.78,2.28-2.08,2.29-1.35,.02-2.11-.8-2.13-2.35-.03-1.4-.05-2.8,0-4.19,.03-.65-.22-.92-.81-1.06-1.64-.38-3.22-.95-4.67-1.81-.57-.33-.8-.13-1.09,.33-.69,1.1-1.42,2.19-2.15,3.27-.85,1.26-2,1.59-3.1,.92-1.14-.7-1.32-1.93-.46-3.29,.72-1.14,1.45-2.28,2.25-3.37,.45-.61,.4-.98-.12-1.52-1.92-1.96-3.24-4.3-4.1-6.9-.47-1.42,.02-2.57,1.21-2.97,1.23-.41,2.3,.15,2.8,1.57,1.67,4.69,4.85,7.83,9.57,9.41,.3,.1,.63,.11,.95,.17,5.11,1.68,11.88-.85,15.21-5.68,.32-.46,.62-.93,.9-1.41,.9-1.52,1.46-1.76,3.2-1.33,1.23,1.34,1.32,2.06,.42,3.61-1.23,2.12-2.77,3.98-4.73,5.45-.69,.52-.72,.89-.23,1.56Z"/><path class="d" d="M83.97,75.08c-.56,1.04-1.81,1.35-3.15,.73-1.89-.88-3.76-1.83-5.85-2.17-.97-.16-1.95-.28-2.93-.41-1.66-.18-3.31-.18-4.97,0l-1.29,.06c-1.15,.13-2.3,.34-3.44,.5-2.37,.23-4.66,.87-6.97,1.38-1.66,.36-2.89-.41-2.98-1.85-.06-1.05,.42-1.89,1.43-2.13,7.26-1.75,14.55-3.36,22.08-1.79,2.48,.52,4.84,1.36,7.02,2.67,1.32,.79,1.68,1.87,1.06,3.02Z"/><path class="d" d="M103.65,115.85c-1.84,1.24-3.92,1.65-6.91,1.77-1.72,0-4.2-.31-6.38-1.77-1.34-.9-1.7-2.09-1.01-3.19,.72-1.13,1.85-1.23,3.28-.44,2.91,1.61,5.86,1.62,8.76-.01,1.4-.78,2.57-.67,3.27,.46,.68,1.08,.27,2.31-1.03,3.19Z"/></g></g></svg>