<?xml version="1.0" encoding="UTF-8"?><svg xmlns="http://www.w3.org/2000/svg" viewBox="0 0 65.66 64.67"><defs><style>.d{fill:#c08f2c;}</style></defs><g id="a"/><g id="b"><g id="c"><g><path class="d" d="M60.87,42.16c.64-.52,1.41-.91,1.98-1.5,1.55-1.56,3.39-3.57,2.63-5.59-.9-2.4-3.06-.07-4.61,.05-3.87,.3-5.66-2.17-6.48-5.03-.85-2.93,2.43-2.67,3.96-3.11,3.69-1.05,3.65-2.56,2.63-6.02-1.24-4.2-5.66-4.87-7.17-7.89-2.37-4.73-7.25-6.37-10.42-10.04-1.69-1.96-4.76-2.09-7.51-1.6-1.12,.19-2.56,.65-3.37,.17-5.94-3.52-10.43-.64-14.91,2.96-2.97,2.4-6.03,4.71-9.18,6.88-3.61,2.49-5.18,5.72-5.08,10.15,.19,8.82,.04,17.64,.07,26.46,.01,2.39-.06,4.83-2.04,6.43-2.31,1.88-1.33,3.31,.2,4.87,2.11,2.15,4.75,2.79,7.64,3.17,2.54,.32,5.69-1.63,7.58,1.88,.36,.67,1.5-.02,1.98-.79,2.62-4.24,6.64-5.02,11.25-4.84,4.42,.17,9.08-.84,12.07,3.86,.35,.56,1.42,.91,2.16,.92,5.75,.08,11.49,.05,17.98,.05-2.37-3.31-4.69-5.68-5.81-8.85-1.15-3.24-1.63-6.58-.96-9.81,.51-2.47,3.76-1.46,5.41-2.78Zm-12.02-30.68c.32,.04,.91,.02,.93,.12,.98,4.91,6.77,5.55,8.6,9.75,.86,2.01,.55,3.15-1.63,3.53-1.76,.31-3.74,2.95-5.18-.67-1.28-3.22-2.79-6.37-4.46-9.41-1.26-2.28-.28-2.96,1.74-3.32ZM30.06,3.84c-5.19,2.27-7.6,11.4-16.25,6.31C19.39,7.59,22.53,.62,30.06,3.84Zm-3.71,23.11c1.03,3.07,2.84,6.27,5.22,8.37,3.1,2.74,1.79,4.87,.18,7.09-2.94,4.04-7.15,5.44-11.89,4.19-4.79-1.26-7.72-4.69-8.12-9.63-.38-4.62-.18-9.29-.14-13.94,.03-2.99,1.81-4.92,4.35-6.15,3.55-1.73,7.28-1.79,11.34-.86-4.83,3.38-2.12,7.45-.94,10.93Zm6.42-9.35c1.46-.35,2.15,.65,2.68,1.68,1.21,2.34,2.58,4.64,3.37,7.12,.55,1.73,3.4,3.89-.54,5.58-3.2,1.37-5.75,2.27-7.42-1.91-.79-1.97-2.32-3.66-2.99-5.65-1.37-4.04,.72-6.78,4.9-6.82Zm-9.7,36.04c-1.34,3.52-3.22,6.59-7.79,6.31-2.32-.15-4.66,.1-6.98-.08-4.69-.34-5.51-1.75-3.52-5.99,.89-1.91,.86-3.87,.86-5.86,.01-8.97-.12-17.94,.03-26.92,.1-6.4,4.14-9.28,9.96-6.91-5.6,2.47-6.79,6.93-6.35,12.29,.23,2.8,.02,5.64,.06,8.47,.12,7.96,3.33,12.37,11.17,14.19,3.13,.73,3.4,2.28,2.56,4.5Zm11.81,2.93c-2.65,.02-5.31,.01-7.97,.01-1.3,0-1.94-.79-1.51-1.9,.76-1.98-1.24-4.88,1.96-6.03,2.2-.8,4-2.26,5.88-3.88,.94,3.47,1.78,6.65,2.69,9.8,.32,1.1,.49,1.98-1.05,2Zm21.57,4.57c-2.35,0-3.83,.01-5.32,0-8.97-.03-13.87-4.46-14.62-13.51-.28-3.3,.06-6.65-.18-9.95-.18-2.51,1.45-2.95,3.17-3.63,2.08-.82,2.5,.65,3.22,2,1.02,1.9,1.98,4.31,4.04,4.88,5.63,1.56,6.27,5.7,6.37,10.48,.06,3.35,2.15,6.15,3.32,9.73Zm-12.94-29.18c-2.28-5.7-3.89-11.71-7.9-16.59-2.04-2.49-1.88-1.95-4.84-1.18-1.96,.51-4.41-.83-7.69-1.58,3.9-2.93,6.96-5.47,10.26-7.67,3.83-2.54,9.03-1.31,11.47,2.42,.55,.85,1.23,1.73,.21,2.61-.89,.79-1.39-.29-2.08-.58-1.35-.56-2.39-3.55-3.9-1.55-1.26,1.7,1.58,2.45,2.61,3.53,3.81,3.94,5.76,8.89,7.86,13.78,1.86,4.35,3.18,9.01,8.02,12.56-5.14-.1-6.69-3.05-8.07-6.08-2.34-5.14-4.01-10.6-7.26-15.29-1.94-2.8-3.99-5.5-7.47-6.83-.19,.75-.43,1.23-.33,1.32,7.18,6.27,9.99,15.09,13.71,23.38,2,4.45,5.79,6.02,10.47,6.04-8.7,1.63-11.81-.1-15.07-8.29Z"/><path class="d" d="M62.69,8.31c1.18-.07,1.97,.5,1.7,1.36-.59,1.92-2.55,2.41-4.12,3.17-.86,.41-1.81-.34-1.51-1.24,.62-1.89,2.63-2.32,3.93-3.28Z"/><path class="d" d="M59.56,3.03c-1.03,1.19-1.14,3.42-3.34,3.7-.8,.1-1.09-.88-.78-1.42,.78-1.4,1.26-3.17,3.04-3.68,.78-.23,1.12,.43,1.08,1.4Z"/></g></g></g></svg>