<svg xmlns="http://www.w3.org/2000/svg" viewBox="0 0 363.62 190.96"><defs><style>.cls-1{fill:#c08f2c;}</style></defs><g id="Capa_2" data-name="Capa 2"><g id="Capa_1-2" data-name="Capa 1"><path class="cls-1" d="M319.67,141.09c-17.87,2.92-31.1-5.4-42.63-18,.55,9.69,13.52,24.35,25.92,29.38-9.87,3-20.81-1.64-37.53-16.28,2.53,12.49,9.66,20.49,20.71,25.44-14.24,2.47-26-5.11-42-27.22,1,16.66,7.95,29.38,21.67,38.45-17.65-.83-30.33-9.92-39.8-24.6-2.85,10-.68,20.55,7.48,36.33-7.46-3.91-12.18-9.79-16.6-16a191.18,191.18,0,0,1-11.58-19.36c.21,13.16-5.84,23.71-13.38,33.79,3.89-12.83,4.67-25.51-1.21-39.11-6.64,24.69-17.44,44.37-45.59,47,20.37-8.18,27.44-23.79,25.08-44.7-1.79,7.77-4.33,15.18-9.79,21.2a42.23,42.23,0,0,1-20.06,12.34c9.46-7,13.81-16.78,16-27.92-10.33,19.32-26.34,29.69-48.43,30.94,17.2-7.51,27.24-20.35,29.91-40.47-9,15.3-22.48,22.2-37.14,27.54,3.85-2.74,7.77-5.39,11.08-8.81a36.17,36.17,0,0,0,8.3-12.38C106.63,161,90.3,166.33,72.67,168.76,87.89,162,99.47,151.82,105,134.2c-18.06,15.71-37.75,22.7-60.44,20C63.46,151,72,146,76.67,134.19c-17.92,11.91-36,12-54.52,2.62,13,1.84,25.49.23,37.33-6.18-18.47,3.63-35.66,1-51.29-9.85A52.38,52.38,0,0,0,48,120.39c-23.57-.08-38.82-12-48-32.85,11.26,14.13,26.56,19.58,44.11,20.56A39.08,39.08,0,0,1,25.57,84.89c2.64,2.44,4.89,4.65,7.27,6.71,13.37,11.57,28.87,7.79,40.88-1.7,2.66-2.09,1.68-4.73.63-7.27-4.54-10.93-7.13-22.4-9.48-33.94a17.87,17.87,0,0,1,0-2.67c3.26,5.86,5.94,11.18,9.05,16.23,14.88,24.12,34.38,42.62,62.44,50.45,19.55,5.45,39.12,4.08,58.75.26,34.39-6.71,69.06-10.6,104.13-8.55,17,1,33.68,3.8,49.24,11.25,5.74,2.75,11,6.16,15.16,11.27-15.84-8.71-33.18-10.61-51.54-12.22,7.23,10.15,17.18,13.08,28,14.84-7.36,3.9-10.88,3.8-40.89-1.05C304.52,135.64,311.4,139.4,319.67,141.09Z"/><path class="cls-1" d="M339.37,77c-12.49-11.09-24.9-22.17-38.49-31.8-23.34-16.55-48-30.44-76.5-36C189.92,2.49,156.61,7,124.17,19.66a168,168,0,0,0-23.54,11.43c12.52-19.27,87.56-36.32,126-29.59,34.27,6,64,20.38,88.66,45.11C324.44,55.82,332.89,65.61,339.37,77Z"/><path class="cls-1" d="M326.45,72.4C308.82,57.5,289.83,45,267.27,38.8c-3.49-1-7-1.76-10.53-2.63a.63.63,0,0,1-.28-.68c.07-.23.15-.35.23-.35,27.3,4.86,51.83,15.2,71.06,36C328,72.21,327.53,72.64,326.45,72.4Z"/><path class="cls-1" d="M326.45,72.4l1.3-1.27c1.89,2.07,3.83,4.1,5.64,6.24.46.54,1.32,1.09.45,3.09Z"/><path class="cls-1" d="M256.69,35.14l.05,1-8.55-1.32C251.1,34.26,254,33.41,256.69,35.14Z"/></g></g></svg>