<svg xmlns="http://www.w3.org/2000/svg" viewBox="0 0 585.5 581.72"><defs><style>.cls-1{fill:#c08f2c;}</style></defs><g id="Capa_2" data-name="Capa 2"><g id="Capa_1-2" data-name="Capa 1"><path class="cls-1" d="M107,329.75q47.94,0,95.88,0c9.72,0,13,4.5,10,13.67-7.07,21.55-9.31,43.23-1.63,65.13,14.28,40.68,56.48,65.44,98.16,57.63,44.45-8.32,74.17-45.89,72.52-91.6a132.49,132.49,0,0,0-5.18-32.44c-2.22-7.66,1.32-12.36,9.35-12.36q94.62-.06,189.25,0c6.28,0,10.15,3.29,10.16,8.45s-3.85,8.51-10.13,8.51q-86.88,0-173.77,0c-6,0-5.91,0-4.87,6,6,34.63.87,66.64-22.24,94.38A104.8,104.8,0,0,1,189.6,373.3,101.9,101.9,0,0,1,193,351.63c1.23-4.31-.06-5-4-4.95q-86.64.15-173.27.06c-2,0-4,0-6,0C3.73,346.57,0,343.31,0,338.27s3.74-8.46,9.59-8.49c12.48-.07,25,0,37.45,0Z"/><path class="cls-1" d="M150,415.46c-10.29-.53-19.17,3.85-27.19,10.64-8.67,7.34-17.55,14.32-29.07,16.79-17.48,3.75-33.74,1.38-48.3-9.52-3.46-2.59-6.8-5.35-10.14-8.09-7.43-6.11-15.7-9.81-25.51-9.91-6.32-.05-10-3.63-9.74-8.9.22-5.07,3.9-8,10-8.07,14-.07,25.87,5.29,36.49,14,3.33,2.75,6.65,5.55,10.19,8a40,40,0,0,0,46.68-.65c4.55-3.34,8.82-7.08,13.33-10.49,11.26-8.52,24.09-11.69,38-10.8,5.62.35,9.09,3.73,9,8.63s-3.88,8.3-9.77,8.34C152.82,415.47,151.65,415.46,150,415.46Z"/><path class="cls-1" d="M505.28,444.53A54.44,54.44,0,0,1,471,432.77c-2.63-2-5.24-4.1-7.76-6.26-8.37-7.2-17.75-11.66-29.08-11.15a8.53,8.53,0,0,1-8.6-4.84,7.93,7.93,0,0,1,.74-8.5c2-2.93,4.93-3.61,8.27-3.66a54.19,54.19,0,0,1,35.27,11.72c4.07,3.17,8,6.52,12.16,9.57a40.13,40.13,0,0,0,48.33-.22c5.07-3.78,9.84-7.95,15-11.61a51.19,51.19,0,0,1,31-9.39c5.39.06,8.89,3.14,9.16,7.86a8.18,8.18,0,0,1-8.58,8.95c-11.95-.06-21.38,5.25-30,12.76-6.31,5.47-13,10.35-21,13.22A59.86,59.86,0,0,1,505.28,444.53Z"/><path class="cls-1" d="M80.79,581.67c-6.15,0-12.29.08-18.43,0-5.46-.1-9.19-3.6-9.21-8.35,0-4.91,3.51-8.51,9-8.58q18.66-.23,37.35,0c5.51.06,9.19,3.64,9.22,8.41,0,5-3.7,8.46-9.55,8.55C93.07,581.74,86.93,581.68,80.79,581.67Z"/><path class="cls-1" d="M504.27,581.66c-6.14,0-12.28.09-18.42,0-5.38-.1-9.16-3.71-9.11-8.45s3.68-8.43,9.14-8.49q18.42-.19,36.83,0c5.89.05,9.62,3.54,9.62,8.55s-3.72,8.33-9.64,8.43c-6.14.11-12.28,0-18.42,0Z"/><path class="cls-1" d="M239.7,513.12c-6.14,0-12.28.12-18.41,0-5.57-.13-9.19-3.56-9.26-8.37s3.57-8.44,9.07-8.5q18.68-.22,37.34,0c5.57.05,9.15,3.53,9.21,8.35s-3.52,8.41-9,8.57c-6.3.18-12.61,0-18.92,0Z"/><path class="cls-1" d="M186.28,581.68c-6,0-12,.1-18,0-5.69-.12-9.24-3.35-9.36-8.23-.13-5.09,3.53-8.68,9.37-8.73q18.24-.18,36.46,0c5.77.05,9.73,3.69,9.72,8.52s-3.93,8.38-9.74,8.46C198.6,581.74,192.44,581.67,186.28,581.68Z"/><path class="cls-1" d="M345.68,496.14c6.13,0,12.28-.11,18.41,0,5.6.13,9.22,3.45,9.36,8.25S369.79,513,364,513.1q-18.42.21-36.83,0c-5.51-.06-9.19-3.57-9.3-8.32-.12-5,3.58-8.51,9.42-8.63C333.4,496,339.54,496.14,345.68,496.14Z"/><path class="cls-1" d="M134.52,496.16c6,0,12-.09,18,0,5.68.1,9.25,3.31,9.38,8.19.14,5.07-3.54,8.68-9.39,8.74q-18.23.17-36.45,0c-6-.05-9.66-3.49-9.67-8.51s3.74-8.36,9.68-8.46c6.15-.1,12.31,0,18.47,0Z"/><path class="cls-1" d="M451.17,513.15c-6,0-11.94.09-17.91,0s-9.61-3.41-9.66-8.45,3.56-8.46,9.53-8.51q18.4-.18,36.81,0c5.59.06,9.15,3.5,9.23,8.38s-3.56,8.37-9.09,8.54c-6.3.19-12.61,0-18.91,0Z"/><path class="cls-1" d="M292.47,581.66c-6.16,0-12.32.07-18.47,0-5.62-.09-9.19-3.36-9.3-8.26s3.39-8.56,8.94-8.63q18.72-.25,37.45,0c5.5.06,9.14,3.73,9.08,8.57s-3.65,8.26-9.22,8.37C304.79,581.75,298.63,581.66,292.47,581.66Z"/><path class="cls-1" d="M28,496.12c6,0,11.94-.08,17.91,0s9.67,3.5,9.62,8.46-3.75,8.46-9.65,8.51q-18.15.17-36.32,0c-6-.06-9.57-3.44-9.57-8.53s3.58-8.32,9.6-8.44S21.88,496.12,28,496.12Z"/><path class="cls-1" d="M558.05,496.15c6,0,11.94-.08,17.91,0s9.54,3.44,9.52,8.51-3.73,8.38-9.65,8.43q-18.17.15-36.32,0c-5.89-.06-9.54-3.52-9.52-8.56s3.75-8.31,9.65-8.4c6.13-.1,12.27,0,18.41,0Z"/><path class="cls-1" d="M398,581.65c-6.16,0-12.31.1-18.47,0-5.54-.12-9.06-3.57-9-8.52,0-4.72,3.43-8.3,8.69-8.37q19-.27,37.93,0c5.52.08,8.92,3.81,8.77,8.82-.14,4.77-3.53,8-8.92,8.09C410.61,581.76,404.28,581.65,398,581.65Z"/><path class="cls-1" d="M242.76,20.43c2.73-.13,4.66.5,6.13,1.91a136.46,136.46,0,0,1,9.81,9.88,8.08,8.08,0,0,1-.55,11.27,8,8,0,0,1-11.27.47A114.33,114.33,0,0,1,237,34.14a7.61,7.61,0,0,1-1.11-8.83A8.11,8.11,0,0,1,242.76,20.43Z"/><path class="cls-1" d="M300.27,76.76c-.19,6.93-7.14,11.1-12.51,7.6a42.62,42.62,0,0,1-11.91-11.84c-2.14-3.18-1.51-6.76,1-9.67s6.21-4,9.46-2.1a41.25,41.25,0,0,1,13.26,13.16A7.16,7.16,0,0,1,300.27,76.76Z"/><path class="cls-1" d="M260.64,67.2c.06,3.3-.59,5.21-2,6.68a138.37,138.37,0,0,1-9.89,9.79,8.38,8.38,0,0,1-11.62-12A106.26,106.26,0,0,1,247,61.87a7.58,7.58,0,0,1,8.85-1C258.88,62.4,260.57,64.93,260.64,67.2Z"/><path class="cls-1" d="M300.26,28.77A8.12,8.12,0,0,1,298,34.65c-3,3.09-5.94,6.27-9.16,9.12a8.31,8.31,0,0,1-11.67-.35,8.18,8.18,0,0,1-.43-11.28,116.9,116.9,0,0,1,9.84-9.82c2.56-2.31,5.69-2.53,8.84-1.07S300.06,25.35,300.26,28.77Z"/><path class="cls-1" d="M431.27,247c-3.92,0-6.45-1.67-8-4.78s-1.29-6.34,1-8.87a90.51,90.51,0,0,1,10-9.7c3.13-2.58,6.77-2.48,10.11,0s4.54,6.27,2.64,9.71c-3.06,5.54-7.82,9.77-13.26,13.09A6.84,6.84,0,0,1,431.27,247Z"/><path class="cls-1" d="M392.71,284.8c-6.9-.19-11-7-7.55-12.45a37.46,37.46,0,0,1,12-11.72c3.31-2,6.86-1.17,9.58,1.53,2.55,2.53,3.66,5.94,1.78,9.11a38.47,38.47,0,0,1-13.34,13A6.38,6.38,0,0,1,392.71,284.8Z"/><path class="cls-1" d="M447.38,276.65c-.29,3.5-1.69,6.05-4.56,7.54-3,1.57-6.31,1.68-8.88-.63a86.51,86.51,0,0,1-10.38-10.68c-2.33-3-2-6.65.46-9.68s6.17-4.57,9.74-2.48a36.3,36.3,0,0,1,13,13.33A8.66,8.66,0,0,1,447.38,276.65Z"/><path class="cls-1" d="M392.66,221.59a7.09,7.09,0,0,1,5.51,1.84,132.39,132.39,0,0,1,9.4,9.56,8.39,8.39,0,0,1-12.14,11.53,115.81,115.81,0,0,1-9-9.23,7.7,7.7,0,0,1-1.19-8.83A7.93,7.93,0,0,1,392.66,221.59Z"/><path class="cls-1" d="M144.42,186.89a52.25,52.25,0,0,1-7,0,8.23,8.23,0,0,1-7.27-8.2c-.05-4.07,2.87-8,7.06-8.36a81.82,81.82,0,0,1,14.43-.05c4.07.35,7.11,4.46,7.05,8.44a8.34,8.34,0,0,1-7.33,8.16A57.82,57.82,0,0,1,144.42,186.89Z"/><path class="cls-1" d="M197.79,170.1a51.69,51.69,0,0,1,6.47,0,8.45,8.45,0,0,1,7.46,8.59,8,8,0,0,1-7.36,8.06,87.38,87.38,0,0,1-13.44.07,8.24,8.24,0,0,1-7.73-8.29,8.61,8.61,0,0,1,8.12-8.49c2.15-.19,4.32,0,6.48,0Z"/><path class="cls-1" d="M162.61,152.19a57.52,57.52,0,0,1,0-6.95,8.12,8.12,0,0,1,8-7.4c4.48-.12,8.21,2.72,8.59,7.29a80.77,80.77,0,0,1-.08,13.91c-.42,4.57-4.17,7.33-8.66,7.12a8,8,0,0,1-7.86-7.5A60.67,60.67,0,0,1,162.61,152.19Z"/><path class="cls-1" d="M162.57,205a60.49,60.49,0,0,1,0-6.46,8.38,8.38,0,0,1,16.69-.25,81.26,81.26,0,0,1,0,13.42,8,8,0,0,1-8.44,7.44c-4.46-.06-7.71-3-8.21-7.69A63.21,63.21,0,0,1,162.57,205Z"/><path class="cls-1" d="M479.88,66.09a54.28,54.28,0,0,1,.46-6.74c.8-4.32,3.69-6.68,8-6.79s7.4,2.09,8.31,6.37a39,39,0,0,1,.12,14.33c-.68,4.23-3.61,6.68-8,6.77-4.61.1-7.53-2.37-8.46-6.83A49,49,0,0,1,479.88,66.09Z"/><path class="cls-1" d="M497,115.16a47.83,47.83,0,0,1-.05,6.45,8.31,8.31,0,0,1-8.47,7.5,8.17,8.17,0,0,1-8.32-7.61,76.38,76.38,0,0,1,0-11.91,8.31,8.31,0,0,1,8.48-8c4.43,0,7.92,3.35,8.4,8.15.18,1.81,0,3.64,0,5.46Z"/><path class="cls-1" d="M513.16,99.27c-2,0-4,.16-6,0-4.68-.46-7.72-3.69-7.85-8.09a8.22,8.22,0,0,1,7.7-8.77,80.59,80.59,0,0,1,11.42-.06c5.17.31,8.4,3.83,8.34,8.67s-3.34,8-8.68,8.26C516.48,99.34,514.82,99.27,513.16,99.27Z"/><path class="cls-1" d="M463.74,99.22a45.39,45.39,0,0,1-5.95,0c-4.51-.61-7.14-3.27-7.5-7.87a7.92,7.92,0,0,1,7-8.77,66.28,66.28,0,0,1,13.36,0,8,8,0,0,1,7,8.79c-.37,4.56-3,7.29-7.5,7.86A51.21,51.21,0,0,1,463.74,99.22Z"/><path class="cls-1" d="M425.37,2.6c-3.08-3.32-7.81-3.48-12.21-.4-1,.67-1.86,1.41-2.78,2.12a252.79,252.79,0,0,0-52.05,55.5C309.94,129.45,280.93,207,266.11,290c-2.27,12.72-6.26,24.34-13.39,35.07a111.27,111.27,0,0,0-17.46,45.79c-5.35,36,22.43,68.35,60.88,68.46a58,58,0,0,0,23.48-5.68c25-11.95,37.39-37,33.6-66.85a101.3,101.3,0,0,0-15.67-42.19A76.39,76.39,0,0,1,325,282.73a390.18,390.18,0,0,1,3.07-53.27c8.18-60.18,30.13-115.26,62-166.62a407.89,407.89,0,0,1,34.75-48.09C428.41,10.53,428.5,6,425.37,2.6ZM332.7,141c-16.06,44-24.64,89.34-24.85,136.31-.09,20.76,4.29,39.83,15.75,57.29a79,79,0,0,1,13.21,44.82c-.16,25-21,44.67-45.76,42.87s-42.64-24.45-38.91-49.19a99,99,0,0,1,16-40.54,88,88,0,0,0,14.22-36.42c6.18-41.89,18.57-82.05,34.05-121.32C321.13,162.73,326.6,151,331.75,139,333.49,139,333.41,139.82,332.7,141Z"/><path class="cls-1" d="M332.71,141l-1-1.94c1.11-4.31,3.43-8,5.92-11.65C336.55,132.13,335.28,136.79,332.71,141Z"/></g></g></svg>