<svg xmlns="http://www.w3.org/2000/svg" viewBox="0 0 577.79 412.36"><defs><style>.cls-1{fill:#c08f2c;}</style></defs><g id="Capa_2" data-name="Capa 2"><g id="Capa_1-2" data-name="Capa 1"><path class="cls-1" d="M0,127.26C36.05,76.4,79.77,34.84,138.85,11.51c30.5-12,61.62-13.82,93.68-9.09,70.63,10.44,137.93,32.42,204.26,57.92.09,0,.13.21.44.77q-11.28,5.19-22.5,10.36c-20,9.27-40.11,18.48-60.08,27.89a10.75,10.75,0,0,1-8.94.46A997.09,997.09,0,0,0,225.54,65.56c-44.86-9.64-89-7.62-132.26,7.58C70.08,81.29,49.44,94.49,29,107.88,19.27,114.25,9.66,120.8,0,127.26Z"/><path class="cls-1" d="M82.86,312.59c-.66-6.74-1.44-13.46-1.94-20.21-1.19-15.79-1.61-31.57.25-47.36C82.6,232.93,88,224.93,100,220.17c40.14-15.84,79.89-32.66,119.85-49C274.3,149,327,122.79,380.46,98.43,434.1,74,487.47,48.94,541,24.26A25.74,25.74,0,0,1,575.87,38c5.54,13.69-1.32,28.93-15.51,34.07q-132.45,48-264.95,95.92c-59,21.29-117.49,44.05-176.29,65.92-8.44,3.14-13.55,8.2-16.07,17.2-5.41,19.31-11.85,38.32-17.87,57.46-.43,1.37-1,2.71-1.43,4.06Z"/><path class="cls-1" d="M142.63,325.29c-12.9-9.12-25.28-19.46-37.82-29.6-3.11-2.51-4.18-4.72-2.29-8.2.87-1.61.53-3.68,2.12-5.17,11.21,9,22.4,18.14,33.76,27.06,38.17,30,81.27,47,129.86,50.88,35.66,2.85,69.53-4,102.67-15.89,23-8.21,45.55-17.46,68.38-26,10.76-4,21.79-7.22,33.35-8a45.3,45.3,0,0,1,7.46.11c3.19.31,5.45,1.93,5.12,5.48-.34,3.73-2.84,4.93-6.3,4.72-11.16-.68-21.56,2.55-32.68,6.12l29,27.38q3.63,3.42,7.29,6.83c2.54,2.37,4.29,5.11,1.51,8.18s-5.82,2-8.62-.64c-12.08-11.46-24.28-22.8-36.29-34.33-2.65-2.54-4.79-3.74-8.52-1.79-4.51,2.35-9.46,3.84-14.52,5.82,9.23,9.68,18.13,19.11,27.17,28.41,2.69,2.78,4.86,5.67,1.47,8.94s-6.31,1.05-8.95-1.72c-9.08-9.52-18.3-18.91-27.27-28.53-2.19-2.35-4-2.69-6.87-1.41-5,2.22-10.16,4.12-15.34,5.9-2.59.89-2.45,1.78-1,3.75,7.17,10,14.19,20.08,21.33,30.09,2.15,3,4.22,6.16.34,9.07-4.21,3.16-6.58-.05-8.81-3.21-7.57-10.72-15.23-21.38-22.71-32.17-1.45-2.1-2.53-2.75-5.18-1.82-7.05,2.45-14.23,4.54-21.43,6.54-2.62.74-2.83,1.61-1.78,4.05,4.55,10.46,8.82,21.05,13.25,31.56,1.43,3.4,2.05,6.67-2.11,8.34s-6-.95-7.4-4.41c-4.46-10.89-9.15-21.68-13.53-32.6-1.15-2.88-2.48-3.48-5.49-2.87-7.32,1.5-14.72,2.79-22.15,3.62-3.31.37-3.77,1.54-3.27,4.39,1.64,9.33,3.25,18.67,4.63,28.05.55,3.75,2.3,8.35-3.42,9.92-3.83,1.05-5.53-1.21-6.67-8.27-1.6-9.86-3.28-19.69-4.72-29.57-.37-2.49-1.22-3.4-3.78-3.25a147.92,147.92,0,0,1-24.45-.62c-2.69-.29-3.69.28-3.91,3.28-.73,10.12-2,20.21-2.77,30.33-.3,3.91-1.66,6.76-5.81,6.43-3.94-.33-4.79-3.31-4.41-7,1-9.93,1.62-19.92,2.85-29.83.47-3.73-.47-4.74-4.09-5.26-7.73-1.11-15.4-2.69-23-4.4-2.57-.57-3.47.09-4.26,2.41-3.38,9.88-6.92,19.7-10.4,29.54-.39,1.09-.72,2.22-1.17,3.29-1.26,3-3.48,4.68-6.7,3.56-3.46-1.21-4.15-4-3-7.31,3.65-10.31,7.13-20.68,11.12-30.85,1.38-3.52.47-4.53-2.73-5.43a137.6,137.6,0,0,1-20.95-7.86c-2.29-1.06-3.35-.59-4.68,1.48-6.63,10.35-13.48,20.56-20.16,30.88-2.06,3.18-4.56,5.27-8.19,2.93s-2.59-5.45-.49-8.59c6.45-9.66,12.6-19.53,19.2-29.09,2-2.93,1.33-3.71-1.45-5.15-5.9-3-11.67-6.38-17.28-9.94-2.62-1.67-4.13-1.86-6.55.58-9.6,9.71-19.51,19.11-29.3,28.63-.48.47-.94.95-1.43,1.41-2.49,2.33-5.3,3.18-7.91.53s-1.87-5.44.64-7.88c6.57-6.38,13.22-12.68,19.69-19.16C134.79,334,138.52,329.71,142.63,325.29Z"/><path class="cls-1" d="M427.68,130.81l51.69-18.71c12.49-4.52,25-9,37.43-13.62a6.54,6.54,0,0,1,6.08.3c5.07,2.84,10.23,5.51,15.41,8.14,1.77.9,2.75,1.77,2.68,4.1Q539.83,147,539,182.9c-.07,3.1-.39,3.9-3.44,2-34-20.63-69.88-37.58-106.48-53A9.35,9.35,0,0,1,427.68,130.81Z"/><path class="cls-1" d="M67.81,333.13c-12.91,9.65-25.85,19.26-38.72,29-2.4,1.81-4.83,2.86-7,.28-2.4-2.83-.84-5.22,1.71-7.13l35.09-26.2-.16-.48Q43.27,334,27.81,339.42c-4.86,1.7-9.69,3.46-14.55,5.16-2.67.94-5.14.65-6.17-2.3-1-2.79.25-4.76,3.12-5.76,22.25-7.78,44.47-15.64,66.73-23.37a6.76,6.76,0,0,1,8.36,2.76c2.14,3.21,1.41,6.3-.66,9.26l-26.86,38.4c-2.76,3.95-5.54,7.89-8.26,11.87-1.62,2.36-3.71,3.61-6.31,1.93-2.83-1.83-2.53-4.3-.71-6.87q12.54-17.69,25-35.41c.34-.48.67-1,1-1.48Z"/><path class="cls-1" d="M69.48,279.61c.4.51.56.61.57.73.66,9.86.67,9.87-8.27,14-4.05,1.87-8.1,3.73-12.18,5.51-3.13,1.37-5.91,1.07-7.52-2.31s.24-5.72,3.25-7.1C53.39,286.73,61.51,283.17,69.48,279.61Z"/><path class="cls-1" d="M69.68,268.93c-4.51-2.31-8.62-4.36-12.67-6.51-2.74-1.45-4.52-3.58-3.08-6.81s4.14-4,7.4-2.6l.46.18C70.35,256.76,70.35,256.76,69.68,268.93Z"/></g></g></svg>