<svg xmlns="http://www.w3.org/2000/svg" viewBox="0 0 376.45 425.9"><defs><style>.cls-1{fill:#c08f2c;}</style></defs><g id="Capa_2" data-name="Capa 2"><g id="Capa_1-2" data-name="Capa 1"><path class="cls-1" d="M179,180a60.38,60.38,0,0,0-3.87-22,89.23,89.23,0,0,0-8.74-19.61c-8.78-14.28-20.18-25.81-35.46-33-3.86-1.83-5.34-4.33-5.16-8.52.28-6.45,0-12.92.13-19.37a61.41,61.41,0,0,0-.08-7.43c-.66-7.24-5.6-12.29-13-13.36-4.32,0-8.63-.09-12.94,0-3.42.09-4.81-1.48-4.81-4.77,0-6,0-11.94,0-17.91s.35-6.32,6.6-6.37c8.78-.08,17.58.16,26.35-.42,5-2.94,5.42-5,1.67-9.29-3.8-2-7.92-1.12-11.91-1.29-18-.31-36-.1-54.06-.1-1.82,0-3.65.14-5.14,1.42l-20,0a3.25,3.25,0,0,0-3.24.65A227.2,227.2,0,0,0,15.72,34.5a6.29,6.29,0,0,0-2.12,4.31c.26,3.45,2.32,4.9,5.58,5,2.89-.58,5.08-2.41,7.29-4.17,3.77-3,7.56-6,11.3-9a12.07,12.07,0,0,1,7.74-3c11.31,0,22.62,0,33.93,0,3,0,4.69,1,4.66,4.33-.06,6.81,0,13.63,0,20.45,0,2.91-1.29,4.27-4.2,4.29-3.32,0-6.65,0-10,0-11,.14-16.56,5.56-16.75,16.57-.14,7.81-.18,15.63,0,23.45.1,4.16-1.21,7-5.19,8.62a54.24,54.24,0,0,0-9,5.27A95.83,95.83,0,0,0,12.59,139c-4.11,6.15-6.45,13.11-9,20A73.72,73.72,0,0,0,0,181c.14,25.74-.06,51.47.12,77.2C0,278.12,0,298.05.12,318q-.24,46.81,0,93.63c0,2.15-.21,4.36,1.32,6.18-.15,4.42,2.07,6.12,6.36,5.93,3.59-.16,7.19.07,10.78.13h60a29.34,29.34,0,0,0,20,0h20a29.23,29.23,0,0,0,20,0c1.63,0,3.26-.15,4.88-.14,4,0,6.23-1.59,5.93-5.85-.43-2.23-2.07-3-4.07-3.35-16-.77-31.89,0-47.84-.14-19.1-.18-38.2-.05-57.3,0-7.31,0-14.63.22-21.93-.09-6-.26-6.85-1.32-7-7.18,0-3.15.09-6.31-.12-9.46q.36-29.94,0-59.87.36-49.86,0-99.73c.25-18,.08-35.93,0-53.9.3-24.59,10.16-44.59,28.87-60.41C50.43,114.87,61.9,109.49,76,111.37c3.92.51,8,0,11.95.09,10.29.21,20.59-.55,30.88.42,5.12,1.16,9.3,4.16,13.63,6.87,23.92,16.62,35.66,39.52,35.57,68.63q-.1,35.38,0,70.78c.08,3,.95,5.57,4.08,6.45,2.93.83,5-.62,6.23-3.28a9.25,9.25,0,0,0,.43-2.95C179,232.26,178.9,206.15,179,180ZM113,102.1c-4.82-.13-9.65-.13-14.47-.18-10.48,0-21,0-31.45.12-2.32,0-3.48-.38-3.79-3.16-1.08-9.5,0-18.95.23-28.41.07-3.38,2.53-4.32,5.55-4.31,9.82.06,19.64.08,29.46.11,3.82,0,7.65,0,11.47-.18,4.25-.16,6.22,2.18,6.29,6,.16,9,0,18,.1,26.94C116.38,101.59,115.16,102.15,113,102.1Z"/><path class="cls-1" d="M374.62,408.09c-4.27-9.65-8.29-19.41-12.42-29.12,0-2.9-1.2-5.45-2.37-8-5-11.07-9.74-22.25-14.42-33.46-5.75-13.41-11.77-26.71-17.39-40.18-8.24-19.74-17.44-39.06-25.39-58.93-.47-2,.5-3.59,1.24-5.22,2.61-5.73,5-11.55,7.59-17.28,3.76-8,7.68-15.78,8.28-24.88,1-15.62-7.6-27.89-13.77-41-1.29-2.73-4.05-3.39-6.89-2.17-3.2,1.36-5,.08-6.27-2.82-.72-1.68-1.61-3.29-2.39-4.94-3.33-7.44-6.73-14.84-10.12-22.24-1.92-5.16-4.63-10-6.95-14.94-2.17-4.64-4.91-5.53-9.8-3.78-4.25,1.51-8.11,3.88-12.27,5.57-3.94,1.6-7,3.73-7.91,8.18-.51,2.53-2,3.35-4.36,2-3-2.18-6.1-2.07-9.32-.32-6.28,3.4-12.89,6.08-19.38,9-2.49,1.12-4.86,2.2-5.66,5.11-.29,1-.69,1.95-2,1.37-5.54-2.41-9.52,1.55-13.8,3.64s-4.87,4.72-2.94,9.06c2.35,5.29,4.63,10.63,7.32,15.78,3.66,8.85,7.86,17.46,11.95,26.12,1.43,3,2,5.58-1.87,7.26a4.82,4.82,0,0,0-2.93,4.29c1.21,8.17,6.22,14.83,8.93,22.41a44.25,44.25,0,0,0,26.84,23.6c8.8,2.91,17.64,5.77,26.64,8,4.76,1.18,8.16,3.35,9.67,8.11,7,13.14,13.54,26.53,20.14,39.88,6.76,13,12.92,26.31,19.92,39.2,7.24,13.51,13.88,27.33,20.74,41,6.38,12.82,12.91,25.55,19.22,38.4,1.78,3.12,3,6.68,6.93,8,5.14,1.7,10.08,2.06,14.16-2.38S376.86,413.14,374.62,408.09ZM196.81,143.66c-.45-1-1.45-2.12-.16-3.13a3.28,3.28,0,0,1,4.12-.35c2.39,1.53,4.76,2.95,5.81,5.88.84,2.34,2.08,4.52,3.14,6.78,1.19,2.56,2.13,5.76,5.92,4.54,4.15-1.34,2.9-4.52,1.94-7.43-1.82-4.62-5.64-8.53-4.3-14.26.52-2.24,1.38-3.49,3.33-4.37,4.51-2.06,9.08-4,13.44-6.39,3.2-1.73,5.88-1.61,8.51.83,6.37,1.62,6.76,7.57,8.9,12.26,1.66,3.36,3.46,6.66,4.95,10.09,1.18,2.73,2.9,4.29,6,4,3.22-2,3.06-4.68,1.59-7.74-2.72-5.67-5.3-11.42-8-17.12a7.7,7.7,0,0,1-.87-5.17c1.53-7.5,4.67-10.75,12.44-12.58,1.81-.42,2.41.38,3,1.69l2.9,6.83A169,169,0,0,1,278.7,138c2.24,4.6,4.39,9.26,6.76,13.8,1.25,2.4.54,3.39-1.79,4.44-15.13,6.77-30.2,13.69-45.28,20.56l-3,1.23c-5.23,2.5-10.52,4.89-15.66,7.55-2.33,1.21-3.38.79-4.44-1.56C209.21,170.51,203,157.1,196.81,143.66Zm169.64,273.8c-2.26,1-3.35-.72-4.21-2.39q-5.42-10.62-10.76-21.27c-2.66-5.33-5.24-10.7-7.86-16.05q-9.66-19.39-19.33-38.81c-7.41-13.45-14-27.29-20.72-41.09A59.32,59.32,0,0,1,298.31,287c-6-11.65-11.86-23.34-17.93-34.94-1.87-3.59,1.39-3.29,2.89-4.18,2.22-1.32,3.87-2.88,2.73-5.59s-3.74-3.43-5.82-2.08c-8.35,5.42-15.5.13-23-2.1-10.57-2.7-21.39-4.72-30.21-11.85a17.27,17.27,0,0,1-1.55-1.25c-2.78-2.88-6.42-6-6.48-9.72-.07-4.47,5.56-4,8.59-5.8,3.39-2,7.23-3.22,10.87-4.78h0c13.1-6.73,26.59-12.6,40-18.62,3.9-1.85,7.81-3.69,11.69-5.57,2.64-1.27,5.5-2.72,3.68-6.31-1.7-3.34-4.56-2.53-7.34-1.24q-31.9,14.76-63.82,29.49a29.48,29.48,0,0,0-4.06,1.89c-3.32,2.21-4.72.84-6.21-2.39-1.7-3.66.54-4.09,2.93-5.19,26.74-12.24,53.49-24.48,80.12-37,3.51-1.65,4.77-1.15,6.11,2.26,2.37,6,5.84,11.6,7.6,17.87,2.38,8.42.58,16.44-2.84,24.23q-7.42,16.88-14.82,33.75c6.24,13.06,11.94,26.35,17.24,39.82a151.05,151.05,0,0,1,8.68,20.12c6.49,13,11.86,26.41,17.26,39.84,6,12.8,11.68,25.73,16.91,38.85,5.31,12.11,10.59,24.23,15.95,36.31C368.34,414.79,368.66,416.5,366.45,417.46ZM257.75,217.59a2.51,2.51,0,0,0,.27.37,1.79,1.79,0,0,0,.27.28.63.63,0,0,0,.12.11V218a6.58,6.58,0,0,0-.67-.4Z"/><path class="cls-1" d="M318.08,358.79c-2.77-1.93-5.61-.86-8.67,3.28-1,1.34-1.84,2.77-2.81,4.13a76.75,76.75,0,0,1-9.84,11.89c-2.93,2.94-5.87,5.85-9.06,8.54s-6.56,4.48-10.86,3.7c-6.23-.11-12.48-.11-18.71,0-6.59-.19-13.19-.16-19.78,0-6.65-.18-13.3-.16-19.95,0q-9.9-.26-19.8,0c-6.29-.14-12.57-.08-18.87,0-2.82.19-5.66,0-8.46.21a13.18,13.18,0,0,1-10-3.54c-15.63-13.57-27.57-29.57-33.21-49.77-.59-3.77-1.68-7.44-2.24-11.23-1-6.88-.53-7.39,6.41-7.58,14.29-.4,28.59.06,42.88,0,21.6-.14,43.21,0,64.82,0,15.77,0,31.55.22,47.32-.41,2.83-1,4.55-2.94,3.94-6s-3.07-4.13-5.92-4.41a62.24,62.24,0,0,0-7.48-.1q-49.32-.39-98.64,0c-24.16-.06-48.3,0-72.45,0a41.41,41.41,0,0,0-17.85,4.2c-4.36,2.06-8.62,4.35-13,6.41-1.08.51-2.25,1.63-3.82.1,2.12-4.09,5.19-7.62,7.72-11.48,6.6-10.08,15.82-14.45,27.88-14.35,30.47.25,61,.11,91.42.06,24,.29,48.1.09,72.16.09a16.1,16.1,0,0,0,3.46-.32c5.6-1.23,6.89-5.14,3.22-9.69a6,6,0,0,0-1.81-.7c-18.11-.67-36.22-.17-54.32-.24-38.54-.15-77.09,0-115.63-.29-10.16-.07-19,2.55-26.83,8.81-2.58,2-4.41,4.72-6.41,7.26-1.2,1.59-2.39,3.19-3.53,4.82-3.71,5.26-8.23,10-9.92,16.5.86,10.32,7.69,14.66,17.88,11.33,7.27-3.36,14-7.85,21.75-10.18,2.57-.59,5.21-.78,7.81-1.18,5.43-.84,6.51,0,7.17,5.27a103.79,103.79,0,0,0,2.44,12.6c.67,1.89,1,3.88,1.57,5.8,1.6,5.44,4.12,10.49,6.53,15.59a120.14,120.14,0,0,0,12.64,20.37,11.32,11.32,0,0,0,.82,1.14c5.35,5.47,10.43,11.21,16.48,16,1.18.92,2.39,1.88,2.3,3.63-.4,2.29-1.63,4.33-2.07,6.6-.85,4.5-1.11,8.91,3.07,12.17l1.8,2c3.14,5.38,11.66,7.26,18.82,4.16h100a17.46,17.46,0,0,0,12.08-6c5-4.15,4.68-9.46,2.27-14.48-2.06-4.29-.82-6.65,2.58-9.18,9.49-7,16.58-16.27,23-26.06C321.07,363.84,320.87,360.72,318.08,358.79Zm-41,56.2c-16.8.06-33.59,0-50.38,0h-2.49v-.11q-26.19,0-52.37,0c-5.43,0-8.24-2.07-8.09-5.82a8.53,8.53,0,0,1,8.31-8.37l103.75-.08c5.12,0,8.44,3.3,8.6,8.42C284.55,413.1,282.39,415,277.1,415Z"/><path class="cls-1" d="M98.54,0c3.31.05,6.62.18,9.93.14,2.69,0,5.2.17,5.15,3.7s-2.39,4.32-5.4,4.32q-14.89,0-29.8,0c-6.61,0-13.23.08-19.85.13-1.66-.05-3.31-.16-5-.15-3.05,0-4.87-1.62-4.79-4.48s2.32-3.56,5-3.55c13.76.06,27.52,0,41.28,0C96.23.15,97.38.05,98.54,0Z"/><path class="cls-1" d="M258.41,218v.39a.63.63,0,0,1-.12-.11A1.79,1.79,0,0,1,258,218a2.51,2.51,0,0,1-.27-.37v0A6.58,6.58,0,0,1,258.41,218Z"/><path class="cls-1" d="M258.41,218v.39a.63.63,0,0,1-.12-.11Z"/><path class="cls-1" d="M26.77,376.57l-.36-2.8c0-11.93-2.09-23.77-1.35-35.76.41-6.8.09-13.64.06-20.46a171.34,171.34,0,0,1,.68-20.86,70.11,70.11,0,0,0-.48-20.83,45.43,45.43,0,0,1,.06-16.4,71.48,71.48,0,0,0,.42-20.84,106.63,106.63,0,0,1,0-21.73A76.39,76.39,0,0,0,25.35,196c-1-5.55-1-11.29,1.46-16.68a32.69,32.69,0,0,1,11.67-13.74c6.33-4.06,13.41-4.25,20.58-4,22.73-.2,45.46-.12,68.19,0,9.59,0,16.56,5.09,22.27,12.27a4.43,4.43,0,0,1,1.1,4.15,44.08,44.08,0,0,1,2.74,16.09c-.08,22.47,0,44.93,0,67.4a21.07,21.07,0,0,1-.11,4c-.44,2.31-1.83,4.17-4.28,4.14s-3.94-1.82-4.21-4.19-.18-5-.25-7.47c-1.45-1.61-1.56-3.61-1.56-5.6,0-17.87-.22-35.74.1-53.6,0-2.65,0-5.31,0-8-.11-10.75-6.16-17.84-17-18-24.07-.44-48.16-.64-72.24-.05-5.27.13-10.09,2-13.5,6.46-3.63,3.77-4.13,8.47-4.14,13.4,0,21.88.14,43.76-.06,65.65q.32,29.7,0,59.4c.13,6.65.19,13.3,0,19.95.14,10.31,0,20.63.08,31,.12,11.17,6.52,17.66,17.72,17.76,15.15.13,30.3,0,45.45,0a31.85,31.85,0,0,1,6.47.34c3,.62,5.5,2.11,5.45,5.5s-2.47,5.29-5.74,5.86a47.77,47.77,0,0,1-7,.22c-15.19-.18-30.39.36-45.59,0-4.88-.12-9.5-1-13.67-3.67-4-3-7.82-6.06-10.33-10.51C27.57,381.67,26.55,379.31,26.77,376.57Z"/></g></g></svg>