<svg xmlns="http://www.w3.org/2000/svg" viewBox="0 0 498.8 498.55"><defs><style>.cls-1{fill:#c08f2c;}</style></defs><g id="Capa_2" data-name="Capa 2"><g id="Capa_1-2" data-name="Capa 1"><path class="cls-1" d="M392.52,237.61c-4.19-5.61-7.26-11.68-7.38-18.89a4.11,4.11,0,0,1-.36-2c1.74-10,3.53-20,11-27.75,2.94-3.09,4.89-6.65,3.23-11.16-3.67-9.15-10.18-11-17.69-4.88-3.84,3.12-7.54,6.43-12.94,7.81,1.37-12.86.63-25.39-.83-37.9-.22-6.07-.16-12.22-4.87-17-5.76-12.79-14.71-23-24.88-32.54-5.4-5.06-9.26-11.75-14-18,9.94-.27,18,2.63,25.71,9,2.91,2.4,5.63,5.31,9.83,5.1a9.45,9.45,0,0,0,8.67-5.56,9.61,9.61,0,0,0-1.21-10.66c-3.8-4.84-8.35-9.22-9.57-15.63-.68-6.3-.63-12.68-1.85-18.92.57-8.1,4.79-14.43,9.79-20.42,4.74-5.67,5.08-11.13,1.11-15.19-4.13-4.22-9.61-3.84-15.57,1.1l-1.18,1c-11.41,9.28-24.05,11.88-38.07,7a30.26,30.26,0,0,1-13.43-8.47,8.53,8.53,0,0,1-1.84-.74c-5.73-4-10-3.8-14.27.85-3.46,3.72-3.16,8.92.79,13.76.22,1.82,1.5,3,2.49,4.41a42.1,42.1,0,0,1,7.63,19c-6.91-5.26-12.23-11.54-19.88-14.65C258.52,17,243.7,8.75,227.32,3.58L208.72.11c-12.28-.33-24.52,0-36.65,2.21C151.89,6.08,132.66,12.86,120.39,30c-7.61,10.61-17.13,17.76-27.22,25.13-5.46,4-10.67,6.48-17.38,5.26-3.34-.25-5.16,2.35-7.39,4.06-9.3,7.12-19.91,9.25-31.32,8.6a23.35,23.35,0,0,1-2.53-.37c-7-1.77-12.43-6.3-18.08-10.54-6.67-5-15.45-1-16,7-.27,3.92,2,6.78,4.36,9.54,4.45,5.14,7.87,10.81,8.81,17.7,0,.15,0,.31,0,.46.26,11.38-1.26,22.25-9,31.41-2.54,3-5.1,6-4.58,10.41.6,7,4.43,10.21,12.36,10.32,3.06-.91,5.26-3.12,7.67-5,4.47-3.56,9.23-6.59,15.66-7.54a98.45,98.45,0,0,0-5.56,37c.71,2,.18,4,.13,6.06-.17,5.65,0,11.31,3.77,16.07,3.32,8.14,5.2,15.95,2.53,25.18-4.18,14.43-2.88,29.37-.16,44.08a25.37,25.37,0,0,0,4.92,15.91c7.19,16.27,17.2,30.66,29.15,43.75,2.81,4.14,6,7.89,10.59,10.17,1.15.42,1.39,1.55,1.63,2.47,4.46,17,12.19,32.51,21,47.54,1.8,4.85,4.25,9.23,8.66,12.24,6,6.89,11.76,13.94,18.48,20.12a5.68,5.68,0,0,1,1.88,4.56c0,9.13.69,18.26-.1,27.39-1.93,4.84-2.48,10-3.25,15.08-1,6.27-4.92,11.28-6.72,17.18-1.8,2.46-4.13,5.19-3.14,8.17,1.2,3.63,3.23,7.26,7.58,8.39a10,10,0,0,0,10.69-3.31,43.77,43.77,0,0,0,7.65-12.2c5.79-13.6,7.29-27.95,7.24-42.51,0-4.63,1.05-5.15,5-2.89,23.23,13.18,47.45,14.78,72.48,5.73,5.32.09,9.29-3.59,14.15-5.41.95,5.55,1.39,10.79,2.53,15.91,1.1,7.66,1.88,15.41,4.53,22.71,3.15,8.7,6.15,17.66,15.42,22.16,8.18,1.94,13.38-2,12.58-9.56a15.42,15.42,0,0,0-3.6-7.88,32.43,32.43,0,0,1-6.12-12.39c-3.62-13.48-4.2-27.17-2.86-41a3.11,3.11,0,0,0,1.07-2.29c-.59-5.31,2.55-8.61,6-11.89a147.12,147.12,0,0,0,24.26-30.8c2.74-4.49,6.17-8.76,7-14.22-.16-2,1.22-3.48,2-5.13,6.75-13.92,11.6-28.41,11.88-44a12.36,12.36,0,0,1,4.16-9.36,127.73,127.73,0,0,0,33.86-58.94c1.62-6.17,1.62-6.17,7.9-4.38,6.82,2,12.3,6,17.65,10.45a9.5,9.5,0,0,0,13.16-.5c3.61-3.54,4-8.79.82-13.15C395.44,241,393.86,239.41,392.52,237.61ZM314.4,34.13c1.82-1.57,6.51.34,9.92.37s7.11-.33,10.66-.52c-.19,3.56-.39,7.12-.54,10.68-.05,1.2,0,2.41.08,3.62.37,7.1.38,7.1-6.82,6.73l-3.1-.16v.28c-3.56,0-8.37,1.4-10.35-.37-2.24-2,.19-6.74.19-10.32S311.91,36.28,314.4,34.13ZM37.09,115.2c-2.17.44-3.29.15-2.82-2.42a45.87,45.87,0,0,0,0-16.44c-.42-2.36.35-3,2.71-2.67a52.27,52.27,0,0,0,15.94,0c2.44-.37,3.72.1,3,2.52a41.53,41.53,0,0,0,0,16.25c.54,2.66-.35,3.3-2.94,2.76A39.19,39.19,0,0,0,37.09,115.2ZM57,263a42.67,42.67,0,0,1-2.81-16.66,69.06,69.06,0,0,1,0-12.94c.56-10.36,4.09-17.53,14.64-22.74,24.69-12.19,45-29.95,58.82-54.37,1.74-3.08,3-6.32,1.81-9.87a9.59,9.59,0,0,0-8.34-6.83c-4.38-.53-7.74,1.59-9.87,5.31a108.84,108.84,0,0,1-17.63,23.56C82.9,179,70.73,187.39,57.6,194.49c-1.79,1-2.75,1.08-3.15-1.13-.79-4.39-2.89-8.51-2.68-13.11-.14-.6-.26-1.2-.38-1.8a63.11,63.11,0,0,1,4.48-38.63c1.07-2.44,2-3.1,4.58-1.89a40.79,40.79,0,0,1,10.81,7C74,147.49,77,149,80.6,149h.06a10.43,10.43,0,0,0,1.35-.09,11,11,0,0,0,7.48-7.44,10.28,10.28,0,0,0,.19-2.09c-.07-5.65-5-9-7.53-13.52-4.94-6.8-6.72-14.49-6.5-22.78a6.59,6.59,0,0,1,1.22-3.81,121.07,121.07,0,0,1,35.32-33.54c2-1.26,2.75-.94,3.77,1,2.8,5.49,5.84,10.86,8.78,16.28L134,94.69c6.59,6.33,13.06,12.82,20.93,17.61,2,1.2,1.75,2.45,1.08,4.3-3.45,9.61-3.82,19.59-3.24,29.65.07.24.14.48.2.72q2.47,8.66,4.94,17.31c5,7.17,9.52,14.77,17,20.44-50.34,27-74,72.92-90.77,124.79C71.53,295.7,61.22,281.17,57,263Zm230.85,94.81c-13.48,25.88-31.09,48.11-57.2,62.31-16.64,9.06-34.1,11.3-52.17,4.17a44.08,44.08,0,0,1-13.37-6.44c-15.84-9-28.26-21.59-38.61-36.4a50.47,50.47,0,0,1-7.86-11.55,117.42,117.42,0,0,1-17.54-41.64c-.84-4.14,1.41-8.05,2.45-12,.87-3.3,2.18-6.48,3.29-9.72a166.78,166.78,0,0,1,14.47-35.63c15.49-31.79,37.07-57.59,70.5-71.78a5.28,5.28,0,0,1,3.45-.4,59.88,59.88,0,0,1,14.83,8.05c14.9,8.06,27.88,18.7,40.26,30.13a85.16,85.16,0,0,1,11.57,11.45c12.42,12.32,23.5,25.64,31,41.6,3.55,5.36,6,11.11,6,17.67C301,325.64,296,342.1,287.81,357.81Zm27.36-69.13c-2.64-5.27-5.16-10.31-7.68-15.36a275.06,275.06,0,0,0-31.18-39.66L264.72,222.5a376.93,376.93,0,0,0-40.5-31l-12.42-7.31c-14.12-6.31-27.4-13.68-34.81-28.25-1-2-1.71-4.07-2.56-6.11-.15-.4-.29-.81-.42-1.21-2.73-8.37-1.7-16.72.6-25.07.53-1.92,1.68-2.35,3.48-1.74,5.83,2,11.9,3.23,17.45,6A190.75,190.75,0,0,1,243,150.88a61.15,61.15,0,0,1,12.65,9.19c13.62,10.38,24.84,22.76,32.05,38.47,1.1,1.93,2.15,3.89,3.3,5.8,2.31,3.86,5.94,5,10.18,4.87,5.93-1.64,8.41-5.76,8.39-11.68q-3.24-6.71-6.46-13.43c-8.66-14.91-20-27.5-33-38.72l-11.75-9a281.25,281.25,0,0,0-47.63-24.81l-14.42-5.46c-18.69-3.61-35.61-10.45-47.7-26.11a48.39,48.39,0,0,1-9.19-12.31c-3.56-4.73-5.65-10.2-8-15.54-1.17-2.6.08-4.32,1.34-6.14,9.11-13.16,22.63-19.25,37.52-22.78,5.09-1.21,10.25-2.79,15.64-2.37a70.7,70.7,0,0,1,22.53-.42c.88.12,1.75.28,2.63.45,14.13,1.57,26.71,7.35,38.75,14.48,3.39,2,6.55,4.37,9.82,6.58a67.75,67.75,0,0,1,11.67,9c5.45,3.68,9.87,8.56,14.77,12.87,1.77,1.55,1.53,2.65.1,4.19a52.35,52.35,0,0,0-4.54,5.64,9.56,9.56,0,0,0,1.05,12.73c3.57,3.55,8.4,4,12.71,1,.71-.48,1.36-1.06,2-1.6,5.54-4.44,5.54-4.44,9.95,1.74,3.56,3.77,7.07,7.56,9.31,12.32,7,9,17.1,15.3,23,25.36,2.78,4.73,5.46,9.48,6.23,15,.16.54.31,1.08.46,1.62,3.5,12.79,3.52,25.76,1.75,38.85-.36,2.72-1.69,2.47-3.51,2A38.47,38.47,0,0,1,328,173.61c-2.59-2.45-5.43-4.25-9.13-4.27-7,2.06-8.77,4.25-9.43,11.57,1.07,4.68,5.56,7.18,7.28,11.45,10,11.32,9.78,32-.4,44.93-1,1.22-2,2.39-3,3.57-3.1,3.65-4.76,7.67-2.34,12.26,2.27,4.3,6,6.14,10.89,5.42,5.39-2,8.74-7.21,14.84-9.38A109.06,109.06,0,0,1,315.17,288.68Zm49.48-63.75c-3.6-.19-7.19-.48-10.78-.53-3.37,0-6.74.17-10.11.27V214.43h.06V203.71c3.56.1,7.13.27,10.69.27s6.82-.2,10.23-.31c-.11,3.38-.29,6.75-.3,10.13C364.43,217.51,364.57,221.22,364.65,224.93Z"/><path class="cls-1" d="M391.67,397.87l-.07.09h.13A.7.7,0,0,1,391.67,397.87Zm.06.09c.64.93,1.9.5,2.84.5,11.41,0,22.82.1,34.22,0,4.45,0,8.93.61,13.35-.49Zm0,0c.64.93,1.9.5,2.84.5,11.41,0,22.82.1,34.22,0,4.45,0,8.93.61,13.35-.49Zm-.13,0h.13a.7.7,0,0,1-.06-.09Zm107.19,33.61c.35-13.6-5.26-23.56-17.05-30.16-2.18-3-5.55-3.06-8.71-3.75s-6.35.91-9.55.3c.54-7.67,1.3-15.3.2-23-1.89-13.17-7.77-24.71-14.07-36.12a19.41,19.41,0,0,0-8.29-11.43c-1.18-1.22-2.41-2.4-3.55-3.67-4.23-4.68-8.23-5.91-12.75-3.8-5.26,2.46-6.42,6.84-5.46,12.08,3.67,19.93-6.05,27.69-23.73,26.9a35.93,35.93,0,0,0-37.32,34.53c-.18,5-1.91,5.4-6,5.37-18-.11-28.47,8-32.83,25.16-.66,2.56-.21,5.15-.31,7.73-.24,6.54.6,13.12-.4,19.62-1.11,7.23-1.48,14.37.7,21.46,3.77,16.39,14.35,25.48,31.1,25.58q58.41.36,116.83,0c19.11-.14,31-12.77,31.16-32C498.83,454.77,498.5,443.16,498.79,431.57ZM378.25,393.79c1.71-9.3,8.07-14.75,18-15.12,4.29-.16,8.59-.17,12.89-.25,11.86-2.94,21.81-8.5,27.91-21.14,7.13,13.57,9.53,26.65,5.06,40.68-1,1.52-2.51.75-3.76.75-18.6.05-37.21-.12-55.81.11C378.38,398.87,377.58,397.48,378.25,393.79ZM478.76,468c-.07,6.26-3.72,10.18-10,10.21-21.25.13-42.49-.09-63.74-.17a129.68,129.68,0,0,1-19.71,0c-11.93.09-23.86.37-35.79.18-6.32-.1-9.89-3.89-10-10.16-.16-6.74.09-13.48.16-20.22-.06-6.53-.33-13.08-.12-19.6.18-5.65,3.88-9.31,9.56-9.48,6.53-.2,13.07.05,19.61.11h93.47c2.24-.06,4.49-.28,6.72-.15,5.92.34,9.78,4,9.87,9.89Q479,448.31,478.76,468Zm-31.68-29.53c-.86,0-1.72-.11-2.58-.17H424.74c-17.77.06-35.55.09-53.33.18-7.06,0-11.29,3.24-12,8.89-.66,5.29,2.68,9.31,9.23,11.08h81c6.31-1.82,9.64-5.73,9.15-10.73C458.28,442.06,454.09,438.77,447.08,438.48Zm-52.51-40c11.41,0,22.82.1,34.22,0,4.45,0,8.93.61,13.35-.49H391.73C392.37,398.89,393.63,398.46,394.57,398.46Zm-3-.5h.13a.7.7,0,0,1-.06-.09Z"/><path class="cls-1" d="M51.39,178.45c.12.6.24,1.2.38,1.8A8.41,8.41,0,0,1,51.39,178.45Z"/><path class="cls-1" d="M82,148.87a10.43,10.43,0,0,1-1.35.09A11.92,11.92,0,0,1,82,148.87Z"/><path class="cls-1" d="M89.68,139.34a10.28,10.28,0,0,1-.19,2.09A10.76,10.76,0,0,1,89.68,139.34Z"/><path class="cls-1" d="M211,20.9c-.88-.17-1.75-.33-2.63-.45A6.57,6.57,0,0,1,211,20.9Z"/><path class="cls-1" d="M346.32,141.93c-.15-.54-.3-1.08-.46-1.62A4.64,4.64,0,0,1,346.32,141.93Z"/><path class="cls-1" d="M174.43,149.81a4.48,4.48,0,0,1-.42-1.21C174.14,149,174.28,149.41,174.43,149.81Z"/><path class="cls-1" d="M425.44,438.32l-.25.19c-.5.35-1,.7-1.53,1-14.64,1-29.3.18-44,.43-2.59,0-5.18-.06-7.76,0-6.15.23-9.78,2.72-10.57,7.17s1.5,7.4,7.21,9.84q.65.21,1.29.36c4.66,1.1,9.43.26,14.14.44s9.32-.05,14,.09a6.64,6.64,0,0,1,3,.55H368.66c-6.55-1.77-9.89-5.79-9.23-11.08.69-5.65,4.92-8.85,12-8.89,17.78-.09,35.56-.12,53.33-.18Z"/><path class="cls-1" d="M449.69,458.46H422.2c2-1,4.51-.54,6.75-.57,4.81-.06,9.61,0,14.42,0a19.88,19.88,0,0,0,5.28-.36l.33-.1c6.35-2,9.19-5.67,8.13-10.5a8.47,8.47,0,0,0-6.88-6.82c-1.82-.43-3.8-.1-5.5-1.13a4.71,4.71,0,0,1-.34-.6s0,0,0-.05h.13c.86.06,1.72.14,2.58.17,7,.29,11.2,3.58,11.76,9.25C459.33,452.73,456,456.64,449.69,458.46Z"/><path class="cls-1" d="M449.69,458.46h-81a4.86,4.86,0,0,1,1.22-1.08c1.62-1,3.6-.82,5.46-.82q33.82-.1,67.66,0c1.93,0,4-.19,5.65.94A4.6,4.6,0,0,1,449.69,458.46Z"/><path class="cls-1" d="M444.5,438.31l-.11.05a23.49,23.49,0,0,1-19.2.15l-.45-.19H444.5Z"/><path class="cls-1" d="M449.69,458.46h-81c-6.55-1.77-9.89-5.79-9.23-11.08.69-5.65,4.92-8.85,12-8.89,17.78-.09,35.56-.12,53.33-.18H444.5c.86.06,1.72.14,2.58.17,7,.29,11.2,3.58,11.76,9.25C459.33,452.73,456,456.64,449.69,458.46Z"/></g></g></svg>