<svg xmlns="http://www.w3.org/2000/svg" viewBox="0 0 510.64 510.99"><defs><style>.cls-1{fill:#c08f2c;}</style></defs><g id="Capa_2" data-name="Capa 2"><g id="Capa_1-2" data-name="Capa 1"><path class="cls-1" d="M340.33,221.28q-.63-69.67-46.8-121.94a23.55,23.55,0,0,1-6.37-17.22c.19-24.84-9.66-45.13-29.33-60.46C244.12,11,227.67,7.33,211.16,4.15c-9.42-1.82-19-2.79-28.51-4.15h-25c-9.33,1.36-18.72,2.37-28,4.14-16.49,3.14-32.92,6.8-46.65,17.35C62.85,37.05,53.16,57.87,53.46,83.24A20.91,20.91,0,0,1,47.68,98.7Q6.12,145.08.9,207.34a34.4,34.4,0,0,1-.9,4.31v291.5c.44.68.89,1.35,1.32,2,2.79,4.58,7.23,6.65,11.73,5.47C18,509.36,21,505.59,21,500c.08-21.62,0-43.25,0-64.88,0-72-.23-144.06.22-216.09.2-32.2,10.06-61.77,28-88.57.94-1.42,2.05-2.72,3.08-4.08a111.56,111.56,0,0,1,1,18.29c0,9.86,3.69,15,10.66,15s10.43-5.15,10.43-15.16c0-21.13-.14-42.26,0-63.38.21-23.84,13.74-43.2,36-50.4,40.29-13,80.87-13.14,121,.47,19.69,6.68,31.42,21.52,34.12,42.27,1.32,10.14.86,20.54.87,30.82q.11,81.86,0,163.7a161.53,161.53,0,0,1-.89,18.41,88.45,88.45,0,0,1-11.62,35.18c-55.83-31-111.34-31-167.12,0-1-1.85-2-3.55-2.84-5.31a95.81,95.81,0,0,1-9.52-42.92c.09-12.81.15-25.62-.07-38.43-.12-6.7-4.54-11-10.45-11A10.12,10.12,0,0,0,53.5,234.35c.17,19.11-1.17,38.51,1.66,57.26,7,46.45,33.79,78.5,78.2,93.39s84.86,5,118.83-27.32c23.78-22.66,35-51.34,35.09-84.16.15-47.41,0-94.82,0-142.23V125c1.58,2,2.15,2.56,2.62,3.24,18.71,27.13,28.82,57.15,29.45,90.11.43,22.45.09,44.91.14,67.37,0,7.39,4,12.08,10.28,12.25s10.57-4.63,10.58-12.31C340.41,264.2,340.53,242.74,340.33,221.28ZM100,339.06c38.07-25,97.3-27.44,140.81-.17C204.89,380.8,135.8,380.83,100,339.06Z"/><path class="cls-1" d="M441.19,169c-6.25,28.53-11.59,57.26-17.37,86.14H385.36c-2-9.59-4-19.28-5.9-29Q371.21,184.9,363,143.61a33.79,33.79,0,0,1-.76-6.4q0-68.61,0-137.21h21q-.06,68.11-.11,136.23a12.92,12.92,0,0,0,.16,2.49Q392.58,184.86,402,231c.26,1.29,1.69,2.33,2.58,3.49.94-1.32,2.45-2.51,2.75-4,4.45-21.63,8.89-43.27,13-65,2.26-11.87,5.38-23.84,5.57-35.81.69-43.23.3-86.49.32-129.74h21c0,36.26-.47,72.52,0,108.76A262.5,262.5,0,0,1,441.19,169Z"/><path class="cls-1" d="M510.64,277.39a26.63,26.63,0,0,0-3.11-.39q-56.86,0-113.75.06a11.24,11.24,0,0,0-5.54,1.73q-43.59,27.12-87,54.48a6.54,6.54,0,0,0-2.7,4.59c-.27,8.8,0,17.62-.21,26.42-.07,3,1.2,4.41,3.51,5.84,28.64,17.82,57.21,35.76,85.89,53.52a14.86,14.86,0,0,0,7.41,2.11c36.75.13,73.5.09,110.25.08,1.77,0,3.53-.16,5.24-.25V404.76h-6.18c-34.26,0-68.52.06-102.78-.11a17.76,17.76,0,0,1-8.78-2.51c-19.55-12-38.94-24.24-58.37-36.42-1.33-.83-2.59-1.78-4.94-3.4,2.82-.17,4.39-.35,5.95-.35,18.29,0,36.59.07,54.88-.1,3.72,0,5.8.88,7.64,4.49a31,31,0,0,0,33,16.32c14.51-2.74,25.26-13.17,26.09-27.49,1-16.74.48-33.56.62-50.35,0-2.09,0-4.18,0-6.88h53ZM397.32,337.28c-.8,1.48-2.63,3.41-4,3.42-20.78.22-41.55.16-62.33.16-.12-.37-.25-.74-.37-1.1,1.15-.82,2.26-1.7,3.46-2.45,19.73-12.35,39.43-24.73,59.24-36.94a15.37,15.37,0,0,1,7.39-2.2c11.75-.23,23.51-.1,35.57-.1v22c-5.17,0-10.3-.58-15.24.11C410.28,321.66,402.51,327.72,397.32,337.28Zm28.83,25a10.88,10.88,0,1,1-.16-21.75,10.89,10.89,0,0,1,.16,21.75Z"/><path class="cls-1" d="M116.43,138.81h-20c-4.53,27.3-17.24,39.88-42.91,42.41v21.07A41.55,41.55,0,0,1,83.41,214.7c8.31,8.18,12,18.45,12.84,29.92h20.32c2.92-25.7,17-40,42.65-42.77v-20.6C133.73,178.54,123.31,168.18,116.43,138.81Zm-9.82,67.41L92.1,191.71l14.61-14.4c4,4,9.69,9.74,14.54,14.61Z"/><path class="cls-1" d="M340.4,463.72c0,11.79.06,23.58,0,35.37,0,7.21-4.33,12-10.5,11.9s-10.35-5-10.36-12.16q-.06-35.61,0-71.23c0-7.23,4.23-12.07,10.37-12.15s10.45,4.69,10.48,11.91C340.44,439.48,340.4,451.6,340.4,463.72Z"/><path class="cls-1" d="M117.5,468V447.64h20.38V468Z"/><path class="cls-1" d="M180.53,447.74v20.12H160.1V447.74Z"/><path class="cls-1" d="M202.91,447.61h20.22v20.22H202.91Z"/></g></g></svg>